<?xml version="1.0" encoding="UTF-8" standalone="no"?><svg xmlns="http://www.w3.org/2000/svg" xmlns:xlink="http://www.w3.org/1999/xlink" contentScriptType="application/ecmascript" contentStyleType="text/css" height="192px" preserveAspectRatio="none" style="width:541px;height:192px;" version="1.1" viewBox="0 0 541 192" width="541px" zoomAndPan="magnify"><defs><filter height="300%" id="fczzxno2h87so" width="300%" x="-1" y="-1"><feGaussianBlur result="blurOut" stdDeviation="2.0"/><feColorMatrix in="blurOut" result="blurOut2" type="matrix" values="0 0 0 0 0 0 0 0 0 0 0 0 0 0 0 0 0 0 .4 0"/><feOffset dx="4.0" dy="4.0" in="blurOut2" result="blurOut3"/><feBlend in="SourceGraphic" in2="blurOut3" mode="normal"/></filter></defs><g><!--MD5=[4c31dd735a0b44527e42d4c3e9e7b2d8]
cluster CdReader--><polygon fill="#FFFFFF" filter="url(#fczzxno2h87so)" points="124,6,207,6,214,28.2969,524,28.2969,524,128,124,128,124,6" style="stroke:#000000;stroke-width:1.5;"/><line style="stroke:#000000;stroke-width:1.5;" x1="124" x2="214" y1="28.2969" y2="28.2969"/><text fill="#000000" font-family="sans-serif" font-size="14" font-weight="bold" lengthAdjust="spacing" textLength="77" x="128" y="20.9951">CDReader</text><rect fill="#FEFECE" filter="url(#fczzxno2h87so)" height="33.9688" style="stroke:#A80036;stroke-width:1.5;" width="118" x="140" y="59"/><text fill="#000000" font-family="sans-serif" font-size="12" lengthAdjust="spacing" textLength="104" x="147" y="72.1387">CDReaderFacade</text><line style="stroke:#A80036;stroke-width:1.5;" x1="141" x2="257" y1="76.9688" y2="76.9688"/><rect fill="#FEFECE" filter="url(#fczzxno2h87so)" height="33.9688" style="stroke:#A80036;stroke-width:1.5;" width="55" x="319" y="78"/><text fill="#000000" font-family="sans-serif" font-size="12" lengthAdjust="spacing" textLength="41" x="326" y="91.1387">reader</text><line style="stroke:#A80036;stroke-width:1.5;" x1="320" x2="373" y1="95.9688" y2="95.9688"/><rect fill="#FEFECE" filter="url(#fczzxno2h87so)" height="33.9688" style="stroke:#A80036;stroke-width:1.5;" width="73" x="435" y="58"/><text fill="#000000" font-family="sans-serif" font-size="12" lengthAdjust="spacing" textLength="59" x="442" y="71.1387">converter</text><line style="stroke:#A80036;stroke-width:1.5;" x1="436" x2="507" y1="75.9688" y2="75.9688"/><!--MD5=[4a65e84059005d12693a083370a06717]
entity client--><ellipse cx="26.5" cy="45" fill="#FEFECE" filter="url(#fczzxno2h87so)" rx="8" ry="8" style="stroke:#A80036;stroke-width:1.5;"/><path d="M26.5,53 L26.5,80 M13.5,61 L39.5,61 M26.5,80 L13.5,95 M26.5,80 L39.5,95 " fill="none" filter="url(#fczzxno2h87so)" style="stroke:#A80036;stroke-width:1.5;"/><text fill="#000000" font-family="sans-serif" font-size="14" lengthAdjust="spacing" textLength="41" x="6" y="113.4951">client</text><!--MD5=[4470c11ee57ca77620ebdad368440052]
entity Cd--><rect fill="#FEFECE" filter="url(#fczzxno2h87so)" height="36.2969" rx="35" ry="35" style="stroke:#000000;stroke-width:1.5;" width="39" x="452" y="144"/><text fill="#000000" font-family="sans-serif" font-size="14" lengthAdjust="spacing" textLength="19" x="462" y="166.9951">Cd</text><!--MD5=[0902e19d277cd5dc43e3ce4f3de2f353]
link client to CDReaderFacade--><path codeLine="13" d="M47.0585,76 C68.309,76 103.3776,76 134.366,76 " fill="none" id="client-to-CDReaderFacade" style="stroke:#A80036;stroke-width:1.0;"/><polygon fill="#A80036" points="139.7,76,130.7,72,134.7,76,130.7,80,139.7,76" style="stroke:#A80036;stroke-width:1.0;"/><text fill="#000000" font-family="sans-serif" font-size="13" lengthAdjust="spacing" textLength="29" x="78" y="72.0669">read</text><!--MD5=[ef9683e0ff9b45ae5eff798306753bac]
reverse link client to CDReaderFacade--><path codeLine="14" d="M52.0373,91.2266 C59.7411,95.2164 68.4686,98.9678 77,101 C103.9182,107.4118 134.432,101.0137 158.083,93.0876 " fill="none" id="client-backto-CDReaderFacade" style="stroke:#A80036;stroke-width:1.0;"/><polygon fill="#A80036" points="47.3838,88.7249,53.4167,96.5098,51.7877,91.0926,57.2049,89.4636,47.3838,88.7249" style="stroke:#A80036;stroke-width:1.0;"/><text fill="#000000" font-family="sans-serif" font-size="13" lengthAdjust="spacing" textLength="27" x="79" y="97.0669">Disc</text><!--MD5=[d02f1c1b9350a5e2e973636f3f7bbd3c]
link reader to Cd--><path codeLine="17" d="M374.189,109.538 C395.997,121.4172 426.513,138.0396 447.312,149.3692 " fill="none" id="reader-to-Cd" style="stroke:#A80036;stroke-width:1.0;"/><polygon fill="#A80036" points="451.857,151.8446,445.8664,144.0271,447.466,149.4531,442.04,151.0527,451.857,151.8446" style="stroke:#A80036;stroke-width:1.0;"/><!--MD5=[661492c83e2ce073fe271984771963fb]
link CDReaderFacade to reader--><path codeLine="18" d="M258.342,83.6185 C277.094,86.0673 297.177,88.6898 313.333,90.7995 " fill="none" id="CDReaderFacade-to-reader" style="stroke:#A80036;stroke-width:1.0;"/><polygon fill="#A80036" points="318.654,91.4944,310.2474,86.3632,313.6961,90.8472,309.212,94.2959,318.654,91.4944" style="stroke:#A80036;stroke-width:1.0;"/><!--MD5=[fafac55cdcadc3c0e16bf4a20c4b1f83]
link reader to converter--><path codeLine="19" d="M374.189,90.6603 C390.464,88.014 411.589,84.5791 429.905,81.6008 " fill="none" id="reader-to-converter" style="stroke:#A80036;stroke-width:1.0;"/><polygon fill="#A80036" points="434.99,80.7739,425.4645,78.2709,430.0549,81.5767,426.749,86.1671,434.99,80.7739" style="stroke:#A80036;stroke-width:1.0;"/><!--MD5=[79d955b2bc5a02de660010650cfbb4f6]
link converter to CDReaderFacade--><path codeLine="20" d="M434.907,68.125 C416.757,64.961 394.285,61.567 374,60 C337.395,57.172 296.512,60.594 263.577,64.988 " fill="none" id="converter-to-CDReaderFacade" style="stroke:#A80036;stroke-width:1.0;"/><polygon fill="#A80036" points="258.361,65.701,267.8198,68.4454,263.3149,65.0239,266.7364,60.5191,258.361,65.701" style="stroke:#A80036;stroke-width:1.0;"/><!--MD5=[ca9f743813e973c03bf9221a05d96d32]
@startuml
allowmixing
left to right direction
actor client
package CDReader as CdReader{
  object CDReaderFacade{
  + readCd()
  }

  object reader
  object converter
}

client- ->CDReaderFacade: read
client<- -CDReaderFacade: Disc
storage Cd

reader - -> Cd
CDReaderFacade- ->reader
reader- ->converter
converter- ->CDReaderFacade
@enduml

PlantUML version 1.2021.01beta3(Unknown compile time)
(GPL source distribution)
Java Runtime: Java(TM) SE Runtime Environment
JVM: Java HotSpot(TM) 64-Bit Server VM
Default Encoding: UTF-8
Language: en
Country: US
--></g></svg>