<?xml version="1.0" encoding="UTF-8" standalone="no"?><svg xmlns="http://www.w3.org/2000/svg" xmlns:xlink="http://www.w3.org/1999/xlink" contentScriptType="application/ecmascript" contentStyleType="text/css" height="702px" preserveAspectRatio="none" style="width:227px;height:702px;" version="1.1" viewBox="0 0 227 702" width="227px" zoomAndPan="magnify"><defs><filter height="300%" id="f1bowyovb2funa" width="300%" x="-1" y="-1"><feGaussianBlur result="blurOut" stdDeviation="2.0"/><feColorMatrix in="blurOut" result="blurOut2" type="matrix" values="0 0 0 0 0 0 0 0 0 0 0 0 0 0 0 0 0 0 .4 0"/><feOffset dx="4.0" dy="4.0" in="blurOut2" result="blurOut3"/><feBlend in="SourceGraphic" in2="blurOut3" mode="normal"/></filter></defs><g><ellipse cx="137.5" cy="16" fill="#000000" filter="url(#f1bowyovb2funa)" rx="10" ry="10" style="stroke:none;stroke-width:1.0;"/><rect fill="#FEFECE" filter="url(#f1bowyovb2funa)" height="33.9688" rx="12.5" ry="12.5" style="stroke:#A80036;stroke-width:1.5;" width="99" x="88" y="67"/><text fill="#000000" font-family="sans-serif" font-size="12" lengthAdjust="spacing" textLength="79" x="98" y="88.1387">Click load CD</text><rect fill="#FEFECE" filter="url(#f1bowyovb2funa)" height="33.9688" rx="12.5" ry="12.5" style="stroke:#A80036;stroke-width:1.5;" width="129" x="73" y="142"/><text fill="#000000" font-family="sans-serif" font-size="12" lengthAdjust="spacing" textLength="109" x="83" y="163.1387">Open file chooser</text><rect fill="#FEFECE" filter="url(#f1bowyovb2funa)" height="33.9688" rx="12.5" ry="12.5" style="stroke:#A80036;stroke-width:1.5;" width="123" x="76" y="217"/><text fill="#000000" font-family="sans-serif" font-size="12" lengthAdjust="spacing" textLength="103" x="86" y="238.1387">Select Load from</text><rect fill="#FEFECE" filter="url(#f1bowyovb2funa)" height="33.9688" rx="12.5" ry="12.5" style="stroke:#A80036;stroke-width:1.5;" width="151" x="62" y="292"/><text fill="#000000" font-family="sans-serif" font-size="12" lengthAdjust="spacing" textLength="131" x="72" y="313.1387">Dispatch to Controller</text><rect fill="#FEFECE" filter="url(#f1bowyovb2funa)" height="33.9688" rx="12.5" ry="12.5" style="stroke:#A80036;stroke-width:1.5;" width="119" x="78" y="367"/><text fill="#000000" font-family="sans-serif" font-size="12" lengthAdjust="spacing" textLength="99" x="88" y="388.1387">Service read CD</text><polygon fill="#FEFECE" filter="url(#f1bowyovb2funa)" points="137.5,442,149.5,454,137.5,466,125.5,454,137.5,442" style="stroke:#A80036;stroke-width:1.5;"/><rect fill="#FEFECE" filter="url(#f1bowyovb2funa)" height="33.9688" rx="12.5" ry="12.5" style="stroke:#A80036;stroke-width:1.5;" width="123" x="7" y="520"/><text fill="#000000" font-family="sans-serif" font-size="12" lengthAdjust="spacing" textLength="103" x="17" y="541.1387">turn on verbosity</text><rect fill="#FEFECE" filter="url(#f1bowyovb2funa)" height="33.9688" rx="12.5" ry="12.5" style="stroke:#A80036;stroke-width:1.5;" width="102" x="80.5" y="595"/><text fill="#000000" font-family="sans-serif" font-size="12" lengthAdjust="spacing" textLength="82" x="90.5" y="616.1387">run command</text><ellipse cx="131.5" cy="680" fill="none" filter="url(#f1bowyovb2funa)" rx="10" ry="10" style="stroke:#000000;stroke-width:1.0;"/><ellipse cx="132" cy="680.5" fill="#000000" rx="6" ry="6" style="stroke:none;stroke-width:1.0;"/><!--MD5=[2f2c0456e44c7e850771cc91e5b75440]
link start to Click load CD--><path d="M137.5,26.177 C137.5,35.269 137.5,49.527 137.5,61.485 " fill="none" id="start-to-Click load CD" style="stroke:#A80036;stroke-width:1.0;"/><polygon fill="#A80036" points="137.5,66.791,141.5,57.791,137.5,61.791,133.5,57.791,137.5,66.791" style="stroke:#A80036;stroke-width:1.0;"/><!--MD5=[7b0c413d43c16bf53f82e3c717af88a3]
link Click load CD to Open file chooser--><path d="M137.5,101.201 C137.5,111.692 137.5,125.463 137.5,136.818 " fill="none" id="Click load CD-to-Open file chooser" style="stroke:#A80036;stroke-width:1.0;"/><polygon fill="#A80036" points="137.5,141.844,141.5,132.844,137.5,136.844,133.5,132.844,137.5,141.844" style="stroke:#A80036;stroke-width:1.0;"/><!--MD5=[c2313bdc5b3ae0c7b38b2b1e013675db]
link Open file chooser to Select Load from--><path d="M137.5,176.201 C137.5,186.692 137.5,200.463 137.5,211.818 " fill="none" id="Open file chooser-to-Select Load from" style="stroke:#A80036;stroke-width:1.0;"/><polygon fill="#A80036" points="137.5,216.844,141.5,207.844,137.5,211.844,133.5,207.844,137.5,216.844" style="stroke:#A80036;stroke-width:1.0;"/><!--MD5=[269776863546ec2159cb2893b0e6e35d]
link Select Load from to Dispatch to Controller--><path d="M137.5,251.201 C137.5,261.692 137.5,275.463 137.5,286.818 " fill="none" id="Select Load from-to-Dispatch to Controller" style="stroke:#A80036;stroke-width:1.0;"/><polygon fill="#A80036" points="137.5,291.844,141.5,282.844,137.5,286.844,133.5,282.844,137.5,291.844" style="stroke:#A80036;stroke-width:1.0;"/><!--MD5=[84601999a5a14f0f89b76d074ea6d048]
link Dispatch to Controller to Service read CD--><path d="M137.5,326.201 C137.5,336.692 137.5,350.463 137.5,361.818 " fill="none" id="Dispatch to Controller-to-Service read CD" style="stroke:#A80036;stroke-width:1.0;"/><polygon fill="#A80036" points="137.5,366.844,141.5,357.844,137.5,361.844,133.5,357.844,137.5,366.844" style="stroke:#A80036;stroke-width:1.0;"/><!--MD5=[3755c5c81e4a6e554fb91905b76a8fc5]
link Service read CD to #1952351--><path d="M137.5,401.115 C137.5,411.916 137.5,426.082 137.5,436.883 " fill="none" id="Service read CD-to-#1952351" style="stroke:#A80036;stroke-width:1.0;"/><polygon fill="#A80036" points="137.5,441.885,141.5,432.885,137.5,436.885,133.5,432.885,137.5,441.885" style="stroke:#A80036;stroke-width:1.0;"/><text fill="#000000" font-family="sans-serif" font-size="11" lengthAdjust="spacing" textLength="92" x="25.375" y="432.3462">input is verbose</text><!--MD5=[0cf9f7ae499988f0aeafffabfaa9d839]
link #1952351 to turn on verbosity--><path d="M132.314,461.088 C122.524,472.581 100.926,497.935 85.5729,515.958 " fill="none" id="#1952351-to-turn on verbosity" style="stroke:#A80036;stroke-width:1.0;"/><polygon fill="#A80036" points="82.2044,519.912,91.0859,515.6553,85.447,516.106,84.9963,510.4671,82.2044,519.912" style="stroke:#A80036;stroke-width:1.0;"/><text fill="#000000" font-family="sans-serif" font-size="11" lengthAdjust="spacing" textLength="21" x="110.5" y="497.2104">Yes</text><!--MD5=[1fe1b39f49f3288bc6a244459c8a9914]
link turn on verbosity to run command--><path d="M82.4817,554.201 C91.8616,565.07 104.2801,579.459 114.27,591.0355 " fill="none" id="turn on verbosity-to-run command" style="stroke:#A80036;stroke-width:1.0;"/><polygon fill="#A80036" points="117.557,594.8442,114.7047,585.4174,114.2901,591.059,108.6485,590.6444,117.557,594.8442" style="stroke:#A80036;stroke-width:1.0;"/><!--MD5=[c69da1aaddc119a4b12e14e78c86d74b]
link #1952351 to run command--><path d="M138.325,465.42 C139.617,483.481 141.751,521.759 139.5,554 C138.674,565.822 136.897,578.923 135.227,589.582 " fill="none" id="#1952351-to-run command" style="stroke:#A80036;stroke-width:1.0;"/><polygon fill="#A80036" points="134.42,594.6014,139.7968,586.3497,135.213,589.6647,131.8981,585.0809,134.42,594.6014" style="stroke:#A80036;stroke-width:1.0;"/><!--MD5=[f9695b454b34c3c5f1c507ef7945a2d8]
link run command to end--><path d="M131.5,629.3146 C131.5,640.2368 131.5,654.4683 131.5,664.8993 " fill="none" id="run command-to-end" style="stroke:#A80036;stroke-width:1.0;"/><polygon fill="#A80036" points="131.5,669.97,135.5,660.97,131.5,664.97,127.5,660.97,131.5,669.97" style="stroke:#A80036;stroke-width:1.0;"/><!--MD5=[3c1cb94ebf1c4de18fc55f8f70c1b0ed]
@startuml
(*)  - -> "Click load CD"
- -> "Open file chooser"
- -> "Select Load from"
- -> "Dispatch to Controller"
- -> "Service read CD"
If "input is verbose" then
- -> [Yes] "turn on verbosity"
- -> "run command"
else
- -> "run command"
Endif
- ->(*)
@enduml

PlantUML version 1.2021.01beta3(Unknown compile time)
(GPL source distribution)
Java Runtime: Java(TM) SE Runtime Environment
JVM: Java HotSpot(TM) 64-Bit Server VM
Default Encoding: UTF-8
Language: en
Country: US
--></g></svg>