<?xml version="1.0" encoding="UTF-8" standalone="no"?><svg xmlns="http://www.w3.org/2000/svg" xmlns:xlink="http://www.w3.org/1999/xlink" contentScriptType="application/ecmascript" contentStyleType="text/css" height="182px" preserveAspectRatio="none" style="width:552px;height:182px;" version="1.1" viewBox="0 0 552 182" width="552px" zoomAndPan="magnify"><defs><filter height="300%" id="f1ibq5qwm4abx9" width="300%" x="-1" y="-1"><feGaussianBlur result="blurOut" stdDeviation="2.0"/><feColorMatrix in="blurOut" result="blurOut2" type="matrix" values="0 0 0 0 0 0 0 0 0 0 0 0 0 0 0 0 0 0 .4 0"/><feOffset dx="4.0" dy="4.0" in="blurOut2" result="blurOut3"/><feBlend in="SourceGraphic" in2="blurOut3" mode="normal"/></filter></defs><g><!--MD5=[15636c1ca4a123c16a2a1a8e90aca7a9]
cluster Model--><polygon fill="#FFFFFF" filter="url(#f1ibq5qwm4abx9)" points="16,71.398,70,71.398,77,93.6949,530,93.6949,530,170.398,16,170.398,16,71.398" style="stroke: #000000; stroke-width: 1.5;"/><line style="stroke: #000000; stroke-width: 1.5;" x1="16" x2="77" y1="93.6949" y2="93.6949"/><text fill="#000000" font-family="sans-serif" font-size="14" font-weight="bold" lengthAdjust="spacingAndGlyphs" textLength="48" x="20" y="86.3931">Model</text><!--MD5=[13c2e79780f8da90230e97aa9da6cb13]
class Disc--><rect codeLine="3" fill="#FEFECE" filter="url(#f1ibq5qwm4abx9)" height="48" id="Disc" style="stroke: #A80036; stroke-width: 1.5;" width="58" x="32" y="106.398"/><ellipse cx="47" cy="122.398" fill="#ADD1B2" rx="11" ry="11" style="stroke: #A80036; stroke-width: 1.0;"/><path d="M49.3438,118.0699 C48.4063,117.6324 47.8125,117.4918 46.9375,117.4918 C44.3125,117.4918 42.3125,119.5699 42.3125,122.2886 L42.3125,123.4136 C42.3125,125.9918 44.4219,127.8824 47.3125,127.8824 C48.5313,127.8824 49.6875,127.5855 50.4375,127.0386 C51.0156,126.6324 51.3438,126.1793 51.3438,125.7886 C51.3438,125.3355 50.9531,124.9449 50.4844,124.9449 C50.2656,124.9449 50.0625,125.023 49.875,125.2105 C49.4219,125.6949 49.4219,125.6949 49.2344,125.7886 C48.8125,126.0543 48.125,126.1793 47.3594,126.1793 C45.3125,126.1793 44.0156,125.0855 44.0156,123.3824 L44.0156,122.2886 C44.0156,120.5074 45.2656,119.1949 47,119.1949 C47.5781,119.1949 48.1875,119.3511 48.6563,119.6011 C49.1406,119.8824 49.3125,120.1011 49.4063,120.5074 C49.4688,120.9136 49.5,121.0386 49.6406,121.1636 C49.7813,121.3043 50.0156,121.4136 50.2344,121.4136 C50.5,121.4136 50.7656,121.273 50.9375,121.0543 C51.0469,120.898 51.0781,120.7105 51.0781,120.2886 L51.0781,118.8668 C51.0781,118.4293 51.0625,118.3043 50.9688,118.148 C50.8125,117.8824 50.5313,117.7418 50.2344,117.7418 C49.9375,117.7418 49.7344,117.8355 49.5156,118.148 L49.3438,118.0699 Z "/><text fill="#000000" font-family="sans-serif" font-size="12" lengthAdjust="spacingAndGlyphs" textLength="26" x="61" y="126.5523">Disc</text><line style="stroke: #A80036; stroke-width: 1.5;" x1="33" x2="89" y1="138.398" y2="138.398"/><line style="stroke: #A80036; stroke-width: 1.5;" x1="33" x2="89" y1="146.398" y2="146.398"/><!--MD5=[a77781830b4eef1927aef37ad01ad2c2]
class Catalogue--><rect codeLine="4" fill="#FEFECE" filter="url(#f1ibq5qwm4abx9)" height="48" id="Catalogue" style="stroke: #A80036; stroke-width: 1.5;" width="92" x="422" y="106.398"/><ellipse cx="437" cy="122.398" fill="#ADD1B2" rx="11" ry="11" style="stroke: #A80036; stroke-width: 1.0;"/><path d="M439.3438,118.0699 C438.4063,117.6324 437.8125,117.4918 436.9375,117.4918 C434.3125,117.4918 432.3125,119.5699 432.3125,122.2886 L432.3125,123.4136 C432.3125,125.9918 434.4219,127.8824 437.3125,127.8824 C438.5313,127.8824 439.6875,127.5855 440.4375,127.0386 C441.0156,126.6324 441.3438,126.1793 441.3438,125.7886 C441.3438,125.3355 440.9531,124.9449 440.4844,124.9449 C440.2656,124.9449 440.0625,125.023 439.875,125.2105 C439.4219,125.6949 439.4219,125.6949 439.2344,125.7886 C438.8125,126.0543 438.125,126.1793 437.3594,126.1793 C435.3125,126.1793 434.0156,125.0855 434.0156,123.3824 L434.0156,122.2886 C434.0156,120.5074 435.2656,119.1949 437,119.1949 C437.5781,119.1949 438.1875,119.3511 438.6563,119.6011 C439.1406,119.8824 439.3125,120.1011 439.4063,120.5074 C439.4688,120.9136 439.5,121.0386 439.6406,121.1636 C439.7813,121.3043 440.0156,121.4136 440.2344,121.4136 C440.5,121.4136 440.7656,121.273 440.9375,121.0543 C441.0469,120.898 441.0781,120.7105 441.0781,120.2886 L441.0781,118.8668 C441.0781,118.4293 441.0625,118.3043 440.9688,118.148 C440.8125,117.8824 440.5313,117.7418 440.2344,117.7418 C439.9375,117.7418 439.7344,117.8355 439.5156,118.148 L439.3438,118.0699 Z "/><text fill="#000000" font-family="sans-serif" font-size="12" lengthAdjust="spacingAndGlyphs" textLength="60" x="451" y="126.5523">Catalogue</text><line style="stroke: #A80036; stroke-width: 1.5;" x1="423" x2="513" y1="138.398" y2="138.398"/><line style="stroke: #A80036; stroke-width: 1.5;" x1="423" x2="513" y1="146.398" y2="146.398"/><!--MD5=[8ae2c2db09eb731972ab511bcae12bf3]
class Artist--><rect codeLine="5" fill="#FEFECE" filter="url(#f1ibq5qwm4abx9)" height="48" id="Artist" style="stroke: #A80036; stroke-width: 1.5;" width="63" x="323.5" y="106.398"/><ellipse cx="338.5" cy="122.398" fill="#ADD1B2" rx="11" ry="11" style="stroke: #A80036; stroke-width: 1.0;"/><path d="M340.8438,118.0699 C339.9063,117.6324 339.3125,117.4918 338.4375,117.4918 C335.8125,117.4918 333.8125,119.5699 333.8125,122.2886 L333.8125,123.4136 C333.8125,125.9918 335.9219,127.8824 338.8125,127.8824 C340.0313,127.8824 341.1875,127.5855 341.9375,127.0386 C342.5156,126.6324 342.8438,126.1793 342.8438,125.7886 C342.8438,125.3355 342.4531,124.9449 341.9844,124.9449 C341.7656,124.9449 341.5625,125.023 341.375,125.2105 C340.9219,125.6949 340.9219,125.6949 340.7344,125.7886 C340.3125,126.0543 339.625,126.1793 338.8594,126.1793 C336.8125,126.1793 335.5156,125.0855 335.5156,123.3824 L335.5156,122.2886 C335.5156,120.5074 336.7656,119.1949 338.5,119.1949 C339.0781,119.1949 339.6875,119.3511 340.1563,119.6011 C340.6406,119.8824 340.8125,120.1011 340.9063,120.5074 C340.9688,120.9136 341,121.0386 341.1406,121.1636 C341.2813,121.3043 341.5156,121.4136 341.7344,121.4136 C342,121.4136 342.2656,121.273 342.4375,121.0543 C342.5469,120.898 342.5781,120.7105 342.5781,120.2886 L342.5781,118.8668 C342.5781,118.4293 342.5625,118.3043 342.4688,118.148 C342.3125,117.8824 342.0313,117.7418 341.7344,117.7418 C341.4375,117.7418 341.2344,117.8355 341.0156,118.148 L340.8438,118.0699 Z "/><text fill="#000000" font-family="sans-serif" font-size="12" lengthAdjust="spacingAndGlyphs" textLength="31" x="352.5" y="126.5523">Artist</text><line style="stroke: #A80036; stroke-width: 1.5;" x1="324.5" x2="385.5" y1="138.398" y2="138.398"/><line style="stroke: #A80036; stroke-width: 1.5;" x1="324.5" x2="385.5" y1="146.398" y2="146.398"/><!--MD5=[f6c305f71c244bbdf88d363aa1ca9723]
class Band--><rect codeLine="6" fill="#FEFECE" filter="url(#f1ibq5qwm4abx9)" height="48" id="Band" style="stroke: #A80036; stroke-width: 1.5;" width="62" x="226" y="106.398"/><ellipse cx="241" cy="122.398" fill="#ADD1B2" rx="11" ry="11" style="stroke: #A80036; stroke-width: 1.0;"/><path d="M243.3438,118.0699 C242.4063,117.6324 241.8125,117.4918 240.9375,117.4918 C238.3125,117.4918 236.3125,119.5699 236.3125,122.2886 L236.3125,123.4136 C236.3125,125.9918 238.4219,127.8824 241.3125,127.8824 C242.5313,127.8824 243.6875,127.5855 244.4375,127.0386 C245.0156,126.6324 245.3438,126.1793 245.3438,125.7886 C245.3438,125.3355 244.9531,124.9449 244.4844,124.9449 C244.2656,124.9449 244.0625,125.023 243.875,125.2105 C243.4219,125.6949 243.4219,125.6949 243.2344,125.7886 C242.8125,126.0543 242.125,126.1793 241.3594,126.1793 C239.3125,126.1793 238.0156,125.0855 238.0156,123.3824 L238.0156,122.2886 C238.0156,120.5074 239.2656,119.1949 241,119.1949 C241.5781,119.1949 242.1875,119.3511 242.6563,119.6011 C243.1406,119.8824 243.3125,120.1011 243.4063,120.5074 C243.4688,120.9136 243.5,121.0386 243.6406,121.1636 C243.7813,121.3043 244.0156,121.4136 244.2344,121.4136 C244.5,121.4136 244.7656,121.273 244.9375,121.0543 C245.0469,120.898 245.0781,120.7105 245.0781,120.2886 L245.0781,118.8668 C245.0781,118.4293 245.0625,118.3043 244.9688,118.148 C244.8125,117.8824 244.5313,117.7418 244.2344,117.7418 C243.9375,117.7418 243.7344,117.8355 243.5156,118.148 L243.3438,118.0699 Z "/><text fill="#000000" font-family="sans-serif" font-size="12" lengthAdjust="spacingAndGlyphs" textLength="30" x="255" y="126.5523">Band</text><line style="stroke: #A80036; stroke-width: 1.5;" x1="227" x2="287" y1="138.398" y2="138.398"/><line style="stroke: #A80036; stroke-width: 1.5;" x1="227" x2="287" y1="146.398" y2="146.398"/><!--MD5=[3b034ebaa87c9ec5e8fb5410143f628f]
class Track--><rect codeLine="7" fill="#FEFECE" filter="url(#f1ibq5qwm4abx9)" height="48" id="Track" style="stroke: #A80036; stroke-width: 1.5;" width="65" x="125.5" y="106.398"/><ellipse cx="140.5" cy="122.398" fill="#ADD1B2" rx="11" ry="11" style="stroke: #A80036; stroke-width: 1.0;"/><path d="M142.8438,118.0699 C141.9063,117.6324 141.3125,117.4918 140.4375,117.4918 C137.8125,117.4918 135.8125,119.5699 135.8125,122.2886 L135.8125,123.4136 C135.8125,125.9918 137.9219,127.8824 140.8125,127.8824 C142.0313,127.8824 143.1875,127.5855 143.9375,127.0386 C144.5156,126.6324 144.8438,126.1793 144.8438,125.7886 C144.8438,125.3355 144.4531,124.9449 143.9844,124.9449 C143.7656,124.9449 143.5625,125.023 143.375,125.2105 C142.9219,125.6949 142.9219,125.6949 142.7344,125.7886 C142.3125,126.0543 141.625,126.1793 140.8594,126.1793 C138.8125,126.1793 137.5156,125.0855 137.5156,123.3824 L137.5156,122.2886 C137.5156,120.5074 138.7656,119.1949 140.5,119.1949 C141.0781,119.1949 141.6875,119.3511 142.1563,119.6011 C142.6406,119.8824 142.8125,120.1011 142.9063,120.5074 C142.9688,120.9136 143,121.0386 143.1406,121.1636 C143.2813,121.3043 143.5156,121.4136 143.7344,121.4136 C144,121.4136 144.2656,121.273 144.4375,121.0543 C144.5469,120.898 144.5781,120.7105 144.5781,120.2886 L144.5781,118.8668 C144.5781,118.4293 144.5625,118.3043 144.4688,118.148 C144.3125,117.8824 144.0313,117.7418 143.7344,117.7418 C143.4375,117.7418 143.2344,117.8355 143.0156,118.148 L142.8438,118.0699 Z "/><text fill="#000000" font-family="sans-serif" font-size="12" lengthAdjust="spacingAndGlyphs" textLength="33" x="154.5" y="126.5523">Track</text><line style="stroke: #A80036; stroke-width: 1.5;" x1="126.5" x2="189.5" y1="138.398" y2="138.398"/><line style="stroke: #A80036; stroke-width: 1.5;" x1="126.5" x2="189.5" y1="146.398" y2="146.398"/><!--MD5=[26b8e71903ffb6b52e42419c9be2595c]
reverse link Disc to Catalogue--><path codeLine="10" d="M72.5486,98.7253 C82.6923,76.026 99.8768,47.131 125.5,33.398 C176.621,6 333.926,8.903 386.5,33.398 C418.4,48.261 442.261,82.436 455.671,105.9768 " fill="none" id="Disc-backto-Catalogue" style="stroke: #A80036; stroke-width: 1.0;"/><line style="stroke: #A80036; stroke-width: 1.0;" x1="72.5177" x2="74.8945" y1="98.7975" y2="108.511"/><line style="stroke: #A80036; stroke-width: 1.0;" x1="72.5177" x2="63.8583" y1="98.7975" y2="103.799"/><line style="stroke: #A80036; stroke-width: 1.0;" x1="72.5177" x2="69.3764" y1="98.7975" y2="106.155"/><ellipse cx="74.8737" cy="93.2794" fill="none" rx="4" ry="4" style="stroke: #A80036; stroke-width: 1.0;"/><!--MD5=[ef9d80dd21624526eb3c0002e8578579]
reverse link Disc to Band--><path codeLine="11" d="M72.5486,98.7253 C82.6923,76.026 99.8768,47.131 125.5,33.398 C150.962,19.751 164.942,19.932 190.5,33.398 C219.402,48.626 238.153,82.709 248.152,106.1308 " fill="none" id="Disc-backto-Band" style="stroke: #A80036; stroke-width: 1.0;"/><line style="stroke: #A80036; stroke-width: 1.0;" x1="72.5177" x2="74.8945" y1="98.7975" y2="108.511"/><line style="stroke: #A80036; stroke-width: 1.0;" x1="72.5177" x2="63.8583" y1="98.7975" y2="103.799"/><line style="stroke: #A80036; stroke-width: 1.0;" x1="72.5177" x2="69.3764" y1="98.7975" y2="106.155"/><ellipse cx="74.8737" cy="93.2794" fill="none" rx="4" ry="4" style="stroke: #A80036; stroke-width: 1.0;"/><!--MD5=[c6bdb9c7c55e24f25d1e143e82c3547c]
link Band to Artist--><path codeLine="12" d="M288.008,130.398 C297.116,130.398 306.224,130.398 315.332,130.398 " fill="none" id="Band-to-Artist" style="stroke: #A80036; stroke-width: 1.0;"/><line style="stroke: #A80036; stroke-width: 1.0;" x1="315.336" x2="323.336" y1="130.398" y2="124.398"/><line style="stroke: #A80036; stroke-width: 1.0;" x1="315.336" x2="323.336" y1="130.398" y2="136.398"/><line style="stroke: #A80036; stroke-width: 1.0;" x1="315.336" x2="323.336" y1="130.398" y2="130.398"/><ellipse cx="309.336" cy="130.398" fill="none" rx="4" ry="4" style="stroke: #A80036; stroke-width: 1.0;"/><!--MD5=[2a78be52f5059352e0709b4500888082]
link Disc to Track--><path codeLine="13" d="M90.1758,130.398 C99.1685,130.398 108.161,130.398 117.154,130.398 " fill="none" id="Disc-to-Track" style="stroke: #A80036; stroke-width: 1.0;"/><line style="stroke: #A80036; stroke-width: 1.0;" x1="117.413" x2="125.413" y1="130.398" y2="124.398"/><line style="stroke: #A80036; stroke-width: 1.0;" x1="117.413" x2="125.413" y1="130.398" y2="136.398"/><line style="stroke: #A80036; stroke-width: 1.0;" x1="117.413" x2="125.413" y1="130.398" y2="130.398"/><line style="stroke: #A80036; stroke-width: 1.0;" x1="115.413" x2="115.413" y1="126.398" y2="134.398"/><!--MD5=[7c44bc09fc8eee4eae53cbd38c483999]
@startuml
package "Model" {
'Entities definition
 class Disc
 class Catalogue
 class Artist
 class Band
 class Track

'Relationships
  Disc }o- Catalogue
  Disc }o- Band
  Band -o{ Artist
  Disc -|{ Track
}
@enduml

@startuml
package "Model" {
 class Disc
 class Catalogue
 class Artist
 class Band
 class Track

  Disc }o- Catalogue
  Disc }o- Band
  Band -o{ Artist
  Disc -|{ Track
}
@enduml

PlantUML version 1.2020.16(Sun Aug 23 20:20:43 UTC 2020)
(GPL source distribution)
Java Runtime: Java(TM) SE Runtime Environment
JVM: Java HotSpot(TM) 64-Bit Server VM
Default Encoding: UTF-8
Language: en
Country: US
--></g></svg>