<?xml version="1.0" encoding="UTF-8" standalone="no"?><svg xmlns="http://www.w3.org/2000/svg" xmlns:xlink="http://www.w3.org/1999/xlink" contentScriptType="application/ecmascript" contentStyleType="text/css" height="558px" preserveAspectRatio="none" style="width:1382px;height:558px;" version="1.1" viewBox="0 0 1382 558" width="1382px" zoomAndPan="magnify"><defs><filter height="300%" id="fewh9t0eks3y9" width="300%" x="-1" y="-1"><feGaussianBlur result="blurOut" stdDeviation="2.0"/><feColorMatrix in="blurOut" result="blurOut2" type="matrix" values="0 0 0 0 0 0 0 0 0 0 0 0 0 0 0 0 0 0 .4 0"/><feOffset dx="4.0" dy="4.0" in="blurOut2" result="blurOut3"/><feBlend in="SourceGraphic" in2="blurOut3" mode="normal"/></filter></defs><g><!--MD5=[15636c1ca4a123c16a2a1a8e90aca7a9]
cluster Model--><polygon fill="#FFFFFF" filter="url(#fewh9t0eks3y9)" points="21.5148,300.5,75.5148,300.5,82.5148,322.7969,490.5148,322.7969,490.5148,415.5,21.5148,415.5,21.5148,300.5" style="stroke:#000000;stroke-width:1.5;"/><line style="stroke:#000000;stroke-width:1.5;" x1="21.5148" x2="82.5148" y1="322.7969" y2="322.7969"/><text fill="#000000" font-family="sans-serif" font-size="14" font-weight="bold" lengthAdjust="spacing" textLength="48" x="25.5148" y="315.4951">Model</text><!--MD5=[cdfd548b3455e70392372b1f27091970]
cluster Services--><polygon fill="#FFFFFF" filter="url(#fewh9t0eks3y9)" points="530.5148,196,603.5148,196,610.5148,218.2969,1365.5148,218.2969,1365.5148,482,530.5148,482,530.5148,196" style="stroke:#000000;stroke-width:1.5;"/><line style="stroke:#000000;stroke-width:1.5;" x1="530.5148" x2="610.5148" y1="218.2969" y2="218.2969"/><text fill="#000000" font-family="sans-serif" font-size="14" font-weight="bold" lengthAdjust="spacing" textLength="67" x="534.5148" y="210.9951">Services</text><!--MD5=[161c5b69b7dea0bad5b1dc2ba223b4a1]
cluster MetaS--><polygon fill="#FFFFFF" filter="url(#fewh9t0eks3y9)" points="752.5148,247,977.5148,247,984.5148,269.2969,1333.5148,269.2969,1333.5148,450,752.5148,450,752.5148,247" style="stroke:#000000;stroke-width:1.5;"/><line style="stroke:#000000;stroke-width:1.5;" x1="752.5148" x2="984.5148" y1="269.2969" y2="269.2969"/><text fill="#000000" font-family="sans-serif" font-size="14" font-weight="bold" lengthAdjust="spacing" textLength="219" x="756.5148" y="261.9951">MetadataRetrievalServices</text><!--MD5=[b81e17c04be48c83648ee1bb5f0ecae2]
cluster ApiS--><polygon fill="#FFFFFF" filter="url(#fewh9t0eks3y9)" points="915.5148,298,1005.5148,298,1012.5148,320.2969,1301.5148,320.2969,1301.5148,418,915.5148,418,915.5148,298" style="stroke:#000000;stroke-width:1.5;"/><line style="stroke:#000000;stroke-width:1.5;" x1="915.5148" x2="1012.5148" y1="320.2969" y2="320.2969"/><text fill="#000000" font-family="sans-serif" font-size="14" font-weight="bold" lengthAdjust="spacing" textLength="84" x="919.5148" y="312.9951">ApiService</text><polygon fill="#FFFFFF" filter="url(#fewh9t0eks3y9)" points="225.0148,6,328.0148,6,335.0148,28.2969,342.0148,28.2969,342.0148,58.5938,225.0148,58.5938,225.0148,6" style="stroke:#000000;stroke-width:1.5;"/><line style="stroke:#000000;stroke-width:1.5;" x1="225.0148" x2="335.0148" y1="28.2969" y2="28.2969"/><text fill="#000000" font-family="sans-serif" font-size="14" font-weight="bold" lengthAdjust="spacing" textLength="97" x="229.0148" y="20.9951">View JavaFX</text><!--MD5=[13c2e79780f8da90230e97aa9da6cb13]
class Disc--><rect codeLine="9" fill="#FEFECE" filter="url(#fewh9t0eks3y9)" height="48" id="Disc" style="stroke:#A80036;stroke-width:1.5;" width="58" x="64.5148" y="343.5"/><ellipse cx="79.5148" cy="359.5" fill="#ADD1B2" rx="11" ry="11" style="stroke:#A80036;stroke-width:1.0;"/><path d="M81.8586,355.1719 C80.9211,354.7344 80.3273,354.5938 79.4523,354.5938 C76.8273,354.5938 74.8273,356.6719 74.8273,359.3906 L74.8273,360.5156 C74.8273,363.0938 76.9367,364.9844 79.8273,364.9844 C81.0461,364.9844 82.2023,364.6875 82.9523,364.1406 C83.5304,363.7344 83.8586,363.2813 83.8586,362.8906 C83.8586,362.4375 83.4679,362.0469 82.9992,362.0469 C82.7804,362.0469 82.5773,362.125 82.3898,362.3125 C81.9367,362.7969 81.9367,362.7969 81.7492,362.8906 C81.3273,363.1563 80.6398,363.2813 79.8742,363.2813 C77.8273,363.2813 76.5304,362.1875 76.5304,360.4844 L76.5304,359.3906 C76.5304,357.6094 77.7804,356.2969 79.5148,356.2969 C80.0929,356.2969 80.7023,356.4531 81.1711,356.7031 C81.6554,356.9844 81.8273,357.2031 81.9211,357.6094 C81.9836,358.0156 82.0148,358.1406 82.1554,358.2656 C82.2961,358.4063 82.5304,358.5156 82.7492,358.5156 C83.0148,358.5156 83.2804,358.375 83.4523,358.1563 C83.5617,358 83.5929,357.8125 83.5929,357.3906 L83.5929,355.9688 C83.5929,355.5313 83.5773,355.4063 83.4836,355.25 C83.3273,354.9844 83.0461,354.8438 82.7492,354.8438 C82.4523,354.8438 82.2492,354.9375 82.0304,355.25 L81.8586,355.1719 Z " fill="#000000"/><text fill="#000000" font-family="sans-serif" font-size="12" lengthAdjust="spacing" textLength="26" x="93.5148" y="363.6543">Disc</text><line style="stroke:#A80036;stroke-width:1.5;" x1="65.5148" x2="121.5148" y1="375.5" y2="375.5"/><line style="stroke:#A80036;stroke-width:1.5;" x1="65.5148" x2="121.5148" y1="383.5" y2="383.5"/><!--MD5=[a77781830b4eef1927aef37ad01ad2c2]
class Catalogue--><rect codeLine="10" fill="#FEFECE" filter="url(#fewh9t0eks3y9)" height="48" id="Catalogue" style="stroke:#A80036;stroke-width:1.5;" width="92" x="374.5148" y="343.5"/><ellipse cx="389.5148" cy="359.5" fill="#ADD1B2" rx="11" ry="11" style="stroke:#A80036;stroke-width:1.0;"/><path d="M391.8586,355.1719 C390.9211,354.7344 390.3273,354.5938 389.4523,354.5938 C386.8273,354.5938 384.8273,356.6719 384.8273,359.3906 L384.8273,360.5156 C384.8273,363.0938 386.9367,364.9844 389.8273,364.9844 C391.0461,364.9844 392.2023,364.6875 392.9523,364.1406 C393.5304,363.7344 393.8586,363.2813 393.8586,362.8906 C393.8586,362.4375 393.4679,362.0469 392.9992,362.0469 C392.7804,362.0469 392.5773,362.125 392.3898,362.3125 C391.9367,362.7969 391.9367,362.7969 391.7492,362.8906 C391.3273,363.1563 390.6398,363.2813 389.8742,363.2813 C387.8273,363.2813 386.5304,362.1875 386.5304,360.4844 L386.5304,359.3906 C386.5304,357.6094 387.7804,356.2969 389.5148,356.2969 C390.0929,356.2969 390.7023,356.4531 391.1711,356.7031 C391.6554,356.9844 391.8273,357.2031 391.9211,357.6094 C391.9836,358.0156 392.0148,358.1406 392.1554,358.2656 C392.2961,358.4063 392.5304,358.5156 392.7492,358.5156 C393.0148,358.5156 393.2804,358.375 393.4523,358.1563 C393.5617,358 393.5929,357.8125 393.5929,357.3906 L393.5929,355.9688 C393.5929,355.5313 393.5773,355.4063 393.4836,355.25 C393.3273,354.9844 393.0461,354.8438 392.7492,354.8438 C392.4523,354.8438 392.2492,354.9375 392.0304,355.25 L391.8586,355.1719 Z " fill="#000000"/><text fill="#000000" font-family="sans-serif" font-size="12" lengthAdjust="spacing" textLength="60" x="403.5148" y="363.6543">Catalogue</text><line style="stroke:#A80036;stroke-width:1.5;" x1="375.5148" x2="465.5148" y1="375.5" y2="375.5"/><line style="stroke:#A80036;stroke-width:1.5;" x1="375.5148" x2="465.5148" y1="383.5" y2="383.5"/><!--MD5=[8ae2c2db09eb731972ab511bcae12bf3]
class Artist--><rect codeLine="11" fill="#FEFECE" filter="url(#fewh9t0eks3y9)" height="48" id="Artist" style="stroke:#A80036;stroke-width:1.5;" width="63" x="258.0148" y="343.5"/><ellipse cx="273.0148" cy="359.5" fill="#ADD1B2" rx="11" ry="11" style="stroke:#A80036;stroke-width:1.0;"/><path d="M275.3586,355.1719 C274.4211,354.7344 273.8273,354.5938 272.9523,354.5938 C270.3273,354.5938 268.3273,356.6719 268.3273,359.3906 L268.3273,360.5156 C268.3273,363.0938 270.4367,364.9844 273.3273,364.9844 C274.5461,364.9844 275.7023,364.6875 276.4523,364.1406 C277.0304,363.7344 277.3586,363.2813 277.3586,362.8906 C277.3586,362.4375 276.9679,362.0469 276.4992,362.0469 C276.2804,362.0469 276.0773,362.125 275.8898,362.3125 C275.4367,362.7969 275.4367,362.7969 275.2492,362.8906 C274.8273,363.1563 274.1398,363.2813 273.3742,363.2813 C271.3273,363.2813 270.0304,362.1875 270.0304,360.4844 L270.0304,359.3906 C270.0304,357.6094 271.2804,356.2969 273.0148,356.2969 C273.5929,356.2969 274.2023,356.4531 274.6711,356.7031 C275.1554,356.9844 275.3273,357.2031 275.4211,357.6094 C275.4836,358.0156 275.5148,358.1406 275.6554,358.2656 C275.7961,358.4063 276.0304,358.5156 276.2492,358.5156 C276.5148,358.5156 276.7804,358.375 276.9523,358.1563 C277.0617,358 277.0929,357.8125 277.0929,357.3906 L277.0929,355.9688 C277.0929,355.5313 277.0773,355.4063 276.9836,355.25 C276.8273,354.9844 276.5461,354.8438 276.2492,354.8438 C275.9523,354.8438 275.7492,354.9375 275.5304,355.25 L275.3586,355.1719 Z " fill="#000000"/><text fill="#000000" font-family="sans-serif" font-size="12" lengthAdjust="spacing" textLength="31" x="287.0148" y="363.6543">Artist</text><line style="stroke:#A80036;stroke-width:1.5;" x1="259.0148" x2="320.0148" y1="375.5" y2="375.5"/><line style="stroke:#A80036;stroke-width:1.5;" x1="259.0148" x2="320.0148" y1="383.5" y2="383.5"/><!--MD5=[3b034ebaa87c9ec5e8fb5410143f628f]
class Track--><rect codeLine="12" fill="#FEFECE" filter="url(#fewh9t0eks3y9)" height="48" id="Track" style="stroke:#A80036;stroke-width:1.5;" width="65" x="158.0148" y="343.5"/><ellipse cx="173.0148" cy="359.5" fill="#ADD1B2" rx="11" ry="11" style="stroke:#A80036;stroke-width:1.0;"/><path d="M175.3586,355.1719 C174.4211,354.7344 173.8273,354.5938 172.9523,354.5938 C170.3273,354.5938 168.3273,356.6719 168.3273,359.3906 L168.3273,360.5156 C168.3273,363.0938 170.4367,364.9844 173.3273,364.9844 C174.5461,364.9844 175.7023,364.6875 176.4523,364.1406 C177.0304,363.7344 177.3586,363.2813 177.3586,362.8906 C177.3586,362.4375 176.9679,362.0469 176.4992,362.0469 C176.2804,362.0469 176.0773,362.125 175.8898,362.3125 C175.4367,362.7969 175.4367,362.7969 175.2492,362.8906 C174.8273,363.1563 174.1398,363.2813 173.3742,363.2813 C171.3273,363.2813 170.0304,362.1875 170.0304,360.4844 L170.0304,359.3906 C170.0304,357.6094 171.2804,356.2969 173.0148,356.2969 C173.5929,356.2969 174.2023,356.4531 174.6711,356.7031 C175.1554,356.9844 175.3273,357.2031 175.4211,357.6094 C175.4836,358.0156 175.5148,358.1406 175.6554,358.2656 C175.7961,358.4063 176.0304,358.5156 176.2492,358.5156 C176.5148,358.5156 176.7804,358.375 176.9523,358.1563 C177.0617,358 177.0929,357.8125 177.0929,357.3906 L177.0929,355.9688 C177.0929,355.5313 177.0773,355.4063 176.9836,355.25 C176.8273,354.9844 176.5461,354.8438 176.2492,354.8438 C175.9523,354.8438 175.7492,354.9375 175.5304,355.25 L175.3586,355.1719 Z " fill="#000000"/><text fill="#000000" font-family="sans-serif" font-size="12" lengthAdjust="spacing" textLength="33" x="187.0148" y="363.6543">Track</text><line style="stroke:#A80036;stroke-width:1.5;" x1="159.0148" x2="222.0148" y1="375.5" y2="375.5"/><line style="stroke:#A80036;stroke-width:1.5;" x1="159.0148" x2="222.0148" y1="383.5" y2="383.5"/><polygon fill="#FFFFFF" filter="url(#fewh9t0eks3y9)" points="233.0148,119,320.0148,119,327.0148,141.2969,334.0148,141.2969,334.0148,171.5938,233.0148,171.5938,233.0148,119" style="stroke:#000000;stroke-width:1.5;"/><line style="stroke:#000000;stroke-width:1.5;" x1="233.0148" x2="327.0148" y1="141.2969" y2="141.2969"/><text fill="#000000" font-family="sans-serif" font-size="14" font-weight="bold" lengthAdjust="spacing" textLength="81" x="237.0148" y="133.9951">Controller</text><polygon fill="#FFFFFF" filter="url(#fewh9t0eks3y9)" points="573.5148,341,719.5148,341,726.5148,363.2969,733.5148,363.2969,733.5148,393.5938,573.5148,393.5938,573.5148,341" style="stroke:#000000;stroke-width:1.5;"/><line style="stroke:#000000;stroke-width:1.5;" x1="573.5148" x2="726.5148" y1="363.2969" y2="363.2969"/><text fill="#000000" font-family="sans-serif" font-size="14" font-weight="bold" lengthAdjust="spacing" textLength="140" x="577.5148" y="355.9951">CatalogueService</text><polygon fill="#FFFFFF" filter="url(#fewh9t0eks3y9)" points="1135.5148,341,1263.5148,341,1270.5148,363.2969,1277.5148,363.2969,1277.5148,393.5938,1135.5148,393.5938,1135.5148,341" style="stroke:#000000;stroke-width:1.5;"/><line style="stroke:#000000;stroke-width:1.5;" x1="1135.5148" x2="1270.5148" y1="363.2969" y2="363.2969"/><text fill="#000000" font-family="sans-serif" font-size="14" font-weight="bold" lengthAdjust="spacing" textLength="122" x="1139.5148" y="355.9951">APItoProviderA</text><polygon fill="#FFFFFF" filter="url(#fewh9t0eks3y9)" points="958.5148,341,1086.5148,341,1093.5148,363.2969,1100.5148,363.2969,1100.5148,393.5938,958.5148,393.5938,958.5148,341" style="stroke:#000000;stroke-width:1.5;"/><line style="stroke:#000000;stroke-width:1.5;" x1="958.5148" x2="1093.5148" y1="363.2969" y2="363.2969"/><text fill="#000000" font-family="sans-serif" font-size="14" font-weight="bold" lengthAdjust="spacing" textLength="122" x="962.5148" y="355.9951">APItoProviderB</text><polygon fill="#FFFFFF" filter="url(#fewh9t0eks3y9)" points="769.0148,341,874.0148,341,881.0148,363.2969,888.0148,363.2969,888.0148,393.5938,769.0148,393.5938,769.0148,341" style="stroke:#000000;stroke-width:1.5;"/><line style="stroke:#000000;stroke-width:1.5;" x1="769.0148" x2="881.0148" y1="363.2969" y2="363.2969"/><text fill="#000000" font-family="sans-serif" font-size="14" font-weight="bold" lengthAdjust="spacing" textLength="99" x="773.0148" y="355.9951">CdMetadata</text><!--MD5=[f9ba5bf973e7832d2ce5ed59077b93f7]
entity DB--><path d="M9.0148,516 C9.0148,506 29.5148,506 29.5148,506 C29.5148,506 50.0148,506 50.0148,516 L50.0148,541.2969 C50.0148,551.2969 29.5148,551.2969 29.5148,551.2969 C29.5148,551.2969 9.0148,551.2969 9.0148,541.2969 L9.0148,516 " fill="#FEFECE" filter="url(#fewh9t0eks3y9)" style="stroke:#000000;stroke-width:1.5;"/><path d="M9.0148,516 C9.0148,526 29.5148,526 29.5148,526 C29.5148,526 50.0148,526 50.0148,516 " fill="none" style="stroke:#000000;stroke-width:1.5;"/><text fill="#000000" font-family="sans-serif" font-size="14" lengthAdjust="spacing" textLength="21" x="19.0148" y="542.9951">DB</text><!--MD5=[02eb872209c6a280438c9c363ca0b0a9]
entity apiProvider--><rect fill="#FEFECE" filter="url(#fewh9t0eks3y9)" height="36.2969" rx="35" ry="35" style="stroke:#000000;stroke-width:1.5;" width="123.3333" x="862.0148" y="510.5"/><text fill="#000000" font-family="sans-serif" font-size="14" lengthAdjust="spacing" textLength="88" x="872.0148" y="533.4951">Api Provider</text><path d="M970.2648,523.9635 C968.8532,523.9635 967.6165,524.9669 967.3482,526.2969 C966.0648,526.2969 965.0148,527.3469 965.0148,528.6302 C965.0148,529.9135 966.0648,530.9635 967.3482,530.9635 L972.5982,530.9635 C973.5665,530.9635 974.3482,530.1819 974.3482,529.2135 C974.3482,528.4552 973.8582,527.7085 973.1815,527.4635 L973.1815,526.8802 C973.1815,525.2702 971.8748,523.9635 970.2648,523.9635 " fill="#000000" style="stroke:;stroke-width:0.0;stroke-dasharray:;"/><!--MD5=[26b8e71903ffb6b52e42419c9be2595c]
reverse link Disc to Catalogue--><path codeLine="15" d="M92.051,335.033 C92.0388,293.191 98.6808,220.969 140.5148,180 C146.2148,174.418 150.0868,176.895 158.0148,176 C197.9838,171.49 299.0458,171.49 339.0148,176 C346.9428,176.895 350.5868,174.66 356.5148,180 C404.3038,223.051 416.4258,303.254 419.4878,343.361 " fill="none" id="Disc-backto-Catalogue" style="stroke:#A80036;stroke-width:1.0;"/><line style="stroke:#A80036;stroke-width:1.0;" x1="92.0518" x2="98.1386" y1="335.2285" y2="343.1626"/><line style="stroke:#A80036;stroke-width:1.0;" x1="92.0518" x2="86.1393" y1="335.2285" y2="343.2934"/><line style="stroke:#A80036;stroke-width:1.0;" x1="92.0518" x2="92.1389" y1="335.2285" y2="343.228"/><ellipse cx="91.9864" cy="329.2288" rx="4" ry="4" style="stroke:#A80036;stroke-width:1.0;fill:none;"/><!--MD5=[52162c645afd4880f7e98016dd7b1da8]
reverse link Disc to Artist--><path codeLine="16" d="M92.051,335.033 C92.0388,293.191 98.6808,220.969 140.5148,180 C146.2148,174.418 150.0868,176.895 158.0148,176 C176.2538,173.942 227.3368,167.223 240.5148,180 C285.5648,223.679 290.9818,303.229 290.6028,343.203 " fill="none" id="Disc-backto-Artist" style="stroke:#A80036;stroke-width:1.0;"/><line style="stroke:#A80036;stroke-width:1.0;" x1="92.0518" x2="98.1386" y1="335.2285" y2="343.1626"/><line style="stroke:#A80036;stroke-width:1.0;" x1="92.0518" x2="86.1393" y1="335.2285" y2="343.2934"/><line style="stroke:#A80036;stroke-width:1.0;" x1="92.0518" x2="92.1389" y1="335.2285" y2="343.228"/><ellipse cx="91.9864" cy="329.2288" rx="4" ry="4" style="stroke:#A80036;stroke-width:1.0;fill:none;"/><!--MD5=[5584bfe021ad10b0b9353dc2bae0b333]
link Artist to Artist--><path codeLine="17" d="M311.6548,343.449 C332.8628,330.577 356.0148,338.594 356.0148,367.5 C356.0148,393.019 337.9708,402.257 319.1498,395.216 " fill="none" id="Artist-to-Artist" style="stroke:#A80036;stroke-width:1.0;"/><line style="stroke:#A80036;stroke-width:1.0;" x1="318.8417" x2="309.0192" y1="395.0651" y2="396.9411"/><line style="stroke:#A80036;stroke-width:1.0;" x1="318.8417" x2="314.2904" y1="395.0651" y2="386.1609"/><line style="stroke:#A80036;stroke-width:1.0;" x1="318.8417" x2="311.6548" y1="395.0651" y2="391.551"/><ellipse cx="324.2318" cy="397.7007" rx="4" ry="4" style="stroke:#A80036;stroke-width:1.0;fill:none;"/><!--MD5=[2a78be52f5059352e0709b4500888082]
link Disc to Track--><path codeLine="18" d="M122.6908,367.5 C131.6838,367.5 140.6758,367.5 149.6688,367.5 " fill="none" id="Disc-to-Track" style="stroke:#A80036;stroke-width:1.0;"/><line style="stroke:#A80036;stroke-width:1.0;" x1="149.9278" x2="157.9278" y1="367.5" y2="361.5"/><line style="stroke:#A80036;stroke-width:1.0;" x1="149.9278" x2="157.9278" y1="367.5" y2="373.5"/><line style="stroke:#A80036;stroke-width:1.0;" x1="149.9278" x2="157.9278" y1="367.5" y2="367.5"/><line style="stroke:#A80036;stroke-width:1.0;" x1="147.9278" x2="147.9278" y1="363.5" y2="371.5"/><!--MD5=[e181474707a2cbf31c95e0a2e4c024a1]
link Front to Controller--><path d="M283.5148,59.245 C283.5148,75.496 283.5148,96.579 283.5148,113.714 " fill="none" id="Front-to-Controller" style="stroke:#A80036;stroke-width:1.0;"/><polygon fill="#A80036" points="283.5148,118.895,287.5148,109.895,283.5148,113.895,279.5148,109.895,283.5148,118.895" style="stroke:#A80036;stroke-width:1.0;"/><!--MD5=[7a25e1c0cf9f57ccf31195bd84e79339]
link Controller to Model--><path d="M232.9468,146.68 C171.5638,148.05 73.1757,154.331 48.5148,180 C20.1045,209.572 15.0579,255.2135 17.2587,293.9423 C17.8089,303.6244 18.8121,312.8746 20.0164,321.3336 C20.3174,323.4483 20.6311,325.5136 20.9534,327.5239 C21.1145,328.529 21.2778,329.5204 21.4428,330.4972 " fill="none" id="Controller-to-Model" style="stroke:#A80036;stroke-width:1.0;"/><polygon fill="#A80036" points="21.4428,330.4972,23.8883,320.9568,20.6102,325.567,16,322.2889,21.4428,330.4972" style="stroke:#A80036;stroke-width:1.0;"/><!--MD5=[d35272574b800222654b7e833a13db19]
link Controller to Services--><path d="M334.2708,149.039 C385.8218,152.642 461.0378,161.052 482.5148,180 C498.4856,194.0908 509.9872,212.5411 518.2521,232.3518 C522.3846,242.2572 525.7079,252.5027 528.376,262.7135 C529.0431,265.2662 529.6692,267.8167 530.2567,270.3592 C530.3302,270.677 530.403,270.9947 530.4753,271.3122 " fill="none" id="Controller-to-Services" style="stroke:#A80036;stroke-width:1.0;"/><polygon fill="#A80036" points="530.4753,271.3122,532.379,261.6491,529.3661,266.4368,524.5784,263.4238,530.4753,271.3122" style="stroke:#A80036;stroke-width:1.0;"/><!--MD5=[d3cfa2792ecd7a7ce90ec423c2c8f02c]
link ApiS to apiProvider--><path codeLine="56" d="M923.5148,418.2197 C923.5148,418.6544 923.5148,419.0904 923.5148,419.5277 C923.5148,420.4024 923.5148,421.2824 923.5148,422.1672 C923.5148,450.4799 923.5148,483.697 923.5148,505.1452 " fill="none" id="ApiS-to-apiProvider" style="stroke:#A80036;stroke-width:1.0;"/><polygon fill="#A80036" points="923.5148,510.3804,927.5148,501.3804,923.5148,505.3804,919.5148,501.3804,923.5148,510.3804" style="stroke:#A80036;stroke-width:1.0;"/><!--MD5=[57a3dd954df3db68727a8ef99555961e]
link Model to DB--><path codeLine="57" d="M29.5148,416.0776 C29.5148,416.285 29.5148,416.4928 29.5148,416.7009 C29.5148,417.5333 29.5148,418.3712 29.5148,419.214 C29.5148,446.1855 29.5148,478.2675 29.5148,500.4759 " fill="none" id="Model-to-DB" style="stroke:#A80036;stroke-width:1.0;"/><polygon fill="#A80036" points="29.5148,505.6887,33.5148,496.6887,29.5148,500.6887,25.5148,496.6887,29.5148,505.6887" style="stroke:#A80036;stroke-width:1.0;"/><!--MD5=[bfd27b747761f200e5d603a6489063f0]
@startuml
allowmixing

package "View JavaFX" as Front {

}

package "Model" as Model{
'Entities definition
 class Disc
 class Catalogue
 class Artist
 class Track

'Relationships
  Disc }o- Catalogue
  Disc }o- Artist
  Artist -o{ Artist
  Disc -|{ Track
}

package Controller as Controller {

}

package "Services" as Services {

  package CatalogueService as CatalogueS{

  }

  package MetadataRetrievalServices as MetaS {

    package ApiService as ApiS{

      package APItoProviderA{
      }
      package APItoProviderB{
      }
    }
    package CdMetadata as CDMetaS{
    }
  }

}

database DB [
  DB
]

storage "Api Provider <&cloud>" as apiProvider

'Dependencies
Front - -> Controller
Controller - -> Model
Controller - -> Services
ApiS - -> apiProvider
Model - -> DB
@enduml

@startuml
allowmixing

package "View JavaFX" as Front {

}

package "Model" as Model{
 class Disc
 class Catalogue
 class Artist
 class Track

  Disc }o- Catalogue
  Disc }o- Artist
  Artist -o{ Artist
  Disc -|{ Track
}

package Controller as Controller {

}

package "Services" as Services {

  package CatalogueService as CatalogueS{

  }

  package MetadataRetrievalServices as MetaS {

    package ApiService as ApiS{

      package APItoProviderA{
      }
      package APItoProviderB{
      }
    }
    package CdMetadata as CDMetaS{
    }
  }

}

database DB [
  DB
]

storage "Api Provider <&cloud>" as apiProvider

Front - -> Controller
Controller - -> Model
Controller - -> Services
ApiS - -> apiProvider
Model - -> DB
@enduml

PlantUML version 1.2021.4(Sun Apr 04 08:49:39 UTC 2021)
(GPL source distribution)
Java Runtime: Java(TM) SE Runtime Environment
JVM: Java HotSpot(TM) 64-Bit Server VM
Default Encoding: UTF-8
Language: en
Country: US
--></g></svg>