<?xml version="1.0" encoding="UTF-8" standalone="no"?><svg xmlns="http://www.w3.org/2000/svg" xmlns:xlink="http://www.w3.org/1999/xlink" contentScriptType="application/ecmascript" contentStyleType="text/css" height="291px" preserveAspectRatio="none" style="width:637px;height:291px;" version="1.1" viewBox="0 0 637 291" width="637px" zoomAndPan="magnify"><defs><filter height="300%" id="f17itmtfdg0gio" width="300%" x="-1" y="-1"><feGaussianBlur result="blurOut" stdDeviation="2.0"/><feColorMatrix in="blurOut" result="blurOut2" type="matrix" values="0 0 0 0 0 0 0 0 0 0 0 0 0 0 0 0 0 0 .4 0"/><feOffset dx="4.0" dy="4.0" in="blurOut2" result="blurOut3"/><feBlend in="SourceGraphic" in2="blurOut3" mode="normal"/></filter></defs><g><!--MD5=[15636c1ca4a123c16a2a1a8e90aca7a9]
cluster Model--><polygon fill="#FFFFFF" filter="url(#f17itmtfdg0gio)" points="66.5,83,120.5,83,127.5,105.2969,615.5,105.2969,615.5,198,66.5,198,66.5,83" style="stroke: #000000; stroke-width: 1.5;"/><line style="stroke: #000000; stroke-width: 1.5;" x1="66.5" x2="127.5" y1="105.2969" y2="105.2969"/><text fill="#000000" font-family="sans-serif" font-size="14" font-weight="bold" lengthAdjust="spacingAndGlyphs" textLength="48" x="70.5" y="97.9951">Model</text><polygon fill="#FFFFFF" filter="url(#f17itmtfdg0gio)" points="16,6,119,6,126,28.2969,133,28.2969,133,58.5938,16,58.5938,16,6" style="stroke: #000000; stroke-width: 1.5;"/><line style="stroke: #000000; stroke-width: 1.5;" x1="16" x2="126" y1="28.2969" y2="28.2969"/><text fill="#000000" font-family="sans-serif" font-size="14" font-weight="bold" lengthAdjust="spacingAndGlyphs" textLength="97" x="20" y="20.9951">View JavaFX</text><!--MD5=[13c2e79780f8da90230e97aa9da6cb13]
class Disc--><rect codeLine="8" fill="#FEFECE" filter="url(#f17itmtfdg0gio)" height="48" id="Disc" style="stroke: #A80036; stroke-width: 1.5;" width="58" x="109.5" y="126"/><ellipse cx="124.5" cy="142" fill="#ADD1B2" rx="11" ry="11" style="stroke: #A80036; stroke-width: 1.0;"/><path d="M126.8438,137.6719 C125.9063,137.2344 125.3125,137.0938 124.4375,137.0938 C121.8125,137.0938 119.8125,139.1719 119.8125,141.8906 L119.8125,143.0156 C119.8125,145.5938 121.9219,147.4844 124.8125,147.4844 C126.0313,147.4844 127.1875,147.1875 127.9375,146.6406 C128.5156,146.2344 128.8438,145.7813 128.8438,145.3906 C128.8438,144.9375 128.4531,144.5469 127.9844,144.5469 C127.7656,144.5469 127.5625,144.625 127.375,144.8125 C126.9219,145.2969 126.9219,145.2969 126.7344,145.3906 C126.3125,145.6563 125.625,145.7813 124.8594,145.7813 C122.8125,145.7813 121.5156,144.6875 121.5156,142.9844 L121.5156,141.8906 C121.5156,140.1094 122.7656,138.7969 124.5,138.7969 C125.0781,138.7969 125.6875,138.9531 126.1563,139.2031 C126.6406,139.4844 126.8125,139.7031 126.9063,140.1094 C126.9688,140.5156 127,140.6406 127.1406,140.7656 C127.2813,140.9063 127.5156,141.0156 127.7344,141.0156 C128,141.0156 128.2656,140.875 128.4375,140.6563 C128.5469,140.5 128.5781,140.3125 128.5781,139.8906 L128.5781,138.4688 C128.5781,138.0313 128.5625,137.9063 128.4688,137.75 C128.3125,137.4844 128.0313,137.3438 127.7344,137.3438 C127.4375,137.3438 127.2344,137.4375 127.0156,137.75 L126.8438,137.6719 Z "/><text fill="#000000" font-family="sans-serif" font-size="12" lengthAdjust="spacingAndGlyphs" textLength="26" x="138.5" y="146.1543">Disc</text><line style="stroke: #A80036; stroke-width: 1.5;" x1="110.5" x2="166.5" y1="158" y2="158"/><line style="stroke: #A80036; stroke-width: 1.5;" x1="110.5" x2="166.5" y1="166" y2="166"/><!--MD5=[a77781830b4eef1927aef37ad01ad2c2]
class Catalogue--><rect codeLine="9" fill="#FEFECE" filter="url(#f17itmtfdg0gio)" height="48" id="Catalogue" style="stroke: #A80036; stroke-width: 1.5;" width="92" x="499.5" y="126"/><ellipse cx="514.5" cy="142" fill="#ADD1B2" rx="11" ry="11" style="stroke: #A80036; stroke-width: 1.0;"/><path d="M516.8438,137.6719 C515.9063,137.2344 515.3125,137.0938 514.4375,137.0938 C511.8125,137.0938 509.8125,139.1719 509.8125,141.8906 L509.8125,143.0156 C509.8125,145.5938 511.9219,147.4844 514.8125,147.4844 C516.0313,147.4844 517.1875,147.1875 517.9375,146.6406 C518.5156,146.2344 518.8438,145.7813 518.8438,145.3906 C518.8438,144.9375 518.4531,144.5469 517.9844,144.5469 C517.7656,144.5469 517.5625,144.625 517.375,144.8125 C516.9219,145.2969 516.9219,145.2969 516.7344,145.3906 C516.3125,145.6563 515.625,145.7813 514.8594,145.7813 C512.8125,145.7813 511.5156,144.6875 511.5156,142.9844 L511.5156,141.8906 C511.5156,140.1094 512.7656,138.7969 514.5,138.7969 C515.0781,138.7969 515.6875,138.9531 516.1563,139.2031 C516.6406,139.4844 516.8125,139.7031 516.9063,140.1094 C516.9688,140.5156 517,140.6406 517.1406,140.7656 C517.2813,140.9063 517.5156,141.0156 517.7344,141.0156 C518,141.0156 518.2656,140.875 518.4375,140.6563 C518.5469,140.5 518.5781,140.3125 518.5781,139.8906 L518.5781,138.4688 C518.5781,138.0313 518.5625,137.9063 518.4688,137.75 C518.3125,137.4844 518.0313,137.3438 517.7344,137.3438 C517.4375,137.3438 517.2344,137.4375 517.0156,137.75 L516.8438,137.6719 Z "/><text fill="#000000" font-family="sans-serif" font-size="12" lengthAdjust="spacingAndGlyphs" textLength="60" x="528.5" y="146.1543">Catalogue</text><line style="stroke: #A80036; stroke-width: 1.5;" x1="500.5" x2="590.5" y1="158" y2="158"/><line style="stroke: #A80036; stroke-width: 1.5;" x1="500.5" x2="590.5" y1="166" y2="166"/><!--MD5=[8ae2c2db09eb731972ab511bcae12bf3]
class Artist--><rect codeLine="10" fill="#FEFECE" filter="url(#f17itmtfdg0gio)" height="48" id="Artist" style="stroke: #A80036; stroke-width: 1.5;" width="63" x="401" y="126"/><ellipse cx="416" cy="142" fill="#ADD1B2" rx="11" ry="11" style="stroke: #A80036; stroke-width: 1.0;"/><path d="M418.3438,137.6719 C417.4063,137.2344 416.8125,137.0938 415.9375,137.0938 C413.3125,137.0938 411.3125,139.1719 411.3125,141.8906 L411.3125,143.0156 C411.3125,145.5938 413.4219,147.4844 416.3125,147.4844 C417.5313,147.4844 418.6875,147.1875 419.4375,146.6406 C420.0156,146.2344 420.3438,145.7813 420.3438,145.3906 C420.3438,144.9375 419.9531,144.5469 419.4844,144.5469 C419.2656,144.5469 419.0625,144.625 418.875,144.8125 C418.4219,145.2969 418.4219,145.2969 418.2344,145.3906 C417.8125,145.6563 417.125,145.7813 416.3594,145.7813 C414.3125,145.7813 413.0156,144.6875 413.0156,142.9844 L413.0156,141.8906 C413.0156,140.1094 414.2656,138.7969 416,138.7969 C416.5781,138.7969 417.1875,138.9531 417.6563,139.2031 C418.1406,139.4844 418.3125,139.7031 418.4063,140.1094 C418.4688,140.5156 418.5,140.6406 418.6406,140.7656 C418.7813,140.9063 419.0156,141.0156 419.2344,141.0156 C419.5,141.0156 419.7656,140.875 419.9375,140.6563 C420.0469,140.5 420.0781,140.3125 420.0781,139.8906 L420.0781,138.4688 C420.0781,138.0313 420.0625,137.9063 419.9688,137.75 C419.8125,137.4844 419.5313,137.3438 419.2344,137.3438 C418.9375,137.3438 418.7344,137.4375 418.5156,137.75 L418.3438,137.6719 Z "/><text fill="#000000" font-family="sans-serif" font-size="12" lengthAdjust="spacingAndGlyphs" textLength="31" x="430" y="146.1543">Artist</text><line style="stroke: #A80036; stroke-width: 1.5;" x1="402" x2="463" y1="158" y2="158"/><line style="stroke: #A80036; stroke-width: 1.5;" x1="402" x2="463" y1="166" y2="166"/><!--MD5=[f6c305f71c244bbdf88d363aa1ca9723]
class Band--><rect codeLine="11" fill="#FEFECE" filter="url(#f17itmtfdg0gio)" height="48" id="Band" style="stroke: #A80036; stroke-width: 1.5;" width="62" x="303.5" y="126"/><ellipse cx="318.5" cy="142" fill="#ADD1B2" rx="11" ry="11" style="stroke: #A80036; stroke-width: 1.0;"/><path d="M320.8438,137.6719 C319.9063,137.2344 319.3125,137.0938 318.4375,137.0938 C315.8125,137.0938 313.8125,139.1719 313.8125,141.8906 L313.8125,143.0156 C313.8125,145.5938 315.9219,147.4844 318.8125,147.4844 C320.0313,147.4844 321.1875,147.1875 321.9375,146.6406 C322.5156,146.2344 322.8438,145.7813 322.8438,145.3906 C322.8438,144.9375 322.4531,144.5469 321.9844,144.5469 C321.7656,144.5469 321.5625,144.625 321.375,144.8125 C320.9219,145.2969 320.9219,145.2969 320.7344,145.3906 C320.3125,145.6563 319.625,145.7813 318.8594,145.7813 C316.8125,145.7813 315.5156,144.6875 315.5156,142.9844 L315.5156,141.8906 C315.5156,140.1094 316.7656,138.7969 318.5,138.7969 C319.0781,138.7969 319.6875,138.9531 320.1563,139.2031 C320.6406,139.4844 320.8125,139.7031 320.9063,140.1094 C320.9688,140.5156 321,140.6406 321.1406,140.7656 C321.2813,140.9063 321.5156,141.0156 321.7344,141.0156 C322,141.0156 322.2656,140.875 322.4375,140.6563 C322.5469,140.5 322.5781,140.3125 322.5781,139.8906 L322.5781,138.4688 C322.5781,138.0313 322.5625,137.9063 322.4688,137.75 C322.3125,137.4844 322.0313,137.3438 321.7344,137.3438 C321.4375,137.3438 321.2344,137.4375 321.0156,137.75 L320.8438,137.6719 Z "/><text fill="#000000" font-family="sans-serif" font-size="12" lengthAdjust="spacingAndGlyphs" textLength="30" x="332.5" y="146.1543">Band</text><line style="stroke: #A80036; stroke-width: 1.5;" x1="304.5" x2="364.5" y1="158" y2="158"/><line style="stroke: #A80036; stroke-width: 1.5;" x1="304.5" x2="364.5" y1="166" y2="166"/><!--MD5=[3b034ebaa87c9ec5e8fb5410143f628f]
class Track--><rect codeLine="12" fill="#FEFECE" filter="url(#f17itmtfdg0gio)" height="48" id="Track" style="stroke: #A80036; stroke-width: 1.5;" width="65" x="203" y="126"/><ellipse cx="218" cy="142" fill="#ADD1B2" rx="11" ry="11" style="stroke: #A80036; stroke-width: 1.0;"/><path d="M220.3438,137.6719 C219.4063,137.2344 218.8125,137.0938 217.9375,137.0938 C215.3125,137.0938 213.3125,139.1719 213.3125,141.8906 L213.3125,143.0156 C213.3125,145.5938 215.4219,147.4844 218.3125,147.4844 C219.5313,147.4844 220.6875,147.1875 221.4375,146.6406 C222.0156,146.2344 222.3438,145.7813 222.3438,145.3906 C222.3438,144.9375 221.9531,144.5469 221.4844,144.5469 C221.2656,144.5469 221.0625,144.625 220.875,144.8125 C220.4219,145.2969 220.4219,145.2969 220.2344,145.3906 C219.8125,145.6563 219.125,145.7813 218.3594,145.7813 C216.3125,145.7813 215.0156,144.6875 215.0156,142.9844 L215.0156,141.8906 C215.0156,140.1094 216.2656,138.7969 218,138.7969 C218.5781,138.7969 219.1875,138.9531 219.6563,139.2031 C220.1406,139.4844 220.3125,139.7031 220.4063,140.1094 C220.4688,140.5156 220.5,140.6406 220.6406,140.7656 C220.7813,140.9063 221.0156,141.0156 221.2344,141.0156 C221.5,141.0156 221.7656,140.875 221.9375,140.6563 C222.0469,140.5 222.0781,140.3125 222.0781,139.8906 L222.0781,138.4688 C222.0781,138.0313 222.0625,137.9063 221.9688,137.75 C221.8125,137.4844 221.5313,137.3438 221.2344,137.3438 C220.9375,137.3438 220.7344,137.4375 220.5156,137.75 L220.3438,137.6719 Z "/><text fill="#000000" font-family="sans-serif" font-size="12" lengthAdjust="spacingAndGlyphs" textLength="33" x="232" y="146.1543">Track</text><line style="stroke: #A80036; stroke-width: 1.5;" x1="204" x2="267" y1="158" y2="158"/><line style="stroke: #A80036; stroke-width: 1.5;" x1="204" x2="267" y1="166" y2="166"/><!--MD5=[f9ba5bf973e7832d2ce5ed59077b93f7]
entity DB--><path d="M54,244 C54,234 74.5,234 74.5,234 C74.5,234 95,234 95,244 L95,269.2969 C95,279.2969 74.5,279.2969 74.5,279.2969 C74.5,279.2969 54,279.2969 54,269.2969 L54,244 " fill="#FEFECE" filter="url(#f17itmtfdg0gio)" style="stroke: #000000; stroke-width: 1.5;"/><path d="M54,244 C54,254 74.5,254 74.5,254 C74.5,254 95,254 95,244 " fill="none" style="stroke: #000000; stroke-width: 1.5;"/><text fill="#000000" font-family="sans-serif" font-size="14" lengthAdjust="spacingAndGlyphs" textLength="21" x="64" y="270.9951">DB</text><!--MD5=[26b8e71903ffb6b52e42419c9be2595c]
reverse link Disc to Catalogue--><path codeLine="15" d="M149.19,118.137 C156.687,100.522 168.455,79.695 185.5,67 C191.899,62.235 195.072,63.895 203,63 C231.817,59.749 435.183,59.749 464,63 C471.928,63.895 474.78,62.699 481.5,67 C504.182,81.517 522.029,106.99 533.05,125.899 " fill="none" id="Disc-backto-Catalogue" style="stroke: #A80036; stroke-width: 1.0;"/><line style="stroke: #A80036; stroke-width: 1.0;" x1="149.0262" x2="151.6089" y1="118.5414" y2="128.2021"/><line style="stroke: #A80036; stroke-width: 1.0;" x1="149.0262" x2="140.4751" y1="118.5414" y2="123.7259"/><line style="stroke: #A80036; stroke-width: 1.0;" x1="149.0262" x2="146.042" y1="118.5414" y2="125.964"/><ellipse cx="151.2643" cy="112.9745" fill="none" rx="4" ry="4" style="stroke: #A80036; stroke-width: 1.0;"/><!--MD5=[ef9d80dd21624526eb3c0002e8578579]
reverse link Disc to Band--><path codeLine="16" d="M149.19,118.137 C156.687,100.522 168.455,79.695 185.5,67 C191.899,62.235 195.072,63.895 203,63 C221.239,60.942 270.681,56.17 285.5,67 C305.495,81.613 318.748,107.07 326.372,125.95 " fill="none" id="Disc-backto-Band" style="stroke: #A80036; stroke-width: 1.0;"/><line style="stroke: #A80036; stroke-width: 1.0;" x1="149.0262" x2="151.6089" y1="118.5414" y2="128.2021"/><line style="stroke: #A80036; stroke-width: 1.0;" x1="149.0262" x2="140.4751" y1="118.5414" y2="123.7259"/><line style="stroke: #A80036; stroke-width: 1.0;" x1="149.0262" x2="146.042" y1="118.5414" y2="125.964"/><ellipse cx="151.2643" cy="112.9745" fill="none" rx="4" ry="4" style="stroke: #A80036; stroke-width: 1.0;"/><!--MD5=[c6bdb9c7c55e24f25d1e143e82c3547c]
link Band to Artist--><path codeLine="17" d="M365.508,150 C374.616,150 383.724,150 392.832,150 " fill="none" id="Band-to-Artist" style="stroke: #A80036; stroke-width: 1.0;"/><line style="stroke: #A80036; stroke-width: 1.0;" x1="392.836" x2="400.836" y1="150" y2="144"/><line style="stroke: #A80036; stroke-width: 1.0;" x1="392.836" x2="400.836" y1="150" y2="156"/><line style="stroke: #A80036; stroke-width: 1.0;" x1="392.836" x2="400.836" y1="150" y2="150"/><ellipse cx="386.836" cy="150" fill="none" rx="4" ry="4" style="stroke: #A80036; stroke-width: 1.0;"/><!--MD5=[2a78be52f5059352e0709b4500888082]
link Disc to Track--><path codeLine="18" d="M167.676,150 C176.669,150 185.661,150 194.654,150 " fill="none" id="Disc-to-Track" style="stroke: #A80036; stroke-width: 1.0;"/><line style="stroke: #A80036; stroke-width: 1.0;" x1="194.913" x2="202.913" y1="150" y2="144"/><line style="stroke: #A80036; stroke-width: 1.0;" x1="194.913" x2="202.913" y1="150" y2="156"/><line style="stroke: #A80036; stroke-width: 1.0;" x1="194.913" x2="202.913" y1="150" y2="150"/><line style="stroke: #A80036; stroke-width: 1.0;" x1="192.913" x2="192.913" y1="146" y2="154"/><!--MD5=[517defe22f51b834075a81df40da2bc9]
link Front to Model--><path d="M74.5,59.133 C74.5,63.2535 74.5,67.6938 74.5,72.3161 C74.5,74.6273 74.5,76.9839 74.5,79.3688 C74.5,80.5613 74.5,81.7608 74.5,82.9652 " fill="none" id="Front-to-Model" style="stroke: #A80036; stroke-width: 1.0;"/><polygon fill="#A80036" points="74.5,82.9652,78.5,73.9652,74.5,77.9652,70.5,73.9652,74.5,82.9652" style="stroke: #A80036; stroke-width: 1.0;"/><!--MD5=[57a3dd954df3db68727a8ef99555961e]
link Model to DB--><path codeLine="26" d="M74.5,198.2414 C74.5,198.3744 74.5,198.5074 74.5,198.6405 C74.5,198.9066 74.5,199.1729 74.5,199.4394 C74.5,199.9723 74.5,200.5057 74.5,201.0395 C74.5,202.1069 74.5,203.1757 74.5,204.2438 C74.5,212.7891 74.5,221.2989 74.5,228.8585 " fill="none" id="Model-to-DB" style="stroke: #A80036; stroke-width: 1.0;"/><polygon fill="#A80036" points="74.5,233.9426,78.5,224.9426,74.5,228.9426,70.5,224.9426,74.5,233.9426" style="stroke: #A80036; stroke-width: 1.0;"/><!--MD5=[65282a7713a978aa540fb86f2423765e]
@startuml
package "View JavaFX" as Front {

}


package "Model" as Model{
'Entities definition
 class Disc
 class Catalogue
 class Artist
 class Band
 class Track

'Relationships
  Disc }o- Catalogue
  Disc }o- Band
  Band -o{ Artist
  Disc -|{ Track
}

database DB [
  DB
]

    Front - -> Model
    Model - -> DB
@enduml

@startuml
package "View JavaFX" as Front {

}


package "Model" as Model{
 class Disc
 class Catalogue
 class Artist
 class Band
 class Track

  Disc }o- Catalogue
  Disc }o- Band
  Band -o{ Artist
  Disc -|{ Track
}

database DB [
  DB
]

    Front - -> Model
    Model - -> DB
@enduml

PlantUML version 1.2020.16(Sun Aug 23 20:20:43 UTC 2020)
(GPL source distribution)
Java Runtime: Java(TM) SE Runtime Environment
JVM: Java HotSpot(TM) 64-Bit Server VM
Default Encoding: UTF-8
Language: en
Country: US
--></g></svg>