<?xml version="1.0" encoding="UTF-8" standalone="no"?><svg xmlns="http://www.w3.org/2000/svg" xmlns:xlink="http://www.w3.org/1999/xlink" contentScriptType="BandurriaJ/ecmascript" contentStyleType="text/css" height="563px" preserveAspectRatio="none" style="width:1467px;height:563px;" version="1.1" viewBox="0 0 1467 563" width="1467px" zoomAndPan="magnify"><defs><filter height="300%" id="f16mf0isjvc4kh" width="300%" x="-1" y="-1"><feGaussianBlur result="blurOut" stdDeviation="2.0"/><feColorMatrix in="blurOut" result="blurOut2" type="matrix" values="0 0 0 0 0 0 0 0 0 0 0 0 0 0 0 0 0 0 .4 0"/><feOffset dx="4.0" dy="4.0" in="blurOut2" result="blurOut3"/><feBlend in="SourceGraphic" in2="blurOut3" mode="normal"/></filter></defs><g><!--MD5=[15636c1ca4a123c16a2a1a8e90aca7a9]
cluster Model--><polygon fill="#FFFFFF" filter="url(#f16mf0isjvc4kh)" points="21.5651,300.5,75.5651,300.5,82.5651,322.7969,570.5651,322.7969,570.5651,415.5,21.5651,415.5,21.5651,300.5" style="stroke: #000000; stroke-width: 1.5;"/><line style="stroke: #000000; stroke-width: 1.5;" x1="21.5651" x2="82.5651" y1="322.7969" y2="322.7969"/><text fill="#000000" font-family="sans-serif" font-size="14" font-weight="bold" lengthAdjust="spacingAndGlyphs" textLength="48" x="25.5651" y="315.4951">Model</text><!--MD5=[cdfd548b3455e70392372b1f27091970]
cluster Services--><polygon fill="#FFFFFF" filter="url(#f16mf0isjvc4kh)" points="610.5651,196,683.5651,196,690.5651,218.2969,1445.5651,218.2969,1445.5651,482,610.5651,482,610.5651,196" style="stroke: #000000; stroke-width: 1.5;"/><line style="stroke: #000000; stroke-width: 1.5;" x1="610.5651" x2="690.5651" y1="218.2969" y2="218.2969"/><text fill="#000000" font-family="sans-serif" font-size="14" font-weight="bold" lengthAdjust="spacingAndGlyphs" textLength="67" x="614.5651" y="210.9951">Services</text><!--MD5=[161c5b69b7dea0bad5b1dc2ba223b4a1]
cluster MetaS--><polygon fill="#FFFFFF" filter="url(#f16mf0isjvc4kh)" points="832.5651,247,1057.5651,247,1064.5651,269.2969,1413.5651,269.2969,1413.5651,450,832.5651,450,832.5651,247" style="stroke: #000000; stroke-width: 1.5;"/><line style="stroke: #000000; stroke-width: 1.5;" x1="832.5651" x2="1064.5651" y1="269.2969" y2="269.2969"/><text fill="#000000" font-family="sans-serif" font-size="14" font-weight="bold" lengthAdjust="spacingAndGlyphs" textLength="219" x="836.5651" y="261.9951">MetadataRetrievalServices</text><!--MD5=[b81e17c04be48c83648ee1bb5f0ecae2]
cluster ApiS--><polygon fill="#FFFFFF" filter="url(#f16mf0isjvc4kh)" points="995.5651,298,1085.5651,298,1092.5651,320.2969,1381.5651,320.2969,1381.5651,418,995.5651,418,995.5651,298" style="stroke: #000000; stroke-width: 1.5;"/><line style="stroke: #000000; stroke-width: 1.5;" x1="995.5651" x2="1092.5651" y1="320.2969" y2="320.2969"/><text fill="#000000" font-family="sans-serif" font-size="14" font-weight="bold" lengthAdjust="spacingAndGlyphs" textLength="84" x="999.5651" y="312.9951">ApiService</text><polygon fill="#FFFFFF" filter="url(#f16mf0isjvc4kh)" points="265.0651,6,368.0651,6,375.0651,28.2969,382.0651,28.2969,382.0651,58.5938,265.0651,58.5938,265.0651,6" style="stroke: #000000; stroke-width: 1.5;"/><line style="stroke: #000000; stroke-width: 1.5;" x1="265.0651" x2="375.0651" y1="28.2969" y2="28.2969"/><text fill="#000000" font-family="sans-serif" font-size="14" font-weight="bold" lengthAdjust="spacingAndGlyphs" textLength="97" x="269.0651" y="20.9951">View JavaFX</text><!--MD5=[13c2e79780f8da90230e97aa9da6cb13]
class Disc--><rect codeLine="9" fill="#FEFECE" filter="url(#f16mf0isjvc4kh)" height="48" id="Disc" style="stroke: #A80036; stroke-width: 1.5;" width="58" x="64.5651" y="343.5"/><ellipse cx="79.5651" cy="359.5" fill="#ADD1B2" rx="11" ry="11" style="stroke: #A80036; stroke-width: 1.0;"/><path d="M81.9088,355.1719 C80.9713,354.7344 80.3776,354.5938 79.5026,354.5938 C76.8776,354.5938 74.8776,356.6719 74.8776,359.3906 L74.8776,360.5156 C74.8776,363.0938 76.987,364.9844 79.8776,364.9844 C81.0963,364.9844 82.2526,364.6875 83.0026,364.1406 C83.5807,363.7344 83.9088,363.2813 83.9088,362.8906 C83.9088,362.4375 83.5182,362.0469 83.0495,362.0469 C82.8307,362.0469 82.6276,362.125 82.4401,362.3125 C81.987,362.7969 81.987,362.7969 81.7995,362.8906 C81.3776,363.1563 80.6901,363.2813 79.9245,363.2813 C77.8776,363.2813 76.5807,362.1875 76.5807,360.4844 L76.5807,359.3906 C76.5807,357.6094 77.8307,356.2969 79.5651,356.2969 C80.1432,356.2969 80.7526,356.4531 81.2213,356.7031 C81.7057,356.9844 81.8776,357.2031 81.9713,357.6094 C82.0338,358.0156 82.0651,358.1406 82.2057,358.2656 C82.3463,358.4063 82.5807,358.5156 82.7995,358.5156 C83.0651,358.5156 83.3307,358.375 83.5026,358.1563 C83.612,358 83.6432,357.8125 83.6432,357.3906 L83.6432,355.9688 C83.6432,355.5313 83.6276,355.4063 83.5338,355.25 C83.3776,354.9844 83.0963,354.8438 82.7995,354.8438 C82.5026,354.8438 82.2995,354.9375 82.0807,355.25 L81.9088,355.1719 Z "/><text fill="#000000" font-family="sans-serif" font-size="12" lengthAdjust="spacingAndGlyphs" textLength="26" x="93.5651" y="363.6543">Disc</text><line style="stroke: #A80036; stroke-width: 1.5;" x1="65.5651" x2="121.5651" y1="375.5" y2="375.5"/><line style="stroke: #A80036; stroke-width: 1.5;" x1="65.5651" x2="121.5651" y1="383.5" y2="383.5"/><!--MD5=[a77781830b4eef1927aef37ad01ad2c2]
class Catalogue--><rect codeLine="10" fill="#FEFECE" filter="url(#f16mf0isjvc4kh)" height="48" id="Catalogue" style="stroke: #A80036; stroke-width: 1.5;" width="92" x="454.5651" y="343.5"/><ellipse cx="469.5651" cy="359.5" fill="#ADD1B2" rx="11" ry="11" style="stroke: #A80036; stroke-width: 1.0;"/><path d="M471.9088,355.1719 C470.9713,354.7344 470.3776,354.5938 469.5026,354.5938 C466.8776,354.5938 464.8776,356.6719 464.8776,359.3906 L464.8776,360.5156 C464.8776,363.0938 466.987,364.9844 469.8776,364.9844 C471.0963,364.9844 472.2526,364.6875 473.0026,364.1406 C473.5807,363.7344 473.9088,363.2813 473.9088,362.8906 C473.9088,362.4375 473.5182,362.0469 473.0495,362.0469 C472.8307,362.0469 472.6276,362.125 472.4401,362.3125 C471.987,362.7969 471.987,362.7969 471.7995,362.8906 C471.3776,363.1563 470.6901,363.2813 469.9245,363.2813 C467.8776,363.2813 466.5807,362.1875 466.5807,360.4844 L466.5807,359.3906 C466.5807,357.6094 467.8307,356.2969 469.5651,356.2969 C470.1432,356.2969 470.7526,356.4531 471.2213,356.7031 C471.7057,356.9844 471.8776,357.2031 471.9713,357.6094 C472.0338,358.0156 472.0651,358.1406 472.2057,358.2656 C472.3463,358.4063 472.5807,358.5156 472.7995,358.5156 C473.0651,358.5156 473.3307,358.375 473.5026,358.1563 C473.612,358 473.6432,357.8125 473.6432,357.3906 L473.6432,355.9688 C473.6432,355.5313 473.6276,355.4063 473.5338,355.25 C473.3776,354.9844 473.0963,354.8438 472.7995,354.8438 C472.5026,354.8438 472.2995,354.9375 472.0807,355.25 L471.9088,355.1719 Z "/><text fill="#000000" font-family="sans-serif" font-size="12" lengthAdjust="spacingAndGlyphs" textLength="60" x="483.5651" y="363.6543">Catalogue</text><line style="stroke: #A80036; stroke-width: 1.5;" x1="455.5651" x2="545.5651" y1="375.5" y2="375.5"/><line style="stroke: #A80036; stroke-width: 1.5;" x1="455.5651" x2="545.5651" y1="383.5" y2="383.5"/><!--MD5=[8ae2c2db09eb731972ab511bcae12bf3]
class Artist--><rect codeLine="11" fill="#FEFECE" filter="url(#f16mf0isjvc4kh)" height="48" id="Artist" style="stroke: #A80036; stroke-width: 1.5;" width="63" x="356.0651" y="343.5"/><ellipse cx="371.0651" cy="359.5" fill="#ADD1B2" rx="11" ry="11" style="stroke: #A80036; stroke-width: 1.0;"/><path d="M373.4088,355.1719 C372.4713,354.7344 371.8776,354.5938 371.0026,354.5938 C368.3776,354.5938 366.3776,356.6719 366.3776,359.3906 L366.3776,360.5156 C366.3776,363.0938 368.487,364.9844 371.3776,364.9844 C372.5963,364.9844 373.7526,364.6875 374.5026,364.1406 C375.0807,363.7344 375.4088,363.2813 375.4088,362.8906 C375.4088,362.4375 375.0182,362.0469 374.5495,362.0469 C374.3307,362.0469 374.1276,362.125 373.9401,362.3125 C373.487,362.7969 373.487,362.7969 373.2995,362.8906 C372.8776,363.1563 372.1901,363.2813 371.4245,363.2813 C369.3776,363.2813 368.0807,362.1875 368.0807,360.4844 L368.0807,359.3906 C368.0807,357.6094 369.3307,356.2969 371.0651,356.2969 C371.6432,356.2969 372.2526,356.4531 372.7213,356.7031 C373.2057,356.9844 373.3776,357.2031 373.4713,357.6094 C373.5338,358.0156 373.5651,358.1406 373.7057,358.2656 C373.8463,358.4063 374.0807,358.5156 374.2995,358.5156 C374.5651,358.5156 374.8307,358.375 375.0026,358.1563 C375.112,358 375.1432,357.8125 375.1432,357.3906 L375.1432,355.9688 C375.1432,355.5313 375.1276,355.4063 375.0338,355.25 C374.8776,354.9844 374.5963,354.8438 374.2995,354.8438 C374.0026,354.8438 373.7995,354.9375 373.5807,355.25 L373.4088,355.1719 Z "/><text fill="#000000" font-family="sans-serif" font-size="12" lengthAdjust="spacingAndGlyphs" textLength="31" x="385.0651" y="363.6543">Artist</text><line style="stroke: #A80036; stroke-width: 1.5;" x1="357.0651" x2="418.0651" y1="375.5" y2="375.5"/><line style="stroke: #A80036; stroke-width: 1.5;" x1="357.0651" x2="418.0651" y1="383.5" y2="383.5"/><!--MD5=[f6c305f71c244bbdf88d363aa1ca9723]
class Band--><rect codeLine="12" fill="#FEFECE" filter="url(#f16mf0isjvc4kh)" height="48" id="Band" style="stroke: #A80036; stroke-width: 1.5;" width="62" x="258.5651" y="343.5"/><ellipse cx="273.5651" cy="359.5" fill="#ADD1B2" rx="11" ry="11" style="stroke: #A80036; stroke-width: 1.0;"/><path d="M275.9088,355.1719 C274.9713,354.7344 274.3776,354.5938 273.5026,354.5938 C270.8776,354.5938 268.8776,356.6719 268.8776,359.3906 L268.8776,360.5156 C268.8776,363.0938 270.987,364.9844 273.8776,364.9844 C275.0963,364.9844 276.2526,364.6875 277.0026,364.1406 C277.5807,363.7344 277.9088,363.2813 277.9088,362.8906 C277.9088,362.4375 277.5182,362.0469 277.0495,362.0469 C276.8307,362.0469 276.6276,362.125 276.4401,362.3125 C275.987,362.7969 275.987,362.7969 275.7995,362.8906 C275.3776,363.1563 274.6901,363.2813 273.9245,363.2813 C271.8776,363.2813 270.5807,362.1875 270.5807,360.4844 L270.5807,359.3906 C270.5807,357.6094 271.8307,356.2969 273.5651,356.2969 C274.1432,356.2969 274.7526,356.4531 275.2213,356.7031 C275.7057,356.9844 275.8776,357.2031 275.9713,357.6094 C276.0338,358.0156 276.0651,358.1406 276.2057,358.2656 C276.3463,358.4063 276.5807,358.5156 276.7995,358.5156 C277.0651,358.5156 277.3307,358.375 277.5026,358.1563 C277.612,358 277.6432,357.8125 277.6432,357.3906 L277.6432,355.9688 C277.6432,355.5313 277.6276,355.4063 277.5338,355.25 C277.3776,354.9844 277.0963,354.8438 276.7995,354.8438 C276.5026,354.8438 276.2995,354.9375 276.0807,355.25 L275.9088,355.1719 Z "/><text fill="#000000" font-family="sans-serif" font-size="12" lengthAdjust="spacingAndGlyphs" textLength="30" x="287.5651" y="363.6543">Band</text><line style="stroke: #A80036; stroke-width: 1.5;" x1="259.5651" x2="319.5651" y1="375.5" y2="375.5"/><line style="stroke: #A80036; stroke-width: 1.5;" x1="259.5651" x2="319.5651" y1="383.5" y2="383.5"/><!--MD5=[3b034ebaa87c9ec5e8fb5410143f628f]
class Track--><rect codeLine="13" fill="#FEFECE" filter="url(#f16mf0isjvc4kh)" height="48" id="Track" style="stroke: #A80036; stroke-width: 1.5;" width="65" x="158.0651" y="343.5"/><ellipse cx="173.0651" cy="359.5" fill="#ADD1B2" rx="11" ry="11" style="stroke: #A80036; stroke-width: 1.0;"/><path d="M175.4088,355.1719 C174.4713,354.7344 173.8776,354.5938 173.0026,354.5938 C170.3776,354.5938 168.3776,356.6719 168.3776,359.3906 L168.3776,360.5156 C168.3776,363.0938 170.487,364.9844 173.3776,364.9844 C174.5963,364.9844 175.7526,364.6875 176.5026,364.1406 C177.0807,363.7344 177.4088,363.2813 177.4088,362.8906 C177.4088,362.4375 177.0182,362.0469 176.5495,362.0469 C176.3307,362.0469 176.1276,362.125 175.9401,362.3125 C175.487,362.7969 175.487,362.7969 175.2995,362.8906 C174.8776,363.1563 174.1901,363.2813 173.4245,363.2813 C171.3776,363.2813 170.0807,362.1875 170.0807,360.4844 L170.0807,359.3906 C170.0807,357.6094 171.3307,356.2969 173.0651,356.2969 C173.6432,356.2969 174.2526,356.4531 174.7213,356.7031 C175.2057,356.9844 175.3776,357.2031 175.4713,357.6094 C175.5338,358.0156 175.5651,358.1406 175.7057,358.2656 C175.8463,358.4063 176.0807,358.5156 176.2995,358.5156 C176.5651,358.5156 176.8307,358.375 177.0026,358.1563 C177.112,358 177.1432,357.8125 177.1432,357.3906 L177.1432,355.9688 C177.1432,355.5313 177.1276,355.4063 177.0338,355.25 C176.8776,354.9844 176.5963,354.8438 176.2995,354.8438 C176.0026,354.8438 175.7995,354.9375 175.5807,355.25 L175.4088,355.1719 Z "/><text fill="#000000" font-family="sans-serif" font-size="12" lengthAdjust="spacingAndGlyphs" textLength="33" x="187.0651" y="363.6543">Track</text><line style="stroke: #A80036; stroke-width: 1.5;" x1="159.0651" x2="222.0651" y1="375.5" y2="375.5"/><line style="stroke: #A80036; stroke-width: 1.5;" x1="159.0651" x2="222.0651" y1="383.5" y2="383.5"/><polygon fill="#FFFFFF" filter="url(#f16mf0isjvc4kh)" points="273.0651,119,360.0651,119,367.0651,141.2969,374.0651,141.2969,374.0651,171.5938,273.0651,171.5938,273.0651,119" style="stroke: #000000; stroke-width: 1.5;"/><line style="stroke: #000000; stroke-width: 1.5;" x1="273.0651" x2="367.0651" y1="141.2969" y2="141.2969"/><text fill="#000000" font-family="sans-serif" font-size="14" font-weight="bold" lengthAdjust="spacingAndGlyphs" textLength="81" x="277.0651" y="133.9951">Controller</text><polygon fill="#FFFFFF" filter="url(#f16mf0isjvc4kh)" points="653.5651,341,799.5651,341,806.5651,363.2969,813.5651,363.2969,813.5651,393.5938,653.5651,393.5938,653.5651,341" style="stroke: #000000; stroke-width: 1.5;"/><line style="stroke: #000000; stroke-width: 1.5;" x1="653.5651" x2="806.5651" y1="363.2969" y2="363.2969"/><text fill="#000000" font-family="sans-serif" font-size="14" font-weight="bold" lengthAdjust="spacingAndGlyphs" textLength="140" x="657.5651" y="355.9951">CatalogueService</text><polygon fill="#FFFFFF" filter="url(#f16mf0isjvc4kh)" points="1215.5651,341,1343.5651,341,1350.5651,363.2969,1357.5651,363.2969,1357.5651,393.5938,1215.5651,393.5938,1215.5651,341" style="stroke: #000000; stroke-width: 1.5;"/><line style="stroke: #000000; stroke-width: 1.5;" x1="1215.5651" x2="1350.5651" y1="363.2969" y2="363.2969"/><text fill="#000000" font-family="sans-serif" font-size="14" font-weight="bold" lengthAdjust="spacingAndGlyphs" textLength="122" x="1219.5651" y="355.9951">APItoProviderA</text><polygon fill="#FFFFFF" filter="url(#f16mf0isjvc4kh)" points="1038.5651,341,1166.5651,341,1173.5651,363.2969,1180.5651,363.2969,1180.5651,393.5938,1038.5651,393.5938,1038.5651,341" style="stroke: #000000; stroke-width: 1.5;"/><line style="stroke: #000000; stroke-width: 1.5;" x1="1038.5651" x2="1173.5651" y1="363.2969" y2="363.2969"/><text fill="#000000" font-family="sans-serif" font-size="14" font-weight="bold" lengthAdjust="spacingAndGlyphs" textLength="122" x="1042.5651" y="355.9951">APItoProviderB</text><polygon fill="#FFFFFF" filter="url(#f16mf0isjvc4kh)" points="849.0651,341,954.0651,341,961.0651,363.2969,968.0651,363.2969,968.0651,393.5938,849.0651,393.5938,849.0651,341" style="stroke: #000000; stroke-width: 1.5;"/><line style="stroke: #000000; stroke-width: 1.5;" x1="849.0651" x2="961.0651" y1="363.2969" y2="363.2969"/><text fill="#000000" font-family="sans-serif" font-size="14" font-weight="bold" lengthAdjust="spacingAndGlyphs" textLength="99" x="853.0651" y="355.9951">CdMetadata</text><!--MD5=[f9ba5bf973e7832d2ce5ed59077b93f7]
entity DB--><path d="M9.0651,516 C9.0651,506 29.5651,506 29.5651,506 C29.5651,506 50.0651,506 50.0651,516 L50.0651,541.2969 C50.0651,551.2969 29.5651,551.2969 29.5651,551.2969 C29.5651,551.2969 9.0651,551.2969 9.0651,541.2969 L9.0651,516 " fill="#FEFECE" filter="url(#f16mf0isjvc4kh)" style="stroke: #000000; stroke-width: 1.5;"/><path d="M9.0651,516 C9.0651,526 29.5651,526 29.5651,526 C29.5651,526 50.0651,526 50.0651,516 " fill="none" style="stroke: #000000; stroke-width: 1.5;"/><text fill="#000000" font-family="sans-serif" font-size="14" lengthAdjust="spacingAndGlyphs" textLength="21" x="19.0651" y="542.9951">DB</text><!--MD5=[02eb872209c6a280438c9c363ca0b0a9]
entity apiProvider--><rect fill="#FEFECE" filter="url(#f16mf0isjvc4kh)" height="36.2969" rx="35" ry="35" style="stroke: #000000; stroke-width: 1.5;" width="123.3333" x="942.0651" y="510.5"/><text fill="#000000" font-family="sans-serif" font-size="14" lengthAdjust="spacingAndGlyphs" textLength="88" x="952.0651" y="533.4951">Api Provider</text><path d="M1050.3151,525.1302 C1048.9034,525.1302 1047.6668,526.1335 1047.3984,527.4635 C1046.1151,527.4635 1045.0651,528.5135 1045.0651,529.7969 C1045.0651,531.0802 1046.1151,532.1302 1047.3984,532.1302 L1052.6484,532.1302 C1053.6168,532.1302 1054.3984,531.3485 1054.3984,530.3802 C1054.3984,529.6219 1053.9084,528.8752 1053.2318,528.6302 L1053.2318,528.0469 C1053.2318,526.4369 1051.9251,525.1302 1050.3151,525.1302 " fill="#000000" style="stroke: ; stroke-width: 0.0; stroke-dasharray: ;"/><!--MD5=[26b8e71903ffb6b52e42419c9be2595c]
reverse link Disc to Catalogue--><path codeLine="16" d="M92.1013,335.033 C92.0891,293.191 98.7311,220.969 140.5651,180 C146.2651,174.418 150.1371,176.895 158.0651,176 C186.8821,172.749 390.2481,172.749 419.0651,176 C426.9931,176.895 430.6371,174.66 436.5651,180 C484.3541,223.051 496.4761,303.254 499.5381,343.361 " fill="none" id="Disc-backto-Catalogue" style="stroke: #A80036; stroke-width: 1.0;"/><line style="stroke: #A80036; stroke-width: 1.0;" x1="92.1021" x2="98.1888" y1="335.2285" y2="343.1626"/><line style="stroke: #A80036; stroke-width: 1.0;" x1="92.1021" x2="86.1895" y1="335.2285" y2="343.2934"/><line style="stroke: #A80036; stroke-width: 1.0;" x1="92.1021" x2="92.1892" y1="335.2285" y2="343.228"/><ellipse cx="92.0367" cy="329.2288" fill="none" rx="4" ry="4" style="stroke: #A80036; stroke-width: 1.0;"/><!--MD5=[ef9d80dd21624526eb3c0002e8578579]
reverse link Disc to Band--><path codeLine="17" d="M92.1013,335.033 C92.0891,293.191 98.7311,220.969 140.5651,180 C146.2651,174.418 150.1371,176.895 158.0651,176 C176.3041,173.942 227.3871,167.223 240.5651,180 C285.6151,223.679 291.0321,303.229 290.6531,343.203 " fill="none" id="Disc-backto-Band" style="stroke: #A80036; stroke-width: 1.0;"/><line style="stroke: #A80036; stroke-width: 1.0;" x1="92.1021" x2="98.1888" y1="335.2285" y2="343.1626"/><line style="stroke: #A80036; stroke-width: 1.0;" x1="92.1021" x2="86.1895" y1="335.2285" y2="343.2934"/><line style="stroke: #A80036; stroke-width: 1.0;" x1="92.1021" x2="92.1892" y1="335.2285" y2="343.228"/><ellipse cx="92.0367" cy="329.2288" fill="none" rx="4" ry="4" style="stroke: #A80036; stroke-width: 1.0;"/><!--MD5=[c6bdb9c7c55e24f25d1e143e82c3547c]
link Band to Artist--><path codeLine="18" d="M320.5731,367.5 C329.6811,367.5 338.7891,367.5 347.8971,367.5 " fill="none" id="Band-to-Artist" style="stroke: #A80036; stroke-width: 1.0;"/><line style="stroke: #A80036; stroke-width: 1.0;" x1="347.9011" x2="355.9011" y1="367.5" y2="361.5"/><line style="stroke: #A80036; stroke-width: 1.0;" x1="347.9011" x2="355.9011" y1="367.5" y2="373.5"/><line style="stroke: #A80036; stroke-width: 1.0;" x1="347.9011" x2="355.9011" y1="367.5" y2="367.5"/><ellipse cx="341.9011" cy="367.5" fill="none" rx="4" ry="4" style="stroke: #A80036; stroke-width: 1.0;"/><!--MD5=[2a78be52f5059352e0709b4500888082]
link Disc to Track--><path codeLine="19" d="M122.7411,367.5 C131.7341,367.5 140.7261,367.5 149.7191,367.5 " fill="none" id="Disc-to-Track" style="stroke: #A80036; stroke-width: 1.0;"/><line style="stroke: #A80036; stroke-width: 1.0;" x1="149.9781" x2="157.9781" y1="367.5" y2="361.5"/><line style="stroke: #A80036; stroke-width: 1.0;" x1="149.9781" x2="157.9781" y1="367.5" y2="373.5"/><line style="stroke: #A80036; stroke-width: 1.0;" x1="149.9781" x2="157.9781" y1="367.5" y2="367.5"/><line style="stroke: #A80036; stroke-width: 1.0;" x1="147.9781" x2="147.9781" y1="363.5" y2="371.5"/><!--MD5=[e181474707a2cbf31c95e0a2e4c024a1]
link Front to Controller--><path d="M323.5651,59.245 C323.5651,75.496 323.5651,96.579 323.5651,113.714 " fill="none" id="Front-to-Controller" style="stroke: #A80036; stroke-width: 1.0;"/><polygon fill="#A80036" points="323.5651,118.895,327.5651,109.895,323.5651,113.895,319.5651,109.895,323.5651,118.895" style="stroke: #A80036; stroke-width: 1.0;"/><!--MD5=[7a25e1c0cf9f57ccf31195bd84e79339]
link Controller to Model--><path d="M272.9921,149.286 C197.8761,153.921 63.9703,164.288 48.5651,180 C19.855,209.281 14.8036,254.9178 17.077,293.7169 C17.6453,303.4167 18.6714,312.6891 19.9001,321.1718 C20.2073,323.2924 20.5271,325.3637 20.8556,327.38 C21.0199,328.3882 21.1863,329.3826 21.3544,330.3625 C21.3964,330.6075 21.4386,330.8516 21.4808,331.0947 " fill="none" id="Controller-to-Model" style="stroke: #A80036; stroke-width: 1.0;"/><polygon fill="#A80036" points="21.4808,331.0947,23.8821,321.5431,20.6254,326.1684,16,322.9117,21.4808,331.0947" style="stroke: #A80036; stroke-width: 1.0;"/><!--MD5=[d35272574b800222654b7e833a13db19]
link Controller to Services--><path d="M374.2371,147.347 C435.8711,149.417 535.1001,156.433 562.5651,180 C578.7283,193.8695 590.3277,212.2074 598.6306,231.9745 C602.7821,241.8581 606.1094,252.0989 608.7711,262.3171 C609.1038,263.5944 609.4261,264.8713 609.7383,266.1472 C609.8944,266.7851 610.048,267.4227 610.1991,268.06 C610.2746,268.3786 610.3495,268.6972 610.4239,269.0156 " fill="none" id="Controller-to-Services" style="stroke: #A80036; stroke-width: 1.0;"/><polygon fill="#A80036" points="610.4239,269.0156,612.2739,259.3421,609.2876,264.1464,604.4832,261.1601,610.4239,269.0156" style="stroke: #A80036; stroke-width: 1.0;"/><!--MD5=[d3cfa2792ecd7a7ce90ec423c2c8f02c]
link ApiS to apiProvider--><path codeLine="57" d="M1003.5651,418.2197 C1003.5651,418.6544 1003.5651,419.0904 1003.5651,419.5277 C1003.5651,420.4024 1003.5651,421.2824 1003.5651,422.1672 C1003.5651,450.4799 1003.5651,483.697 1003.5651,505.1452 " fill="none" id="ApiS-to-apiProvider" style="stroke: #A80036; stroke-width: 1.0;"/><polygon fill="#A80036" points="1003.5651,510.3804,1007.5651,501.3804,1003.5651,505.3804,999.5651,501.3804,1003.5651,510.3804" style="stroke: #A80036; stroke-width: 1.0;"/><!--MD5=[57a3dd954df3db68727a8ef99555961e]
link Model to DB--><path codeLine="58" d="M29.5651,416.0776 C29.5651,416.285 29.5651,416.4928 29.5651,416.7009 C29.5651,417.5333 29.5651,418.3712 29.5651,419.214 C29.5651,446.1855 29.5651,478.2675 29.5651,500.4759 " fill="none" id="Model-to-DB" style="stroke: #A80036; stroke-width: 1.0;"/><polygon fill="#A80036" points="29.5651,505.6887,33.5651,496.6887,29.5651,500.6887,25.5651,496.6887,29.5651,505.6887" style="stroke: #A80036; stroke-width: 1.0;"/><!--MD5=[ba4fc651623301679d27474685ada67a]
@startuml
allowmixing

package "View JavaFX" as Front {

}

package "Model" as Model{
'Entities definition
 class Disc
 class Catalogue
 class Artist
 class Band
 class Track

'Relationships
  Disc }o- Catalogue
  Disc }o- Band
  Band -o{ Artist
  Disc -|{ Track
}

package Controller as Controller {

}

package "Services" as Services {

  package CatalogueService as CatalogueS{

  }

  package MetadataRetrievalServices as MetaS {

    package ApiService as ApiS{

      package APItoProviderA{
      }
      package APItoProviderB{
      }
    }
    package CdMetadata as CDMetaS{
    }
  }

}

database DB [
  DB
]

storage "Api Provider <&cloud>" as apiProvider

'Dependencies
Front - -> Controller
Controller - -> Model
Controller - -> Services
ApiS - -> apiProvider
Model - -> DB
@enduml

@startuml
allowmixing

package "View JavaFX" as Front {

}

package "Model" as Model{
 class Disc
 class Catalogue
 class Artist
 class Band
 class Track

  Disc }o- Catalogue
  Disc }o- Band
  Band -o{ Artist
  Disc -|{ Track
}

package Controller as Controller {

}

package "Services" as Services {

  package CatalogueService as CatalogueS{

  }

  package MetadataRetrievalServices as MetaS {

    package ApiService as ApiS{

      package APItoProviderA{
      }
      package APItoProviderB{
      }
    }
    package CdMetadata as CDMetaS{
    }
  }

}

database DB [
  DB
]

storage "Api Provider <&cloud>" as apiProvider

Front - -> Controller
Controller - -> Model
Controller - -> Services
ApiS - -> apiProvider
Model - -> DB
@enduml

PlantUML version 1.2020.16(Sun Aug 23 20:20:43 UTC 2020)
(GPL source distribution)
Java Runtime: Java(TM) SE Runtime Environment
JVM: Java HotSpot(TM) 64-Bit Server VM
Default Encoding: UTF-8
Language: en
Country: US
--></g></svg>