<?xml version="1.0" encoding="UTF-8" standalone="no"?><svg xmlns="http://www.w3.org/2000/svg" xmlns:xlink="http://www.w3.org/1999/xlink" contentScriptType="application/ecmascript" contentStyleType="text/css" height="314px" preserveAspectRatio="none" style="width:507px;height:314px;" version="1.1" viewBox="0 0 507 314" width="507px" zoomAndPan="magnify"><defs/><g><rect fill="#DDDDDD" height="14.9688" style="stroke: #000000; stroke-width: 1.0;" width="494" x="6" y="6"/><text fill="#000000" font-family="sans-serif" font-size="12" lengthAdjust="spacingAndGlyphs" textLength="21" x="6" y="17.1387">File</text><text fill="#000000" font-family="sans-serif" font-size="12" lengthAdjust="spacingAndGlyphs" textLength="22" x="37" y="17.1387">Edit</text><text fill="#000000" font-family="sans-serif" font-size="12" lengthAdjust="spacingAndGlyphs" textLength="39" x="69" y="17.1387">Import</text><line style="stroke: #AAAAAA; stroke-width: 1.0;" x1="6" x2="500" y1="25.4688" y2="25.4688"/><text fill="#000000" font-family="sans-serif" font-size="12" lengthAdjust="spacingAndGlyphs" textLength="88" x="7" y="42.1074">My Catalogues</text><text fill="#000000" font-family="sans-serif" font-size="12" lengthAdjust="spacingAndGlyphs" textLength="180" x="138" y="42.1074">Current Disc: LP 1                  .</text><text fill="#000000" font-family="sans-serif" font-size="12" lengthAdjust="spacingAndGlyphs" textLength="178" x="320" y="42.1074">Smart search:"Enter search  "</text><text fill="#000000" font-family="sans-serif" font-size="12" lengthAdjust="spacingAndGlyphs" textLength="67" x="17" y="58.0762">Catalogues</text><text fill="#000000" font-family="sans-serif" font-size="12" lengthAdjust="spacingAndGlyphs" textLength="107" x="27" y="72.0449">Catalogue 1 : CDs</text><text fill="#000000" font-family="sans-serif" font-size="12" lengthAdjust="spacingAndGlyphs" textLength="38" x="37" y="86.0137">Disc A</text><text fill="#000000" font-family="sans-serif" font-size="12" lengthAdjust="spacingAndGlyphs" textLength="38" x="37" y="99.9824">Disc B</text><text fill="#000000" font-family="sans-serif" font-size="12" lengthAdjust="spacingAndGlyphs" textLength="38" x="37" y="113.9512">Disc C</text><text fill="#000000" font-family="sans-serif" font-size="12" lengthAdjust="spacingAndGlyphs" textLength="96" x="27" y="127.9199">Catalogue 2 : LP</text><text fill="#000000" font-family="sans-serif" font-size="12" lengthAdjust="spacingAndGlyphs" textLength="23" x="37" y="141.8887">LP 1</text><text fill="#000000" font-family="sans-serif" font-size="12" lengthAdjust="spacingAndGlyphs" textLength="24" x="37" y="155.8574">LP 2</text><text fill="#000000" font-family="sans-serif" font-size="12" lengthAdjust="spacingAndGlyphs" textLength="60" x="27" y="169.8262">Cassettes</text><text fill="#000000" font-family="sans-serif" font-size="12" lengthAdjust="spacingAndGlyphs" textLength="64" x="37" y="183.7949">Cassette 1</text><text fill="#000000" font-family="sans-serif" font-size="12" lengthAdjust="spacingAndGlyphs" textLength="65" x="37" y="197.7637">Cassette 2</text><rect fill="none" height="2" style="stroke: #888888; stroke-width: 1.0;" width="2" x="10" y="52.9219"/><rect fill="none" height="2" style="stroke: #888888; stroke-width: 1.0;" width="2" x="20" y="66.8906"/><line style="stroke: #888888; stroke-width: 1.0;" x1="11" x2="11" y1="55.9219" y2="67.8906"/><line style="stroke: #888888; stroke-width: 1.0;" x1="11" x2="19" y1="67.8906" y2="67.8906"/><line style="stroke: #888888; stroke-width: 1.0;" x1="21" x2="21" y1="69.8906" y2="81.8594"/><line style="stroke: #888888; stroke-width: 1.0;" x1="21" x2="29" y1="81.8594" y2="81.8594"/><line style="stroke: #888888; stroke-width: 1.0;" x1="21" x2="21" y1="69.8906" y2="95.8281"/><line style="stroke: #888888; stroke-width: 1.0;" x1="21" x2="29" y1="95.8281" y2="95.8281"/><line style="stroke: #888888; stroke-width: 1.0;" x1="21" x2="21" y1="69.8906" y2="109.7969"/><line style="stroke: #888888; stroke-width: 1.0;" x1="21" x2="29" y1="109.7969" y2="109.7969"/><rect fill="none" height="2" style="stroke: #888888; stroke-width: 1.0;" width="2" x="20" y="122.7656"/><line style="stroke: #888888; stroke-width: 1.0;" x1="11" x2="11" y1="55.9219" y2="123.7656"/><line style="stroke: #888888; stroke-width: 1.0;" x1="11" x2="19" y1="123.7656" y2="123.7656"/><line style="stroke: #888888; stroke-width: 1.0;" x1="21" x2="21" y1="125.7656" y2="137.7344"/><line style="stroke: #888888; stroke-width: 1.0;" x1="21" x2="29" y1="137.7344" y2="137.7344"/><line style="stroke: #888888; stroke-width: 1.0;" x1="21" x2="21" y1="125.7656" y2="151.7031"/><line style="stroke: #888888; stroke-width: 1.0;" x1="21" x2="29" y1="151.7031" y2="151.7031"/><rect fill="none" height="2" style="stroke: #888888; stroke-width: 1.0;" width="2" x="20" y="164.6719"/><line style="stroke: #888888; stroke-width: 1.0;" x1="11" x2="11" y1="55.9219" y2="165.6719"/><line style="stroke: #888888; stroke-width: 1.0;" x1="11" x2="19" y1="165.6719" y2="165.6719"/><line style="stroke: #888888; stroke-width: 1.0;" x1="21" x2="21" y1="167.6719" y2="179.6406"/><line style="stroke: #888888; stroke-width: 1.0;" x1="21" x2="29" y1="179.6406" y2="179.6406"/><line style="stroke: #888888; stroke-width: 1.0;" x1="21" x2="21" y1="167.6719" y2="193.6094"/><line style="stroke: #888888; stroke-width: 1.0;" x1="21" x2="29" y1="193.6094" y2="193.6094"/><text fill="#000000" font-family="sans-serif" font-size="12" lengthAdjust="spacingAndGlyphs" textLength="19" x="149" y="59.0762">LP1</text><text fill="#000000" font-family="sans-serif" font-size="12" lengthAdjust="spacingAndGlyphs" textLength="40" x="159" y="73.0449">Track1</text><text fill="#000000" font-family="sans-serif" font-size="12" lengthAdjust="spacingAndGlyphs" textLength="41" x="159" y="87.0137">Track2</text><text fill="#000000" font-family="sans-serif" font-size="12" lengthAdjust="spacingAndGlyphs" textLength="41" x="159" y="100.9824">Track3</text><text fill="#000000" font-family="sans-serif" font-size="12" lengthAdjust="spacingAndGlyphs" textLength="41" x="159" y="114.9512">Track4</text><rect fill="none" height="2" style="stroke: #888888; stroke-width: 1.0;" width="2" x="142" y="53.9219"/><line style="stroke: #888888; stroke-width: 1.0;" x1="143" x2="143" y1="56.9219" y2="68.8906"/><line style="stroke: #888888; stroke-width: 1.0;" x1="143" x2="151" y1="68.8906" y2="68.8906"/><line style="stroke: #888888; stroke-width: 1.0;" x1="143" x2="143" y1="56.9219" y2="82.8594"/><line style="stroke: #888888; stroke-width: 1.0;" x1="143" x2="151" y1="82.8594" y2="82.8594"/><line style="stroke: #888888; stroke-width: 1.0;" x1="143" x2="143" y1="56.9219" y2="96.8281"/><line style="stroke: #888888; stroke-width: 1.0;" x1="143" x2="151" y1="96.8281" y2="96.8281"/><line style="stroke: #888888; stroke-width: 1.0;" x1="143" x2="143" y1="56.9219" y2="110.7969"/><line style="stroke: #888888; stroke-width: 1.0;" x1="143" x2="151" y1="110.7969" y2="110.7969"/><line style="stroke: #AAAAAA; stroke-width: 1.0;" x1="139" x2="262" y1="123.2813" y2="123.2813"/><text fill="#000000" font-family="sans-serif" font-size="12" lengthAdjust="spacingAndGlyphs" textLength="40" x="149" y="138.9199">Track1</text><text fill="#000000" font-family="sans-serif" font-size="12" lengthAdjust="spacingAndGlyphs" textLength="25" x="159" y="152.8887">Title</text><text fill="#000000" font-family="sans-serif" font-size="12" lengthAdjust="spacingAndGlyphs" textLength="50" x="159" y="166.8574">Duration</text><text fill="#000000" font-family="sans-serif" font-size="12" lengthAdjust="spacingAndGlyphs" textLength="64" x="159" y="180.8262">Comments</text><rect fill="none" height="2" style="stroke: #888888; stroke-width: 1.0;" width="2" x="142" y="133.7656"/><line style="stroke: #888888; stroke-width: 1.0;" x1="143" x2="143" y1="136.7656" y2="148.7344"/><line style="stroke: #888888; stroke-width: 1.0;" x1="143" x2="151" y1="148.7344" y2="148.7344"/><line style="stroke: #888888; stroke-width: 1.0;" x1="143" x2="143" y1="136.7656" y2="162.7031"/><line style="stroke: #888888; stroke-width: 1.0;" x1="143" x2="151" y1="162.7031" y2="162.7031"/><line style="stroke: #888888; stroke-width: 1.0;" x1="143" x2="143" y1="136.7656" y2="176.6719"/><line style="stroke: #888888; stroke-width: 1.0;" x1="143" x2="151" y1="176.6719" y2="176.6719"/><line style="stroke: #AAAAAA; stroke-width: 1.0;" x1="139" x2="262" y1="189.1563" y2="189.1563"/><text fill="#000000" font-family="sans-serif" font-size="12" lengthAdjust="spacingAndGlyphs" textLength="97" x="149" y="204.7949">Disc Information</text><text fill="#000000" font-family="sans-serif" font-size="12" lengthAdjust="spacingAndGlyphs" textLength="25" x="159" y="218.7637">Title</text><text fill="#000000" font-family="sans-serif" font-size="12" lengthAdjust="spacingAndGlyphs" textLength="27" x="159" y="232.7324">Year</text><text fill="#000000" font-family="sans-serif" font-size="12" lengthAdjust="spacingAndGlyphs" textLength="30" x="159" y="246.7012">Band</text><text fill="#000000" font-family="sans-serif" font-size="12" lengthAdjust="spacingAndGlyphs" textLength="31" x="159" y="260.6699">Artist</text><text fill="#000000" font-family="sans-serif" font-size="12" lengthAdjust="spacingAndGlyphs" textLength="89" x="169" y="274.6387">Artist 1: Singer</text><text fill="#000000" font-family="sans-serif" font-size="12" lengthAdjust="spacingAndGlyphs" textLength="90" x="169" y="288.6074">Artist 2: Drums</text><text fill="#000000" font-family="sans-serif" font-size="12" lengthAdjust="spacingAndGlyphs" textLength="64" x="159" y="302.5762">Comments</text><rect fill="none" height="2" style="stroke: #888888; stroke-width: 1.0;" width="2" x="142" y="199.6406"/><line style="stroke: #888888; stroke-width: 1.0;" x1="143" x2="143" y1="202.6406" y2="214.6094"/><line style="stroke: #888888; stroke-width: 1.0;" x1="143" x2="151" y1="214.6094" y2="214.6094"/><line style="stroke: #888888; stroke-width: 1.0;" x1="143" x2="143" y1="202.6406" y2="228.5781"/><line style="stroke: #888888; stroke-width: 1.0;" x1="143" x2="151" y1="228.5781" y2="228.5781"/><line style="stroke: #888888; stroke-width: 1.0;" x1="143" x2="143" y1="202.6406" y2="242.5469"/><line style="stroke: #888888; stroke-width: 1.0;" x1="143" x2="151" y1="242.5469" y2="242.5469"/><rect fill="none" height="2" style="stroke: #888888; stroke-width: 1.0;" width="2" x="152" y="255.5156"/><line style="stroke: #888888; stroke-width: 1.0;" x1="143" x2="143" y1="202.6406" y2="256.5156"/><line style="stroke: #888888; stroke-width: 1.0;" x1="143" x2="151" y1="256.5156" y2="256.5156"/><line style="stroke: #888888; stroke-width: 1.0;" x1="153" x2="153" y1="258.5156" y2="270.4844"/><line style="stroke: #888888; stroke-width: 1.0;" x1="153" x2="161" y1="270.4844" y2="270.4844"/><line style="stroke: #888888; stroke-width: 1.0;" x1="153" x2="153" y1="258.5156" y2="284.4531"/><line style="stroke: #888888; stroke-width: 1.0;" x1="153" x2="161" y1="284.4531" y2="284.4531"/><line style="stroke: #888888; stroke-width: 1.0;" x1="143" x2="143" y1="202.6406" y2="298.4219"/><line style="stroke: #888888; stroke-width: 1.0;" x1="143" x2="151" y1="298.4219" y2="298.4219"/><text fill="#000000" font-family="sans-serif" font-size="12" lengthAdjust="spacingAndGlyphs" textLength="93" x="321" y="59.0762">Search Results:</text><text fill="#000000" font-family="sans-serif" font-size="12" lengthAdjust="spacingAndGlyphs" textLength="47" x="331" y="75.0449">Result 1</text><text fill="#000000" font-family="sans-serif" font-size="12" lengthAdjust="spacingAndGlyphs" textLength="48" x="331" y="89.0137">Result 2</text><text fill="#000000" font-family="sans-serif" font-size="12" lengthAdjust="spacingAndGlyphs" textLength="48" x="331" y="102.9824">Result 3</text><line style="stroke: #000000; stroke-width: 1.0;" x1="6" x2="137" y1="29.9688" y2="29.9688"/><line style="stroke: #000000; stroke-width: 1.0;" x1="319" x2="499" y1="307.4063" y2="307.4063"/><line style="stroke: #000000; stroke-width: 1.0;" x1="137" x2="319" y1="45.9375" y2="45.9375"/><line style="stroke: #000000; stroke-width: 1.0;" x1="137" x2="319" y1="29.9688" y2="29.9688"/><line style="stroke: #000000; stroke-width: 1.0;" x1="319" x2="499" y1="45.9375" y2="45.9375"/><line style="stroke: #000000; stroke-width: 1.0;" x1="319" x2="499" y1="29.9688" y2="29.9688"/><line style="stroke: #000000; stroke-width: 1.0;" x1="6" x2="137" y1="307.4063" y2="307.4063"/><line style="stroke: #000000; stroke-width: 1.0;" x1="137" x2="319" y1="307.4063" y2="307.4063"/><line style="stroke: #000000; stroke-width: 1.0;" x1="6" x2="137" y1="45.9375" y2="45.9375"/><line style="stroke: #000000; stroke-width: 1.0;" x1="6" x2="6" y1="29.9688" y2="45.9375"/><line style="stroke: #000000; stroke-width: 1.0;" x1="137" x2="137" y1="45.9375" y2="307.4063"/><line style="stroke: #000000; stroke-width: 1.0;" x1="137" x2="137" y1="29.9688" y2="45.9375"/><line style="stroke: #000000; stroke-width: 1.0;" x1="319" x2="319" y1="45.9375" y2="307.4063"/><line style="stroke: #000000; stroke-width: 1.0;" x1="499" x2="499" y1="45.9375" y2="307.4063"/><line style="stroke: #000000; stroke-width: 1.0;" x1="319" x2="319" y1="29.9688" y2="45.9375"/><line style="stroke: #000000; stroke-width: 1.0;" x1="499" x2="499" y1="29.9688" y2="45.9375"/><line style="stroke: #000000; stroke-width: 1.0;" x1="6" x2="6" y1="45.9375" y2="307.4063"/><!--MD5=[3cfec272a3eb84573d34dbc20b1a0631]
@startuml
salt
{
    {* File | Edit | Import}
    - -
    {#
    My Catalogues | Current Disc: LP 1                  .| Smart search:"Enter search  "
        {T
         + Catalogues
          ++ Catalogue 1 : CDs
           +++ Disc A
           +++ Disc B
           +++ Disc C
          ++ Catalogue 2 : LP
           +++ LP 1
           +++ LP 2
          ++ Cassettes
           +++ Cassette 1
           +++ Cassette 2
        } | {
              {T
                + LP1
                ++ Track1
                ++ Track2
                ++ Track3
                ++ Track4
              }
             - -
             {T
               +Track1
                ++ Title
                ++ Duration
                ++ Comments
             }
             - -
             {T
               +Disc Information
                ++ Title
                ++ Year
                ++ Band
                ++ Artist
                 +++ Artist 1: Singer
                 +++ Artist 2: Drums
                ++ Comments
             }

           } | { Search Results:
              {T
                + Result 1
                + Result 2
                + Result 3
              }
             }
    }

}
@enduml

PlantUML version 1.2020.16(Sun Aug 23 20:20:43 UTC 2020)
(GPL source distribution)
Java Runtime: Java(TM) SE Runtime Environment
JVM: Java HotSpot(TM) 64-Bit Server VM
Default Encoding: UTF-8
Language: en
Country: US
--></g></svg>