<?xml version="1.0" encoding="UTF-8" standalone="no"?><svg xmlns="http://www.w3.org/2000/svg" xmlns:xlink="http://www.w3.org/1999/xlink" contentScriptType="application/ecmascript" contentStyleType="text/css" height="623px" preserveAspectRatio="none" style="width:885px;height:623px;" version="1.1" viewBox="0 0 885 623" width="885px" zoomAndPan="magnify"><defs><filter height="300%" id="f1644ztunhewvm" width="300%" x="-1" y="-1"><feGaussianBlur result="blurOut" stdDeviation="2.0"/><feColorMatrix in="blurOut" result="blurOut2" type="matrix" values="0 0 0 0 0 0 0 0 0 0 0 0 0 0 0 0 0 0 .4 0"/><feOffset dx="4.0" dy="4.0" in="blurOut2" result="blurOut3"/><feBlend in="SourceGraphic" in2="blurOut3" mode="normal"/></filter></defs><g><!--MD5=[86cbce8df1eb9d604fbbb2fa357940f8]
cluster view--><polygon fill="#FFFFFF" filter="url(#f1644ztunhewvm)" points="168.9338,6,210.9338,6,217.9338,28.2969,275.9338,28.2969,275.9338,188,168.9338,188,168.9338,6" style="stroke: #000000; stroke-width: 1.5;"/><line style="stroke: #000000; stroke-width: 1.5;" x1="168.9338" x2="217.9338" y1="28.2969" y2="28.2969"/><text fill="#000000" font-family="sans-serif" font-size="14" font-weight="bold" lengthAdjust="spacingAndGlyphs" textLength="36" x="172.9338" y="20.9951">view</text><!--MD5=[5d4cd377749310b66bf14896f5cd8d9b]
cluster model--><polygon fill="#FFFFFF" filter="url(#f1644ztunhewvm)" points="732.9338,394,787.9338,394,794.9338,416.2969,863.9338,416.2969,863.9338,611,732.9338,611,732.9338,394" style="stroke: #000000; stroke-width: 1.5;"/><line style="stroke: #000000; stroke-width: 1.5;" x1="732.9338" x2="794.9338" y1="416.2969" y2="416.2969"/><text fill="#000000" font-family="sans-serif" font-size="14" font-weight="bold" lengthAdjust="spacingAndGlyphs" textLength="49" x="736.9338" y="408.9951">model</text><!--MD5=[10ea673caf457862023e152271927b45]
cluster controller--><polygon fill="#FFFFFF" filter="url(#f1644ztunhewvm)" points="145.9338,220,231.9338,220,238.9338,242.2969,636.9338,242.2969,636.9338,354,145.9338,354,145.9338,220" style="stroke: #000000; stroke-width: 1.5;"/><line style="stroke: #000000; stroke-width: 1.5;" x1="145.9338" x2="238.9338" y1="242.2969" y2="242.2969"/><text fill="#000000" font-family="sans-serif" font-size="14" font-weight="bold" lengthAdjust="spacingAndGlyphs" textLength="80" x="149.9338" y="234.9951">controller</text><!--MD5=[7579d5565d2521d5936cec86ed3dadee]
cluster service--><polygon fill="#FFFFFF" filter="url(#f1644ztunhewvm)" points="436.9338,394,673.9338,394,680.9338,416.2969,683.9338,416.2969,683.9338,611,436.9338,611,436.9338,394" style="stroke: #000000; stroke-width: 1.5;"/><line style="stroke: #000000; stroke-width: 1.5;" x1="436.9338" x2="680.9338" y1="416.2969" y2="416.2969"/><text fill="#000000" font-family="sans-serif" font-size="14" font-weight="bold" lengthAdjust="spacingAndGlyphs" textLength="231" x="440.9338" y="408.9951">DataService:@Transactional</text><!--MD5=[d2db25f03c88efa916926cce85267dc0]
class View_A--><rect codeLine="3" fill="#FEFECE" filter="url(#f1644ztunhewvm)" height="48" id="View_A" style="stroke: #A80036; stroke-width: 1.5;" width="75" x="184.9338" y="41"/><ellipse cx="199.9338" cy="57" fill="#ADD1B2" rx="11" ry="11" style="stroke: #A80036; stroke-width: 1.0;"/><path d="M202.2776,52.6719 C201.3401,52.2344 200.7463,52.0938 199.8713,52.0938 C197.2463,52.0938 195.2463,54.1719 195.2463,56.8906 L195.2463,58.0156 C195.2463,60.5938 197.3557,62.4844 200.2463,62.4844 C201.4651,62.4844 202.6213,62.1875 203.3713,61.6406 C203.9494,61.2344 204.2776,60.7813 204.2776,60.3906 C204.2776,59.9375 203.8869,59.5469 203.4182,59.5469 C203.1994,59.5469 202.9963,59.625 202.8088,59.8125 C202.3557,60.2969 202.3557,60.2969 202.1682,60.3906 C201.7463,60.6563 201.0588,60.7813 200.2932,60.7813 C198.2463,60.7813 196.9494,59.6875 196.9494,57.9844 L196.9494,56.8906 C196.9494,55.1094 198.1994,53.7969 199.9338,53.7969 C200.5119,53.7969 201.1213,53.9531 201.5901,54.2031 C202.0744,54.4844 202.2463,54.7031 202.3401,55.1094 C202.4026,55.5156 202.4338,55.6406 202.5744,55.7656 C202.7151,55.9063 202.9494,56.0156 203.1682,56.0156 C203.4338,56.0156 203.6994,55.875 203.8713,55.6563 C203.9807,55.5 204.0119,55.3125 204.0119,54.8906 L204.0119,53.4688 C204.0119,53.0313 203.9963,52.9063 203.9026,52.75 C203.7463,52.4844 203.4651,52.3438 203.1682,52.3438 C202.8713,52.3438 202.6682,52.4375 202.4494,52.75 L202.2776,52.6719 Z "/><text fill="#000000" font-family="sans-serif" font-size="12" lengthAdjust="spacingAndGlyphs" textLength="43" x="213.9338" y="61.1543">View_A</text><line style="stroke: #A80036; stroke-width: 1.5;" x1="185.9338" x2="258.9338" y1="73" y2="73"/><line style="stroke: #A80036; stroke-width: 1.5;" x1="185.9338" x2="258.9338" y1="81" y2="81"/><!--MD5=[3dd8c1480316dd1002d7417e87987353]
class View_B--><rect codeLine="4" fill="#FEFECE" filter="url(#f1644ztunhewvm)" height="48" id="View_B" style="stroke: #A80036; stroke-width: 1.5;" width="75" x="184.9338" y="124"/><ellipse cx="199.9338" cy="140" fill="#ADD1B2" rx="11" ry="11" style="stroke: #A80036; stroke-width: 1.0;"/><path d="M202.2776,135.6719 C201.3401,135.2344 200.7463,135.0938 199.8713,135.0938 C197.2463,135.0938 195.2463,137.1719 195.2463,139.8906 L195.2463,141.0156 C195.2463,143.5938 197.3557,145.4844 200.2463,145.4844 C201.4651,145.4844 202.6213,145.1875 203.3713,144.6406 C203.9494,144.2344 204.2776,143.7813 204.2776,143.3906 C204.2776,142.9375 203.8869,142.5469 203.4182,142.5469 C203.1994,142.5469 202.9963,142.625 202.8088,142.8125 C202.3557,143.2969 202.3557,143.2969 202.1682,143.3906 C201.7463,143.6563 201.0588,143.7813 200.2932,143.7813 C198.2463,143.7813 196.9494,142.6875 196.9494,140.9844 L196.9494,139.8906 C196.9494,138.1094 198.1994,136.7969 199.9338,136.7969 C200.5119,136.7969 201.1213,136.9531 201.5901,137.2031 C202.0744,137.4844 202.2463,137.7031 202.3401,138.1094 C202.4026,138.5156 202.4338,138.6406 202.5744,138.7656 C202.7151,138.9063 202.9494,139.0156 203.1682,139.0156 C203.4338,139.0156 203.6994,138.875 203.8713,138.6563 C203.9807,138.5 204.0119,138.3125 204.0119,137.8906 L204.0119,136.4688 C204.0119,136.0313 203.9963,135.9063 203.9026,135.75 C203.7463,135.4844 203.4651,135.3438 203.1682,135.3438 C202.8713,135.3438 202.6682,135.4375 202.4494,135.75 L202.2776,135.6719 Z "/><text fill="#000000" font-family="sans-serif" font-size="12" lengthAdjust="spacingAndGlyphs" textLength="43" x="213.9338" y="144.1543">View_B</text><line style="stroke: #A80036; stroke-width: 1.5;" x1="185.9338" x2="258.9338" y1="156" y2="156"/><line style="stroke: #A80036; stroke-width: 1.5;" x1="185.9338" x2="258.9338" y1="164" y2="164"/><!--MD5=[6369dc55f225b1d1585e0bc0334da8a0]
class Model_X--><rect codeLine="8" fill="#FEFECE" filter="url(#f1644ztunhewvm)" height="48" id="Model_X" style="stroke: #A80036; stroke-width: 1.5;" width="83" x="756.9338" y="437"/><ellipse cx="771.9338" cy="453" fill="#ADD1B2" rx="11" ry="11" style="stroke: #A80036; stroke-width: 1.0;"/><path d="M774.2776,448.6719 C773.3401,448.2344 772.7463,448.0938 771.8713,448.0938 C769.2463,448.0938 767.2463,450.1719 767.2463,452.8906 L767.2463,454.0156 C767.2463,456.5938 769.3557,458.4844 772.2463,458.4844 C773.4651,458.4844 774.6213,458.1875 775.3713,457.6406 C775.9494,457.2344 776.2776,456.7813 776.2776,456.3906 C776.2776,455.9375 775.8869,455.5469 775.4182,455.5469 C775.1994,455.5469 774.9963,455.625 774.8088,455.8125 C774.3557,456.2969 774.3557,456.2969 774.1682,456.3906 C773.7463,456.6563 773.0588,456.7813 772.2932,456.7813 C770.2463,456.7813 768.9494,455.6875 768.9494,453.9844 L768.9494,452.8906 C768.9494,451.1094 770.1994,449.7969 771.9338,449.7969 C772.5119,449.7969 773.1213,449.9531 773.5901,450.2031 C774.0744,450.4844 774.2463,450.7031 774.3401,451.1094 C774.4026,451.5156 774.4338,451.6406 774.5744,451.7656 C774.7151,451.9063 774.9494,452.0156 775.1682,452.0156 C775.4338,452.0156 775.6994,451.875 775.8713,451.6563 C775.9807,451.5 776.0119,451.3125 776.0119,450.8906 L776.0119,449.4688 C776.0119,449.0313 775.9963,448.9063 775.9026,448.75 C775.7463,448.4844 775.4651,448.3438 775.1682,448.3438 C774.8713,448.3438 774.6682,448.4375 774.4494,448.75 L774.2776,448.6719 Z "/><text fill="#000000" font-family="sans-serif" font-size="12" lengthAdjust="spacingAndGlyphs" textLength="51" x="785.9338" y="457.1543">Model_X</text><line style="stroke: #A80036; stroke-width: 1.5;" x1="757.9338" x2="838.9338" y1="469" y2="469"/><line style="stroke: #A80036; stroke-width: 1.5;" x1="757.9338" x2="838.9338" y1="477" y2="477"/><!--MD5=[7b2ada24873265bbc799abed43dd24b8]
class Model_Y--><rect codeLine="9" fill="#FEFECE" filter="url(#f1644ztunhewvm)" height="48" id="Model_Y" style="stroke: #A80036; stroke-width: 1.5;" width="82" x="757.4338" y="520"/><ellipse cx="772.4338" cy="536" fill="#ADD1B2" rx="11" ry="11" style="stroke: #A80036; stroke-width: 1.0;"/><path d="M774.7776,531.6719 C773.8401,531.2344 773.2463,531.0938 772.3713,531.0938 C769.7463,531.0938 767.7463,533.1719 767.7463,535.8906 L767.7463,537.0156 C767.7463,539.5938 769.8557,541.4844 772.7463,541.4844 C773.9651,541.4844 775.1213,541.1875 775.8713,540.6406 C776.4494,540.2344 776.7776,539.7813 776.7776,539.3906 C776.7776,538.9375 776.3869,538.5469 775.9182,538.5469 C775.6994,538.5469 775.4963,538.625 775.3088,538.8125 C774.8557,539.2969 774.8557,539.2969 774.6682,539.3906 C774.2463,539.6563 773.5588,539.7813 772.7932,539.7813 C770.7463,539.7813 769.4494,538.6875 769.4494,536.9844 L769.4494,535.8906 C769.4494,534.1094 770.6994,532.7969 772.4338,532.7969 C773.0119,532.7969 773.6213,532.9531 774.0901,533.2031 C774.5744,533.4844 774.7463,533.7031 774.8401,534.1094 C774.9026,534.5156 774.9338,534.6406 775.0744,534.7656 C775.2151,534.9063 775.4494,535.0156 775.6682,535.0156 C775.9338,535.0156 776.1994,534.875 776.3713,534.6563 C776.4807,534.5 776.5119,534.3125 776.5119,533.8906 L776.5119,532.4688 C776.5119,532.0313 776.4963,531.9063 776.4026,531.75 C776.2463,531.4844 775.9651,531.3438 775.6682,531.3438 C775.3713,531.3438 775.1682,531.4375 774.9494,531.75 L774.7776,531.6719 Z "/><text fill="#000000" font-family="sans-serif" font-size="12" lengthAdjust="spacingAndGlyphs" textLength="50" x="786.4338" y="540.1543">Model_Y</text><line style="stroke: #A80036; stroke-width: 1.5;" x1="758.4338" x2="838.4338" y1="552" y2="552"/><line style="stroke: #A80036; stroke-width: 1.5;" x1="758.4338" x2="838.4338" y1="560" y2="560"/><!--MD5=[d7cfe77c617f182b172456eec7b76f81]
class Controller_A--><rect codeLine="12" fill="#FEFECE" filter="url(#f1644ztunhewvm)" height="48" id="Controller_A" style="stroke: #A80036; stroke-width: 1.5;" width="105" x="169.9338" y="263"/><ellipse cx="184.9338" cy="279" fill="#ADD1B2" rx="11" ry="11" style="stroke: #A80036; stroke-width: 1.0;"/><path d="M187.2776,274.6719 C186.3401,274.2344 185.7463,274.0938 184.8713,274.0938 C182.2463,274.0938 180.2463,276.1719 180.2463,278.8906 L180.2463,280.0156 C180.2463,282.5938 182.3557,284.4844 185.2463,284.4844 C186.4651,284.4844 187.6213,284.1875 188.3713,283.6406 C188.9494,283.2344 189.2776,282.7813 189.2776,282.3906 C189.2776,281.9375 188.8869,281.5469 188.4182,281.5469 C188.1994,281.5469 187.9963,281.625 187.8088,281.8125 C187.3557,282.2969 187.3557,282.2969 187.1682,282.3906 C186.7463,282.6563 186.0588,282.7813 185.2932,282.7813 C183.2463,282.7813 181.9494,281.6875 181.9494,279.9844 L181.9494,278.8906 C181.9494,277.1094 183.1994,275.7969 184.9338,275.7969 C185.5119,275.7969 186.1213,275.9531 186.5901,276.2031 C187.0744,276.4844 187.2463,276.7031 187.3401,277.1094 C187.4026,277.5156 187.4338,277.6406 187.5744,277.7656 C187.7151,277.9063 187.9494,278.0156 188.1682,278.0156 C188.4338,278.0156 188.6994,277.875 188.8713,277.6563 C188.9807,277.5 189.0119,277.3125 189.0119,276.8906 L189.0119,275.4688 C189.0119,275.0313 188.9963,274.9063 188.9026,274.75 C188.7463,274.4844 188.4651,274.3438 188.1682,274.3438 C187.8713,274.3438 187.6682,274.4375 187.4494,274.75 L187.2776,274.6719 Z "/><text fill="#000000" font-family="sans-serif" font-size="12" lengthAdjust="spacingAndGlyphs" textLength="73" x="198.9338" y="283.1543">Controller_A</text><line style="stroke: #A80036; stroke-width: 1.5;" x1="170.9338" x2="273.9338" y1="295" y2="295"/><line style="stroke: #A80036; stroke-width: 1.5;" x1="170.9338" x2="273.9338" y1="303" y2="303"/><!--MD5=[699a9244b506ba4a3d3290577588a53e]
class Controller_B--><rect codeLine="13" fill="#FEFECE" filter="url(#f1644ztunhewvm)" height="48" id="Controller_B" style="stroke: #A80036; stroke-width: 1.5;" width="105" x="507.9338" y="263"/><ellipse cx="522.9338" cy="279" fill="#ADD1B2" rx="11" ry="11" style="stroke: #A80036; stroke-width: 1.0;"/><path d="M525.2776,274.6719 C524.3401,274.2344 523.7463,274.0938 522.8713,274.0938 C520.2463,274.0938 518.2463,276.1719 518.2463,278.8906 L518.2463,280.0156 C518.2463,282.5938 520.3557,284.4844 523.2463,284.4844 C524.4651,284.4844 525.6213,284.1875 526.3713,283.6406 C526.9494,283.2344 527.2776,282.7813 527.2776,282.3906 C527.2776,281.9375 526.8869,281.5469 526.4182,281.5469 C526.1994,281.5469 525.9963,281.625 525.8088,281.8125 C525.3557,282.2969 525.3557,282.2969 525.1682,282.3906 C524.7463,282.6563 524.0588,282.7813 523.2932,282.7813 C521.2463,282.7813 519.9494,281.6875 519.9494,279.9844 L519.9494,278.8906 C519.9494,277.1094 521.1994,275.7969 522.9338,275.7969 C523.5119,275.7969 524.1213,275.9531 524.5901,276.2031 C525.0744,276.4844 525.2463,276.7031 525.3401,277.1094 C525.4026,277.5156 525.4338,277.6406 525.5744,277.7656 C525.7151,277.9063 525.9494,278.0156 526.1682,278.0156 C526.4338,278.0156 526.6994,277.875 526.8713,277.6563 C526.9807,277.5 527.0119,277.3125 527.0119,276.8906 L527.0119,275.4688 C527.0119,275.0313 526.9963,274.9063 526.9026,274.75 C526.7463,274.4844 526.4651,274.3438 526.1682,274.3438 C525.8713,274.3438 525.6682,274.4375 525.4494,274.75 L525.2776,274.6719 Z "/><text fill="#000000" font-family="sans-serif" font-size="12" lengthAdjust="spacingAndGlyphs" textLength="73" x="536.9338" y="283.1543">Controller_B</text><line style="stroke: #A80036; stroke-width: 1.5;" x1="508.9338" x2="611.9338" y1="295" y2="295"/><line style="stroke: #A80036; stroke-width: 1.5;" x1="508.9338" x2="611.9338" y1="303" y2="303"/><!--MD5=[dc2a571569c3a5ac8cf6b954befd58cd]
class service_T--><rect codeLine="17" fill="#FEFECE" filter="url(#f1644ztunhewvm)" height="48" id="service_T" style="stroke: #A80036; stroke-width: 1.5;" width="90" x="515.4338" y="437"/><ellipse cx="530.4338" cy="453" fill="#ADD1B2" rx="11" ry="11" style="stroke: #A80036; stroke-width: 1.0;"/><path d="M532.7776,448.6719 C531.8401,448.2344 531.2463,448.0938 530.3713,448.0938 C527.7463,448.0938 525.7463,450.1719 525.7463,452.8906 L525.7463,454.0156 C525.7463,456.5938 527.8557,458.4844 530.7463,458.4844 C531.9651,458.4844 533.1213,458.1875 533.8713,457.6406 C534.4494,457.2344 534.7776,456.7813 534.7776,456.3906 C534.7776,455.9375 534.3869,455.5469 533.9182,455.5469 C533.6994,455.5469 533.4963,455.625 533.3088,455.8125 C532.8557,456.2969 532.8557,456.2969 532.6682,456.3906 C532.2463,456.6563 531.5588,456.7813 530.7932,456.7813 C528.7463,456.7813 527.4494,455.6875 527.4494,453.9844 L527.4494,452.8906 C527.4494,451.1094 528.6994,449.7969 530.4338,449.7969 C531.0119,449.7969 531.6213,449.9531 532.0901,450.2031 C532.5744,450.4844 532.7463,450.7031 532.8401,451.1094 C532.9026,451.5156 532.9338,451.6406 533.0744,451.7656 C533.2151,451.9063 533.4494,452.0156 533.6682,452.0156 C533.9338,452.0156 534.1994,451.875 534.3713,451.6563 C534.4807,451.5 534.5119,451.3125 534.5119,450.8906 L534.5119,449.4688 C534.5119,449.0313 534.4963,448.9063 534.4026,448.75 C534.2463,448.4844 533.9651,448.3438 533.6682,448.3438 C533.3713,448.3438 533.1682,448.4375 532.9494,448.75 L532.7776,448.6719 Z "/><text fill="#000000" font-family="sans-serif" font-size="12" lengthAdjust="spacingAndGlyphs" textLength="58" x="544.4338" y="457.1543">service_T</text><line style="stroke: #A80036; stroke-width: 1.5;" x1="516.4338" x2="604.4338" y1="469" y2="469"/><line style="stroke: #A80036; stroke-width: 1.5;" x1="516.4338" x2="604.4338" y1="477" y2="477"/><!--MD5=[bf76c9182e15b95a1b6e02d54e125921]
class service_Q--><rect codeLine="18" fill="#FEFECE" filter="url(#f1644ztunhewvm)" height="48" id="service_Q" style="stroke: #A80036; stroke-width: 1.5;" width="93" x="513.9338" y="520"/><ellipse cx="528.9338" cy="536" fill="#ADD1B2" rx="11" ry="11" style="stroke: #A80036; stroke-width: 1.0;"/><path d="M531.2776,531.6719 C530.3401,531.2344 529.7463,531.0938 528.8713,531.0938 C526.2463,531.0938 524.2463,533.1719 524.2463,535.8906 L524.2463,537.0156 C524.2463,539.5938 526.3557,541.4844 529.2463,541.4844 C530.4651,541.4844 531.6213,541.1875 532.3713,540.6406 C532.9494,540.2344 533.2776,539.7813 533.2776,539.3906 C533.2776,538.9375 532.8869,538.5469 532.4182,538.5469 C532.1994,538.5469 531.9963,538.625 531.8088,538.8125 C531.3557,539.2969 531.3557,539.2969 531.1682,539.3906 C530.7463,539.6563 530.0588,539.7813 529.2932,539.7813 C527.2463,539.7813 525.9494,538.6875 525.9494,536.9844 L525.9494,535.8906 C525.9494,534.1094 527.1994,532.7969 528.9338,532.7969 C529.5119,532.7969 530.1213,532.9531 530.5901,533.2031 C531.0744,533.4844 531.2463,533.7031 531.3401,534.1094 C531.4026,534.5156 531.4338,534.6406 531.5744,534.7656 C531.7151,534.9063 531.9494,535.0156 532.1682,535.0156 C532.4338,535.0156 532.6994,534.875 532.8713,534.6563 C532.9807,534.5 533.0119,534.3125 533.0119,533.8906 L533.0119,532.4688 C533.0119,532.0313 532.9963,531.9063 532.9026,531.75 C532.7463,531.4844 532.4651,531.3438 532.1682,531.3438 C531.8713,531.3438 531.6682,531.4375 531.4494,531.75 L531.2776,531.6719 Z "/><text fill="#000000" font-family="sans-serif" font-size="12" lengthAdjust="spacingAndGlyphs" textLength="61" x="542.9338" y="540.1543">service_Q</text><line style="stroke: #A80036; stroke-width: 1.5;" x1="514.9338" x2="605.9338" y1="552" y2="552"/><line style="stroke: #A80036; stroke-width: 1.5;" x1="514.9338" x2="605.9338" y1="560" y2="560"/><!--MD5=[049edeabd343d7a3e20e7e917c7ff817]
link Controller_A to Controller_B--><path codeLine="21" d="M280.4798,287 C342.4698,287 440.9158,287 502.7598,287 " fill="none" id="Controller_A-Controller_B" style="stroke: #A80036; stroke-width: 1.0;"/><polygon fill="#A80036" points="507.8868,287,498.8868,283,502.8868,287,498.8868,291,507.8868,287" style="stroke: #A80036; stroke-width: 1.0;"/><polygon fill="#A80036" points="275.1978,287,284.1978,291,280.1978,287,284.1978,283,275.1978,287" style="stroke: #A80036; stroke-width: 1.0;"/><text fill="#000000" font-family="sans-serif" font-size="13" lengthAdjust="spacingAndGlyphs" textLength="60" x="328.9338" y="283.0669">if needed</text><!--MD5=[990a70838aee2c81d88104dc77d085e3]
link Controller_A to View_A--><path codeLine="22" d="M169.6918,266.426 C112.9838,241 34.9813,194.428 66.9338,140.5 C90.5778,100.595 142.3538,81.354 179.6738,72.372 " fill="none" id="Controller_A-to-View_A" style="stroke: #A80036; stroke-width: 1.0;"/><polygon fill="#A80036" points="184.6098,71.223,174.937,69.3688,179.7401,72.3572,176.7518,77.1603,184.6098,71.223" style="stroke: #A80036; stroke-width: 1.0;"/><text fill="#000000" font-family="sans-serif" font-size="13" lengthAdjust="spacingAndGlyphs" textLength="60" x="37.9338" y="153.5669">manages</text><!--MD5=[9620177817bb31d0a8669cea8bba4e9d]
link View_A to Controller_A--><path codeLine="24" d="M184.8778,74.277 C122.0348,91.744 6,133.428 43.9338,195.5 C70.0208,238.188 123.0418,261.78 164.5518,274.265 " fill="none" id="View_A-to-Controller_A" style="stroke: #A80036; stroke-width: 1.0;"/><polygon fill="#A80036" points="169.5548,275.733,162.0463,269.3594,164.7573,274.3243,159.7924,277.0354,169.5548,275.733" style="stroke: #A80036; stroke-width: 1.0;"/><text fill="#000000" font-family="sans-serif" font-size="13" lengthAdjust="spacingAndGlyphs" textLength="106" x="14.9338" y="191.5669">requests actions</text><!--MD5=[33073a881bdad0b50cff0259030565b9]
link Controller_B to View_B--><path codeLine="23" d="M507.4778,278.073 C454.4118,267.566 370.7088,247.085 304.9338,213 C285.9868,203.181 267.2028,188.618 252.4518,175.763 " fill="none" id="Controller_B-to-View_B" style="stroke: #A80036; stroke-width: 1.0;"/><polygon fill="#A80036" points="248.4018,172.188,252.5006,181.1434,252.1498,175.4975,257.7957,175.1467,248.4018,172.188" style="stroke: #A80036; stroke-width: 1.0;"/><text fill="#000000" font-family="sans-serif" font-size="13" lengthAdjust="spacingAndGlyphs" textLength="60" x="328.9338" y="209.0669">manages</text><!--MD5=[405d345d19b0c10e48b36886d8472f15]
link View_B to Controller_B--><path codeLine="25" d="M260.2288,152.679 C299.2938,158.522 362.2638,170.474 412.9338,192 C454.1518,209.51 496.5858,238.449 525.1058,259.793 " fill="none" id="View_B-to-Controller_B" style="stroke: #A80036; stroke-width: 1.0;"/><polygon fill="#A80036" points="529.2108,262.885,524.4285,254.2751,525.217,259.8768,519.6153,260.6653,529.2108,262.885" style="stroke: #A80036; stroke-width: 1.0;"/><text fill="#000000" font-family="sans-serif" font-size="13" lengthAdjust="spacingAndGlyphs" textLength="106" x="305.9338" y="157.0669">requests actions</text><!--MD5=[7e32a097be010eedbcd0f8c178ded199]
link controller to service--><path d="M227.3377,354.193 C227.489,354.5016 227.6446,354.8182 227.8045,355.1427 C230.3624,360.3338 234.0189,367.5386 238.7097,376.2434 C248.0912,393.6532 261.6096,417.0633 278.7498,442.3648 C313.0303,492.9678 361.7983,551.1365 420.9338,584 C424.2751,585.8569 427.7295,587.5571 431.2705,589.1131 C433.041,589.8911 434.8331,590.633 436.6435,591.3403 " fill="none" id="controller-service" style="stroke: #A80036; stroke-width: 1.0;"/><polygon fill="#A80036" points="436.6435,591.3403,429.7163,584.3393,431.9863,589.5207,426.8049,591.7908,436.6435,591.3403" style="stroke: #A80036; stroke-width: 1.0;"/><polygon fill="#A80036" points="227.3377,354.193,227.7076,364.035,229.5386,358.6826,234.8909,360.5136,227.3377,354.193" style="stroke: #A80036; stroke-width: 1.0;"/><text fill="#000000" font-family="sans-serif" font-size="13" lengthAdjust="spacingAndGlyphs" textLength="68" x="324.9338" y="480.0669">fetch/save</text><!--MD5=[a5efee5bc3df6b7ce5cbe3af30884be6]
link service to model--><path d="M684.8239,603 C685.2736,603 685.7233,603 686.1728,603 C687.0719,603 687.9705,603 688.8683,603 C692.4596,603 696.0391,603 699.5935,603 C706.7023,603 713.7105,603 720.5108,603 C723.9109,603 727.2591,603 730.5418,603 C730.9521,603 731.3614,603 731.7697,603 C731.9738,603 732.1777,603 732.3813,603 C732.4831,603 732.5849,603 732.6865,603 C732.7374,603 732.7882,603 732.839,603 " fill="none" id="service-model" style="stroke: #A80036; stroke-width: 1.0;"/><polygon fill="#A80036" points="732.839,603,723.839,599,727.839,603,723.839,607,732.839,603" style="stroke: #A80036; stroke-width: 1.0;"/><polygon fill="#A80036" points="684.8239,603,693.8239,607,689.8239,603,693.8239,599,684.8239,603" style="stroke: #A80036; stroke-width: 1.0;"/><!--MD5=[68e1d6165e25d34cdf71561be565d8f1]
@startuml
left to right direction
package view{
class View_A {}
class View_B  {}
}

package model{
class Model_X{}
class Model_Y{}
}
package controller {
class Controller_A{}
class Controller_B{}
}

package DataService:@Transactional as service {
class service_T
class service_Q
}

Controller_A<- ->Controller_B: "if needed"
Controller_A- ->View_A : manages
Controller_B- ->View_B : manages
View_A- ->Controller_A: requests actions
View_B- ->Controller_B: requests actions

controller<- ->service: fetch/save
service<- ->model
@enduml

PlantUML version 1.2020.17beta5(Unknown compile time)
(GPL source distribution)
Java Runtime: Java(TM) SE Runtime Environment
JVM: Java HotSpot(TM) 64-Bit Server VM
Default Encoding: UTF-8
Language: en
Country: US
--></g></svg>