<?xml version="1.0" encoding="UTF-8" standalone="no"?><svg xmlns="http://www.w3.org/2000/svg" xmlns:xlink="http://www.w3.org/1999/xlink" contentScriptType="application/ecmascript" contentStyleType="text/css" height="247px" preserveAspectRatio="none" style="width:684px;height:247px;" version="1.1" viewBox="0 0 684 247" width="684px" zoomAndPan="magnify"><defs><filter height="300%" id="f13d9ps0r91w96" width="300%" x="-1" y="-1"><feGaussianBlur result="blurOut" stdDeviation="2.0"/><feColorMatrix in="blurOut" result="blurOut2" type="matrix" values="0 0 0 0 0 0 0 0 0 0 0 0 0 0 0 0 0 0 .4 0"/><feOffset dx="4.0" dy="4.0" in="blurOut2" result="blurOut3"/><feBlend in="SourceGraphic" in2="blurOut3" mode="normal"/></filter></defs><g><!--MD5=[86cbce8df1eb9d604fbbb2fa357940f8]
cluster view--><polygon fill="#FFFFFF" filter="url(#f13d9ps0r91w96)" points="325,6,367,6,374,28.2969,448,28.2969,448,223,325,223,325,6" style="stroke: #000000; stroke-width: 1.5;"/><line style="stroke: #000000; stroke-width: 1.5;" x1="325" x2="374" y1="28.2969" y2="28.2969"/><text fill="#000000" font-family="sans-serif" font-size="14" font-weight="bold" lengthAdjust="spacingAndGlyphs" textLength="36" x="329" y="20.9951">view</text><!--MD5=[5d4cd377749310b66bf14896f5cd8d9b]
cluster model--><polygon fill="#FFFFFF" filter="url(#f13d9ps0r91w96)" points="531,12,586,12,593,34.2969,662,34.2969,662,229,531,229,531,12" style="stroke: #000000; stroke-width: 1.5;"/><line style="stroke: #000000; stroke-width: 1.5;" x1="531" x2="593" y1="34.2969" y2="34.2969"/><text fill="#000000" font-family="sans-serif" font-size="14" font-weight="bold" lengthAdjust="spacingAndGlyphs" textLength="49" x="535" y="26.9951">model</text><!--MD5=[10ea673caf457862023e152271927b45]
cluster controller--><polygon fill="#FFFFFF" filter="url(#f13d9ps0r91w96)" points="16,12,102,12,109,34.2969,169,34.2969,169,229,16,229,16,12" style="stroke: #000000; stroke-width: 1.5;"/><line style="stroke: #000000; stroke-width: 1.5;" x1="16" x2="109" y1="34.2969" y2="34.2969"/><text fill="#000000" font-family="sans-serif" font-size="14" font-weight="bold" lengthAdjust="spacingAndGlyphs" textLength="80" x="20" y="26.9951">controller</text><!--MD5=[d2db25f03c88efa916926cce85267dc0]
class View_A--><rect codeLine="3" fill="#FEFECE" filter="url(#f13d9ps0r91w96)" height="48" id="View_A" style="stroke: #A80036; stroke-width: 1.5;" width="75" x="349" y="68"/><ellipse cx="364" cy="84" fill="#ADD1B2" rx="11" ry="11" style="stroke: #A80036; stroke-width: 1.0;"/><path d="M366.3438,79.6719 C365.4063,79.2344 364.8125,79.0938 363.9375,79.0938 C361.3125,79.0938 359.3125,81.1719 359.3125,83.8906 L359.3125,85.0156 C359.3125,87.5938 361.4219,89.4844 364.3125,89.4844 C365.5313,89.4844 366.6875,89.1875 367.4375,88.6406 C368.0156,88.2344 368.3438,87.7813 368.3438,87.3906 C368.3438,86.9375 367.9531,86.5469 367.4844,86.5469 C367.2656,86.5469 367.0625,86.625 366.875,86.8125 C366.4219,87.2969 366.4219,87.2969 366.2344,87.3906 C365.8125,87.6563 365.125,87.7813 364.3594,87.7813 C362.3125,87.7813 361.0156,86.6875 361.0156,84.9844 L361.0156,83.8906 C361.0156,82.1094 362.2656,80.7969 364,80.7969 C364.5781,80.7969 365.1875,80.9531 365.6563,81.2031 C366.1406,81.4844 366.3125,81.7031 366.4063,82.1094 C366.4688,82.5156 366.5,82.6406 366.6406,82.7656 C366.7813,82.9063 367.0156,83.0156 367.2344,83.0156 C367.5,83.0156 367.7656,82.875 367.9375,82.6563 C368.0469,82.5 368.0781,82.3125 368.0781,81.8906 L368.0781,80.4688 C368.0781,80.0313 368.0625,79.9063 367.9688,79.75 C367.8125,79.4844 367.5313,79.3438 367.2344,79.3438 C366.9375,79.3438 366.7344,79.4375 366.5156,79.75 L366.3438,79.6719 Z "/><text fill="#000000" font-family="sans-serif" font-size="12" lengthAdjust="spacingAndGlyphs" textLength="43" x="378" y="88.1543">View_A</text><line style="stroke: #A80036; stroke-width: 1.5;" x1="350" x2="423" y1="100" y2="100"/><line style="stroke: #A80036; stroke-width: 1.5;" x1="350" x2="423" y1="108" y2="108"/><!--MD5=[3dd8c1480316dd1002d7417e87987353]
class View_B--><rect codeLine="4" fill="#FEFECE" filter="url(#f13d9ps0r91w96)" height="48" id="View_B" style="stroke: #A80036; stroke-width: 1.5;" width="75" x="349" y="151"/><ellipse cx="364" cy="167" fill="#ADD1B2" rx="11" ry="11" style="stroke: #A80036; stroke-width: 1.0;"/><path d="M366.3438,162.6719 C365.4063,162.2344 364.8125,162.0938 363.9375,162.0938 C361.3125,162.0938 359.3125,164.1719 359.3125,166.8906 L359.3125,168.0156 C359.3125,170.5938 361.4219,172.4844 364.3125,172.4844 C365.5313,172.4844 366.6875,172.1875 367.4375,171.6406 C368.0156,171.2344 368.3438,170.7813 368.3438,170.3906 C368.3438,169.9375 367.9531,169.5469 367.4844,169.5469 C367.2656,169.5469 367.0625,169.625 366.875,169.8125 C366.4219,170.2969 366.4219,170.2969 366.2344,170.3906 C365.8125,170.6563 365.125,170.7813 364.3594,170.7813 C362.3125,170.7813 361.0156,169.6875 361.0156,167.9844 L361.0156,166.8906 C361.0156,165.1094 362.2656,163.7969 364,163.7969 C364.5781,163.7969 365.1875,163.9531 365.6563,164.2031 C366.1406,164.4844 366.3125,164.7031 366.4063,165.1094 C366.4688,165.5156 366.5,165.6406 366.6406,165.7656 C366.7813,165.9063 367.0156,166.0156 367.2344,166.0156 C367.5,166.0156 367.7656,165.875 367.9375,165.6563 C368.0469,165.5 368.0781,165.3125 368.0781,164.8906 L368.0781,163.4688 C368.0781,163.0313 368.0625,162.9063 367.9688,162.75 C367.8125,162.4844 367.5313,162.3438 367.2344,162.3438 C366.9375,162.3438 366.7344,162.4375 366.5156,162.75 L366.3438,162.6719 Z "/><text fill="#000000" font-family="sans-serif" font-size="12" lengthAdjust="spacingAndGlyphs" textLength="43" x="378" y="171.1543">View_B</text><line style="stroke: #A80036; stroke-width: 1.5;" x1="350" x2="423" y1="183" y2="183"/><line style="stroke: #A80036; stroke-width: 1.5;" x1="350" x2="423" y1="191" y2="191"/><!--MD5=[6369dc55f225b1d1585e0bc0334da8a0]
class Model_X--><rect codeLine="8" fill="#FEFECE" filter="url(#f13d9ps0r91w96)" height="48" id="Model_X" style="stroke: #A80036; stroke-width: 1.5;" width="83" x="555" y="55"/><ellipse cx="570" cy="71" fill="#ADD1B2" rx="11" ry="11" style="stroke: #A80036; stroke-width: 1.0;"/><path d="M572.3438,66.6719 C571.4063,66.2344 570.8125,66.0938 569.9375,66.0938 C567.3125,66.0938 565.3125,68.1719 565.3125,70.8906 L565.3125,72.0156 C565.3125,74.5938 567.4219,76.4844 570.3125,76.4844 C571.5313,76.4844 572.6875,76.1875 573.4375,75.6406 C574.0156,75.2344 574.3438,74.7813 574.3438,74.3906 C574.3438,73.9375 573.9531,73.5469 573.4844,73.5469 C573.2656,73.5469 573.0625,73.625 572.875,73.8125 C572.4219,74.2969 572.4219,74.2969 572.2344,74.3906 C571.8125,74.6563 571.125,74.7813 570.3594,74.7813 C568.3125,74.7813 567.0156,73.6875 567.0156,71.9844 L567.0156,70.8906 C567.0156,69.1094 568.2656,67.7969 570,67.7969 C570.5781,67.7969 571.1875,67.9531 571.6563,68.2031 C572.1406,68.4844 572.3125,68.7031 572.4063,69.1094 C572.4688,69.5156 572.5,69.6406 572.6406,69.7656 C572.7813,69.9063 573.0156,70.0156 573.2344,70.0156 C573.5,70.0156 573.7656,69.875 573.9375,69.6563 C574.0469,69.5 574.0781,69.3125 574.0781,68.8906 L574.0781,67.4688 C574.0781,67.0313 574.0625,66.9063 573.9688,66.75 C573.8125,66.4844 573.5313,66.3438 573.2344,66.3438 C572.9375,66.3438 572.7344,66.4375 572.5156,66.75 L572.3438,66.6719 Z "/><text fill="#000000" font-family="sans-serif" font-size="12" lengthAdjust="spacingAndGlyphs" textLength="51" x="584" y="75.1543">Model_X</text><line style="stroke: #A80036; stroke-width: 1.5;" x1="556" x2="637" y1="87" y2="87"/><line style="stroke: #A80036; stroke-width: 1.5;" x1="556" x2="637" y1="95" y2="95"/><!--MD5=[7b2ada24873265bbc799abed43dd24b8]
class Model_Y--><rect codeLine="9" fill="#FEFECE" filter="url(#f13d9ps0r91w96)" height="48" id="Model_Y" style="stroke: #A80036; stroke-width: 1.5;" width="82" x="555.5" y="138"/><ellipse cx="570.5" cy="154" fill="#ADD1B2" rx="11" ry="11" style="stroke: #A80036; stroke-width: 1.0;"/><path d="M572.8438,149.6719 C571.9063,149.2344 571.3125,149.0938 570.4375,149.0938 C567.8125,149.0938 565.8125,151.1719 565.8125,153.8906 L565.8125,155.0156 C565.8125,157.5938 567.9219,159.4844 570.8125,159.4844 C572.0313,159.4844 573.1875,159.1875 573.9375,158.6406 C574.5156,158.2344 574.8438,157.7813 574.8438,157.3906 C574.8438,156.9375 574.4531,156.5469 573.9844,156.5469 C573.7656,156.5469 573.5625,156.625 573.375,156.8125 C572.9219,157.2969 572.9219,157.2969 572.7344,157.3906 C572.3125,157.6563 571.625,157.7813 570.8594,157.7813 C568.8125,157.7813 567.5156,156.6875 567.5156,154.9844 L567.5156,153.8906 C567.5156,152.1094 568.7656,150.7969 570.5,150.7969 C571.0781,150.7969 571.6875,150.9531 572.1563,151.2031 C572.6406,151.4844 572.8125,151.7031 572.9063,152.1094 C572.9688,152.5156 573,152.6406 573.1406,152.7656 C573.2813,152.9063 573.5156,153.0156 573.7344,153.0156 C574,153.0156 574.2656,152.875 574.4375,152.6563 C574.5469,152.5 574.5781,152.3125 574.5781,151.8906 L574.5781,150.4688 C574.5781,150.0313 574.5625,149.9063 574.4688,149.75 C574.3125,149.4844 574.0313,149.3438 573.7344,149.3438 C573.4375,149.3438 573.2344,149.4375 573.0156,149.75 L572.8438,149.6719 Z "/><text fill="#000000" font-family="sans-serif" font-size="12" lengthAdjust="spacingAndGlyphs" textLength="50" x="584.5" y="158.1543">Model_Y</text><line style="stroke: #A80036; stroke-width: 1.5;" x1="556.5" x2="636.5" y1="170" y2="170"/><line style="stroke: #A80036; stroke-width: 1.5;" x1="556.5" x2="636.5" y1="178" y2="178"/><!--MD5=[d7cfe77c617f182b172456eec7b76f81]
class Controller_A--><rect codeLine="12" fill="#FEFECE" filter="url(#f13d9ps0r91w96)" height="48" id="Controller_A" style="stroke: #A80036; stroke-width: 1.5;" width="105" x="40" y="55"/><ellipse cx="55" cy="71" fill="#ADD1B2" rx="11" ry="11" style="stroke: #A80036; stroke-width: 1.0;"/><path d="M57.3438,66.6719 C56.4063,66.2344 55.8125,66.0938 54.9375,66.0938 C52.3125,66.0938 50.3125,68.1719 50.3125,70.8906 L50.3125,72.0156 C50.3125,74.5938 52.4219,76.4844 55.3125,76.4844 C56.5313,76.4844 57.6875,76.1875 58.4375,75.6406 C59.0156,75.2344 59.3438,74.7813 59.3438,74.3906 C59.3438,73.9375 58.9531,73.5469 58.4844,73.5469 C58.2656,73.5469 58.0625,73.625 57.875,73.8125 C57.4219,74.2969 57.4219,74.2969 57.2344,74.3906 C56.8125,74.6563 56.125,74.7813 55.3594,74.7813 C53.3125,74.7813 52.0156,73.6875 52.0156,71.9844 L52.0156,70.8906 C52.0156,69.1094 53.2656,67.7969 55,67.7969 C55.5781,67.7969 56.1875,67.9531 56.6563,68.2031 C57.1406,68.4844 57.3125,68.7031 57.4063,69.1094 C57.4688,69.5156 57.5,69.6406 57.6406,69.7656 C57.7813,69.9063 58.0156,70.0156 58.2344,70.0156 C58.5,70.0156 58.7656,69.875 58.9375,69.6563 C59.0469,69.5 59.0781,69.3125 59.0781,68.8906 L59.0781,67.4688 C59.0781,67.0313 59.0625,66.9063 58.9688,66.75 C58.8125,66.4844 58.5313,66.3438 58.2344,66.3438 C57.9375,66.3438 57.7344,66.4375 57.5156,66.75 L57.3438,66.6719 Z "/><text fill="#000000" font-family="sans-serif" font-size="12" lengthAdjust="spacingAndGlyphs" textLength="73" x="69" y="75.1543">Controller_A</text><line style="stroke: #A80036; stroke-width: 1.5;" x1="41" x2="144" y1="87" y2="87"/><line style="stroke: #A80036; stroke-width: 1.5;" x1="41" x2="144" y1="95" y2="95"/><!--MD5=[699a9244b506ba4a3d3290577588a53e]
class Controller_B--><rect codeLine="13" fill="#FEFECE" filter="url(#f13d9ps0r91w96)" height="48" id="Controller_B" style="stroke: #A80036; stroke-width: 1.5;" width="105" x="40" y="138"/><ellipse cx="55" cy="154" fill="#ADD1B2" rx="11" ry="11" style="stroke: #A80036; stroke-width: 1.0;"/><path d="M57.3438,149.6719 C56.4063,149.2344 55.8125,149.0938 54.9375,149.0938 C52.3125,149.0938 50.3125,151.1719 50.3125,153.8906 L50.3125,155.0156 C50.3125,157.5938 52.4219,159.4844 55.3125,159.4844 C56.5313,159.4844 57.6875,159.1875 58.4375,158.6406 C59.0156,158.2344 59.3438,157.7813 59.3438,157.3906 C59.3438,156.9375 58.9531,156.5469 58.4844,156.5469 C58.2656,156.5469 58.0625,156.625 57.875,156.8125 C57.4219,157.2969 57.4219,157.2969 57.2344,157.3906 C56.8125,157.6563 56.125,157.7813 55.3594,157.7813 C53.3125,157.7813 52.0156,156.6875 52.0156,154.9844 L52.0156,153.8906 C52.0156,152.1094 53.2656,150.7969 55,150.7969 C55.5781,150.7969 56.1875,150.9531 56.6563,151.2031 C57.1406,151.4844 57.3125,151.7031 57.4063,152.1094 C57.4688,152.5156 57.5,152.6406 57.6406,152.7656 C57.7813,152.9063 58.0156,153.0156 58.2344,153.0156 C58.5,153.0156 58.7656,152.875 58.9375,152.6563 C59.0469,152.5 59.0781,152.3125 59.0781,151.8906 L59.0781,150.4688 C59.0781,150.0313 59.0625,149.9063 58.9688,149.75 C58.8125,149.4844 58.5313,149.3438 58.2344,149.3438 C57.9375,149.3438 57.7344,149.4375 57.5156,149.75 L57.3438,149.6719 Z "/><text fill="#000000" font-family="sans-serif" font-size="12" lengthAdjust="spacingAndGlyphs" textLength="73" x="69" y="158.1543">Controller_B</text><line style="stroke: #A80036; stroke-width: 1.5;" x1="41" x2="144" y1="170" y2="170"/><line style="stroke: #A80036; stroke-width: 1.5;" x1="41" x2="144" y1="178" y2="178"/><!--MD5=[b364136f1145b6edcb5204c7fba1d708]
link view to controller--><path d="M324.8765,40.4566 C324.637,40.5701 324.3983,40.6851 324.1605,40.8016 C322.258,41.7334 320.4096,42.7603 318.634,43.8915 C315.0828,46.1537 311.8223,48.8326 309,52 C290.516,72.744 317.009,91.291 301,114 C269.964,158.0258 226.399,126.739 193,169 C183.643,180.8403 195.846,191.5067 185,202 C181.3269,205.5535 177.1723,208.5202 172.7104,210.9906 C171.595,211.6082 170.4603,212.1948 169.3091,212.7518 " fill="none" id="view-to-controller" style="stroke: #A80036; stroke-width: 1.0;"/><polygon fill="#A80036" points="169.3091,212.7518,179.1528,212.4325,173.8099,210.5741,175.6684,205.2312,169.3091,212.7518" style="stroke: #A80036; stroke-width: 1.0;"/><text fill="#000000" font-family="sans-serif" font-size="13" lengthAdjust="spacingAndGlyphs" textLength="106" x="194" y="110.0669">requests actions</text><!--MD5=[826f3f91c4d829fd9593e4cbf7427d27]
link view to model--><path d="M448.2984,41.8612 C448.4205,41.9167 448.5424,41.9724 448.6642,42.0285 C448.9077,42.1406 449.1506,42.2541 449.3927,42.3688 C449.877,42.5983 450.3584,42.8331 450.8368,43.0732 C451.7935,43.5535 452.7379,44.0551 453.6679,44.5792 C457.3877,46.6754 460.8765,49.1294 464,52 C515.844,99.648 462.879,154.6546 515,202 C518.295,204.9931 521.9724,207.5399 525.8913,209.7047 C526.8711,210.2459 527.8659,210.7632 528.8736,211.2576 C529.3774,211.5048 529.8845,211.7463 530.3945,211.9822 C530.5221,212.0412 530.6497,212.0998 530.7776,212.1581 " fill="none" id="view-to-model" style="stroke: #A80036; stroke-width: 1.0;"/><polygon fill="#A80036" points="530.7776,212.1581,524.2469,204.7858,526.2279,210.0845,520.9292,212.0654,530.7776,212.1581" style="stroke: #A80036; stroke-width: 1.0;"/><text fill="#000000" font-family="sans-serif" font-size="13" lengthAdjust="spacingAndGlyphs" textLength="33" x="473" y="57.0669">Read</text><!--MD5=[990a70838aee2c81d88104dc77d085e3]
link Controller_A to View_A--><path codeLine="19" d="M145.032,81.294 C201.541,83.81 291.139,87.799 343.535,90.132 " fill="none" id="Controller_A-to-View_A" style="stroke: #A80036; stroke-width: 1.0;"/><polygon fill="#A80036" points="348.799,90.366,339.9849,85.9714,343.8039,90.1446,339.6307,93.9636,348.799,90.366" style="stroke: #A80036; stroke-width: 1.0;"/><text fill="#000000" font-family="sans-serif" font-size="13" lengthAdjust="spacingAndGlyphs" textLength="60" x="217" y="80.0669">manages</text><!--MD5=[33073a881bdad0b50cff0259030565b9]
link Controller_B to View_B--><path codeLine="20" d="M145.085,179.4126 C160.332,183.7667 177.179,187.8163 193,190 C240.549,196.5629 253.185,194.211 301,190 C315.012,188.766 330.181,186.4022 343.748,183.9097 " fill="none" id="Controller_B-to-View_B" style="stroke: #A80036; stroke-width: 1.0;"/><polygon fill="#A80036" points="348.669,182.9875,339.086,180.7146,343.7546,183.9089,340.5603,188.5775,348.669,182.9875" style="stroke: #A80036; stroke-width: 1.0;"/><text fill="#000000" font-family="sans-serif" font-size="13" lengthAdjust="spacingAndGlyphs" textLength="60" x="217" y="186.0669">manages</text><!--MD5=[ddb961bca840c7c0b57e5b8ac713b6ba]
link controller to model--><path d="M169.4663,226.4243 C169.9316,226.4529 170.3985,226.4815 170.867,226.5101 C185.8604,227.4261 202.5312,228.3644 220.4188,229.2456 C291.969,232.7706 382.988,235.3825 464,232 C478.4205,231.3979 493.7073,230.426 508.5607,229.3027 C515.9874,228.7411 523.3058,228.1416 530.3533,227.5316 " fill="none" id="controller-to-model" style="stroke: #A80036; stroke-width: 1.0;"/><polygon fill="#A80036" points="530.3533,227.5316,521.0419,224.3226,525.3719,227.9628,521.7318,232.2928,530.3533,227.5316" style="stroke: #A80036; stroke-width: 1.0;"/><text fill="#000000" font-family="sans-serif" font-size="13" lengthAdjust="spacingAndGlyphs" textLength="45" x="364" y="228.0669">modify</text><!--MD5=[c0f9e5a14b5f9479cd2b5629b358dccc]
@startuml
left to right direction
package view{
class View_A {}
class View_B  {}
}

package model{
class Model_X{}
class Model_Y{}
}
package controller {
class Controller_A{}
class Controller_B{}
}


view- ->controller: requests actions
view- ->model: Read
Controller_A- ->View_A : manages
Controller_B- ->View_B : manages
controller- ->model: modify
@enduml

PlantUML version 1.2020.17beta5(Unknown compile time)
(GPL source distribution)
Java Runtime: Java(TM) SE Runtime Environment
JVM: Java HotSpot(TM) 64-Bit Server VM
Default Encoding: UTF-8
Language: en
Country: US
--></g></svg>