<?xml version="1.0" encoding="UTF-8" standalone="no"?><svg xmlns="http://www.w3.org/2000/svg" xmlns:xlink="http://www.w3.org/1999/xlink" contentScriptType="application/ecmascript" contentStyleType="text/css" height="493px" preserveAspectRatio="none" style="width:466px;height:493px;" version="1.1" viewBox="0 0 466 493" width="466px" zoomAndPan="magnify"><defs><filter height="300%" id="f1jxmz3ztel0bi" width="300%" x="-1" y="-1"><feGaussianBlur result="blurOut" stdDeviation="2.0"/><feColorMatrix in="blurOut" result="blurOut2" type="matrix" values="0 0 0 0 0 0 0 0 0 0 0 0 0 0 0 0 0 0 .4 0"/><feOffset dx="4.0" dy="4.0" in="blurOut2" result="blurOut3"/><feBlend in="SourceGraphic" in2="blurOut3" mode="normal"/></filter></defs><g><!--MD5=[86cbce8df1eb9d604fbbb2fa357940f8]
cluster view--><polygon fill="#FFFFFF" filter="url(#f1jxmz3ztel0bi)" points="16,186,58,186,65,208.2969,269,208.2969,269,301,16,301,16,186" style="stroke: #000000; stroke-width: 1.5;"/><line style="stroke: #000000; stroke-width: 1.5;" x1="16" x2="65" y1="208.2969" y2="208.2969"/><text fill="#000000" font-family="sans-serif" font-size="14" font-weight="bold" lengthAdjust="spacingAndGlyphs" textLength="36" x="20" y="200.9951">view</text><!--MD5=[5d4cd377749310b66bf14896f5cd8d9b]
cluster model--><polygon fill="#FFFFFF" filter="url(#f1jxmz3ztel0bi)" points="51,366,106,366,113,388.2969,319,388.2969,319,481,51,481,51,366" style="stroke: #000000; stroke-width: 1.5;"/><line style="stroke: #000000; stroke-width: 1.5;" x1="51" x2="113" y1="388.2969" y2="388.2969"/><text fill="#000000" font-family="sans-serif" font-size="14" font-weight="bold" lengthAdjust="spacingAndGlyphs" textLength="49" x="55" y="380.9951">model</text><!--MD5=[10ea673caf457862023e152271927b45]
cluster controller--><polygon fill="#FFFFFF" filter="url(#f1jxmz3ztel0bi)" points="131,6,217,6,224,28.2969,444,28.2969,444,121,131,121,131,6" style="stroke: #000000; stroke-width: 1.5;"/><line style="stroke: #000000; stroke-width: 1.5;" x1="131" x2="224" y1="28.2969" y2="28.2969"/><text fill="#000000" font-family="sans-serif" font-size="14" font-weight="bold" lengthAdjust="spacingAndGlyphs" textLength="80" x="135" y="20.9951">controller</text><!--MD5=[d2db25f03c88efa916926cce85267dc0]
class View_A--><rect codeLine="2" fill="#FEFECE" filter="url(#f1jxmz3ztel0bi)" height="48" id="View_A" style="stroke: #A80036; stroke-width: 1.5;" width="75" x="59.5" y="229"/><ellipse cx="74.5" cy="245" fill="#ADD1B2" rx="11" ry="11" style="stroke: #A80036; stroke-width: 1.0;"/><path d="M76.8438,240.6719 C75.9063,240.2344 75.3125,240.0938 74.4375,240.0938 C71.8125,240.0938 69.8125,242.1719 69.8125,244.8906 L69.8125,246.0156 C69.8125,248.5938 71.9219,250.4844 74.8125,250.4844 C76.0313,250.4844 77.1875,250.1875 77.9375,249.6406 C78.5156,249.2344 78.8438,248.7813 78.8438,248.3906 C78.8438,247.9375 78.4531,247.5469 77.9844,247.5469 C77.7656,247.5469 77.5625,247.625 77.375,247.8125 C76.9219,248.2969 76.9219,248.2969 76.7344,248.3906 C76.3125,248.6563 75.625,248.7813 74.8594,248.7813 C72.8125,248.7813 71.5156,247.6875 71.5156,245.9844 L71.5156,244.8906 C71.5156,243.1094 72.7656,241.7969 74.5,241.7969 C75.0781,241.7969 75.6875,241.9531 76.1563,242.2031 C76.6406,242.4844 76.8125,242.7031 76.9063,243.1094 C76.9688,243.5156 77,243.6406 77.1406,243.7656 C77.2813,243.9063 77.5156,244.0156 77.7344,244.0156 C78,244.0156 78.2656,243.875 78.4375,243.6563 C78.5469,243.5 78.5781,243.3125 78.5781,242.8906 L78.5781,241.4688 C78.5781,241.0313 78.5625,240.9063 78.4688,240.75 C78.3125,240.4844 78.0313,240.3438 77.7344,240.3438 C77.4375,240.3438 77.2344,240.4375 77.0156,240.75 L76.8438,240.6719 Z "/><text fill="#000000" font-family="sans-serif" font-size="12" lengthAdjust="spacingAndGlyphs" textLength="43" x="88.5" y="249.1543">View_A</text><line style="stroke: #A80036; stroke-width: 1.5;" x1="60.5" x2="133.5" y1="261" y2="261"/><line style="stroke: #A80036; stroke-width: 1.5;" x1="60.5" x2="133.5" y1="269" y2="269"/><!--MD5=[3dd8c1480316dd1002d7417e87987353]
class View_B--><rect codeLine="3" fill="#FEFECE" filter="url(#f1jxmz3ztel0bi)" height="48" id="View_B" style="stroke: #A80036; stroke-width: 1.5;" width="75" x="169.5" y="229"/><ellipse cx="184.5" cy="245" fill="#ADD1B2" rx="11" ry="11" style="stroke: #A80036; stroke-width: 1.0;"/><path d="M186.8438,240.6719 C185.9063,240.2344 185.3125,240.0938 184.4375,240.0938 C181.8125,240.0938 179.8125,242.1719 179.8125,244.8906 L179.8125,246.0156 C179.8125,248.5938 181.9219,250.4844 184.8125,250.4844 C186.0313,250.4844 187.1875,250.1875 187.9375,249.6406 C188.5156,249.2344 188.8438,248.7813 188.8438,248.3906 C188.8438,247.9375 188.4531,247.5469 187.9844,247.5469 C187.7656,247.5469 187.5625,247.625 187.375,247.8125 C186.9219,248.2969 186.9219,248.2969 186.7344,248.3906 C186.3125,248.6563 185.625,248.7813 184.8594,248.7813 C182.8125,248.7813 181.5156,247.6875 181.5156,245.9844 L181.5156,244.8906 C181.5156,243.1094 182.7656,241.7969 184.5,241.7969 C185.0781,241.7969 185.6875,241.9531 186.1563,242.2031 C186.6406,242.4844 186.8125,242.7031 186.9063,243.1094 C186.9688,243.5156 187,243.6406 187.1406,243.7656 C187.2813,243.9063 187.5156,244.0156 187.7344,244.0156 C188,244.0156 188.2656,243.875 188.4375,243.6563 C188.5469,243.5 188.5781,243.3125 188.5781,242.8906 L188.5781,241.4688 C188.5781,241.0313 188.5625,240.9063 188.4688,240.75 C188.3125,240.4844 188.0313,240.3438 187.7344,240.3438 C187.4375,240.3438 187.2344,240.4375 187.0156,240.75 L186.8438,240.6719 Z "/><text fill="#000000" font-family="sans-serif" font-size="12" lengthAdjust="spacingAndGlyphs" textLength="43" x="198.5" y="249.1543">View_B</text><line style="stroke: #A80036; stroke-width: 1.5;" x1="170.5" x2="243.5" y1="261" y2="261"/><line style="stroke: #A80036; stroke-width: 1.5;" x1="170.5" x2="243.5" y1="269" y2="269"/><!--MD5=[6369dc55f225b1d1585e0bc0334da8a0]
class Model_X--><rect codeLine="7" fill="#FEFECE" filter="url(#f1jxmz3ztel0bi)" height="48" id="Model_X" style="stroke: #A80036; stroke-width: 1.5;" width="83" x="211.5" y="409"/><ellipse cx="226.5" cy="425" fill="#ADD1B2" rx="11" ry="11" style="stroke: #A80036; stroke-width: 1.0;"/><path d="M228.8438,420.6719 C227.9063,420.2344 227.3125,420.0938 226.4375,420.0938 C223.8125,420.0938 221.8125,422.1719 221.8125,424.8906 L221.8125,426.0156 C221.8125,428.5938 223.9219,430.4844 226.8125,430.4844 C228.0313,430.4844 229.1875,430.1875 229.9375,429.6406 C230.5156,429.2344 230.8438,428.7813 230.8438,428.3906 C230.8438,427.9375 230.4531,427.5469 229.9844,427.5469 C229.7656,427.5469 229.5625,427.625 229.375,427.8125 C228.9219,428.2969 228.9219,428.2969 228.7344,428.3906 C228.3125,428.6563 227.625,428.7813 226.8594,428.7813 C224.8125,428.7813 223.5156,427.6875 223.5156,425.9844 L223.5156,424.8906 C223.5156,423.1094 224.7656,421.7969 226.5,421.7969 C227.0781,421.7969 227.6875,421.9531 228.1563,422.2031 C228.6406,422.4844 228.8125,422.7031 228.9063,423.1094 C228.9688,423.5156 229,423.6406 229.1406,423.7656 C229.2813,423.9063 229.5156,424.0156 229.7344,424.0156 C230,424.0156 230.2656,423.875 230.4375,423.6563 C230.5469,423.5 230.5781,423.3125 230.5781,422.8906 L230.5781,421.4688 C230.5781,421.0313 230.5625,420.9063 230.4688,420.75 C230.3125,420.4844 230.0313,420.3438 229.7344,420.3438 C229.4375,420.3438 229.2344,420.4375 229.0156,420.75 L228.8438,420.6719 Z "/><text fill="#000000" font-family="sans-serif" font-size="12" lengthAdjust="spacingAndGlyphs" textLength="51" x="240.5" y="429.1543">Model_X</text><line style="stroke: #A80036; stroke-width: 1.5;" x1="212.5" x2="293.5" y1="441" y2="441"/><line style="stroke: #A80036; stroke-width: 1.5;" x1="212.5" x2="293.5" y1="449" y2="449"/><!--MD5=[7b2ada24873265bbc799abed43dd24b8]
class Model_Y--><rect codeLine="8" fill="#FEFECE" filter="url(#f1jxmz3ztel0bi)" height="48" id="Model_Y" style="stroke: #A80036; stroke-width: 1.5;" width="82" x="94" y="409"/><ellipse cx="109" cy="425" fill="#ADD1B2" rx="11" ry="11" style="stroke: #A80036; stroke-width: 1.0;"/><path d="M111.3438,420.6719 C110.4063,420.2344 109.8125,420.0938 108.9375,420.0938 C106.3125,420.0938 104.3125,422.1719 104.3125,424.8906 L104.3125,426.0156 C104.3125,428.5938 106.4219,430.4844 109.3125,430.4844 C110.5313,430.4844 111.6875,430.1875 112.4375,429.6406 C113.0156,429.2344 113.3438,428.7813 113.3438,428.3906 C113.3438,427.9375 112.9531,427.5469 112.4844,427.5469 C112.2656,427.5469 112.0625,427.625 111.875,427.8125 C111.4219,428.2969 111.4219,428.2969 111.2344,428.3906 C110.8125,428.6563 110.125,428.7813 109.3594,428.7813 C107.3125,428.7813 106.0156,427.6875 106.0156,425.9844 L106.0156,424.8906 C106.0156,423.1094 107.2656,421.7969 109,421.7969 C109.5781,421.7969 110.1875,421.9531 110.6563,422.2031 C111.1406,422.4844 111.3125,422.7031 111.4063,423.1094 C111.4688,423.5156 111.5,423.6406 111.6406,423.7656 C111.7813,423.9063 112.0156,424.0156 112.2344,424.0156 C112.5,424.0156 112.7656,423.875 112.9375,423.6563 C113.0469,423.5 113.0781,423.3125 113.0781,422.8906 L113.0781,421.4688 C113.0781,421.0313 113.0625,420.9063 112.9688,420.75 C112.8125,420.4844 112.5313,420.3438 112.2344,420.3438 C111.9375,420.3438 111.7344,420.4375 111.5156,420.75 L111.3438,420.6719 Z "/><text fill="#000000" font-family="sans-serif" font-size="12" lengthAdjust="spacingAndGlyphs" textLength="50" x="123" y="429.1543">Model_Y</text><line style="stroke: #A80036; stroke-width: 1.5;" x1="95" x2="175" y1="441" y2="441"/><line style="stroke: #A80036; stroke-width: 1.5;" x1="95" x2="175" y1="449" y2="449"/><!--MD5=[d7cfe77c617f182b172456eec7b76f81]
class Controller_A--><rect codeLine="11" fill="#FEFECE" filter="url(#f1jxmz3ztel0bi)" height="48" id="Controller_A" style="stroke: #A80036; stroke-width: 1.5;" width="105" x="174.5" y="49"/><ellipse cx="189.5" cy="65" fill="#ADD1B2" rx="11" ry="11" style="stroke: #A80036; stroke-width: 1.0;"/><path d="M191.8438,60.6719 C190.9063,60.2344 190.3125,60.0938 189.4375,60.0938 C186.8125,60.0938 184.8125,62.1719 184.8125,64.8906 L184.8125,66.0156 C184.8125,68.5938 186.9219,70.4844 189.8125,70.4844 C191.0313,70.4844 192.1875,70.1875 192.9375,69.6406 C193.5156,69.2344 193.8438,68.7813 193.8438,68.3906 C193.8438,67.9375 193.4531,67.5469 192.9844,67.5469 C192.7656,67.5469 192.5625,67.625 192.375,67.8125 C191.9219,68.2969 191.9219,68.2969 191.7344,68.3906 C191.3125,68.6563 190.625,68.7813 189.8594,68.7813 C187.8125,68.7813 186.5156,67.6875 186.5156,65.9844 L186.5156,64.8906 C186.5156,63.1094 187.7656,61.7969 189.5,61.7969 C190.0781,61.7969 190.6875,61.9531 191.1563,62.2031 C191.6406,62.4844 191.8125,62.7031 191.9063,63.1094 C191.9688,63.5156 192,63.6406 192.1406,63.7656 C192.2813,63.9063 192.5156,64.0156 192.7344,64.0156 C193,64.0156 193.2656,63.875 193.4375,63.6563 C193.5469,63.5 193.5781,63.3125 193.5781,62.8906 L193.5781,61.4688 C193.5781,61.0313 193.5625,60.9063 193.4688,60.75 C193.3125,60.4844 193.0313,60.3438 192.7344,60.3438 C192.4375,60.3438 192.2344,60.4375 192.0156,60.75 L191.8438,60.6719 Z "/><text fill="#000000" font-family="sans-serif" font-size="12" lengthAdjust="spacingAndGlyphs" textLength="73" x="203.5" y="69.1543">Controller_A</text><line style="stroke: #A80036; stroke-width: 1.5;" x1="175.5" x2="278.5" y1="81" y2="81"/><line style="stroke: #A80036; stroke-width: 1.5;" x1="175.5" x2="278.5" y1="89" y2="89"/><!--MD5=[699a9244b506ba4a3d3290577588a53e]
class Controller_B--><rect codeLine="12" fill="#FEFECE" filter="url(#f1jxmz3ztel0bi)" height="48" id="Controller_B" style="stroke: #A80036; stroke-width: 1.5;" width="105" x="314.5" y="49"/><ellipse cx="329.5" cy="65" fill="#ADD1B2" rx="11" ry="11" style="stroke: #A80036; stroke-width: 1.0;"/><path d="M331.8438,60.6719 C330.9063,60.2344 330.3125,60.0938 329.4375,60.0938 C326.8125,60.0938 324.8125,62.1719 324.8125,64.8906 L324.8125,66.0156 C324.8125,68.5938 326.9219,70.4844 329.8125,70.4844 C331.0313,70.4844 332.1875,70.1875 332.9375,69.6406 C333.5156,69.2344 333.8438,68.7813 333.8438,68.3906 C333.8438,67.9375 333.4531,67.5469 332.9844,67.5469 C332.7656,67.5469 332.5625,67.625 332.375,67.8125 C331.9219,68.2969 331.9219,68.2969 331.7344,68.3906 C331.3125,68.6563 330.625,68.7813 329.8594,68.7813 C327.8125,68.7813 326.5156,67.6875 326.5156,65.9844 L326.5156,64.8906 C326.5156,63.1094 327.7656,61.7969 329.5,61.7969 C330.0781,61.7969 330.6875,61.9531 331.1563,62.2031 C331.6406,62.4844 331.8125,62.7031 331.9063,63.1094 C331.9688,63.5156 332,63.6406 332.1406,63.7656 C332.2813,63.9063 332.5156,64.0156 332.7344,64.0156 C333,64.0156 333.2656,63.875 333.4375,63.6563 C333.5469,63.5 333.5781,63.3125 333.5781,62.8906 L333.5781,61.4688 C333.5781,61.0313 333.5625,60.9063 333.4688,60.75 C333.3125,60.4844 333.0313,60.3438 332.7344,60.3438 C332.4375,60.3438 332.2344,60.4375 332.0156,60.75 L331.8438,60.6719 Z "/><text fill="#000000" font-family="sans-serif" font-size="12" lengthAdjust="spacingAndGlyphs" textLength="73" x="343.5" y="69.1543">Controller_B</text><line style="stroke: #A80036; stroke-width: 1.5;" x1="315.5" x2="418.5" y1="81" y2="81"/><line style="stroke: #A80036; stroke-width: 1.5;" x1="315.5" x2="418.5" y1="89" y2="89"/><!--MD5=[b364136f1145b6edcb5204c7fba1d708]
link view to controller--><path d="M37.6662,185.6332 C37.7513,185.3518 37.8369,185.0707 37.9229,184.7897 C38.0949,184.2279 38.2687,183.667 38.4442,183.1072 C39.8486,178.6292 41.3657,174.225 43,170 C53.7142,142.3015 77.1375,118.6128 98.1638,101.6966 C108.6769,93.2386 118.5909,86.4737 126.0173,81.7473 C126.9456,81.1565 127.8351,80.5975 128.682,80.0711 C129.1054,79.8079 129.5182,79.5528 129.9199,79.3059 C130.1208,79.1825 130.3188,79.0611 130.5141,78.9418 C130.6117,78.8822 130.7086,78.823 130.8048,78.7644 " fill="none" id="view-to-controller" style="stroke: #A80036; stroke-width: 1.0;"/><polygon fill="#A80036" points="130.8048,78.7644,121.0379,80.0321,126.5351,81.3663,125.2009,86.8636,130.8048,78.7644" style="stroke: #A80036; stroke-width: 1.0;"/><text fill="#000000" font-family="sans-serif" font-size="13" lengthAdjust="spacingAndGlyphs" textLength="106" x="56" y="158.0669">requests actions</text><!--MD5=[826f3f91c4d829fd9593e4cbf7427d27]
link view to model--><path d="M33.2626,301.1071 C33.3218,301.4083 33.3812,301.7104 33.4408,302.0132 C33.5599,302.619 33.6796,303.228 33.8,303.8401 C34.2814,306.2884 34.7725,308.786 35.2714,311.3232 C37.2669,321.4719 39.3867,332.2526 41.5064,343.0327 C43.6261,353.8127 45.7456,364.5921 47.7407,374.7383 C48.7382,379.8114 49.7046,384.7262 50.6243,389.4035 C50.7392,389.9882 50.8535,390.5692 50.9669,391.1463 " fill="none" id="view-to-model" style="stroke: #A80036; stroke-width: 1.0;"/><polygon fill="#A80036" points="50.9669,391.1463,53.1554,381.5436,50.0023,386.2402,45.3057,383.0871,50.9669,391.1463" style="stroke: #A80036; stroke-width: 1.0;"/><text fill="#000000" font-family="sans-serif" font-size="13" lengthAdjust="spacingAndGlyphs" textLength="33" x="42" y="338.0669">Read</text><!--MD5=[990a70838aee2c81d88104dc77d085e3]
link Controller_A to View_A--><path codeLine="18" d="M216.271,97.137 C206.309,116.542 189.882,143.908 169,162 C162.689,167.468 158.333,164.558 152,170 C134.531,185.012 120.248,206.856 110.619,224.224 " fill="none" id="Controller_A-to-View_A" style="stroke: #A80036; stroke-width: 1.0;"/><polygon fill="#A80036" points="108.028,228.994,115.8398,222.996,110.4154,224.6008,108.8106,219.1763,108.028,228.994" style="stroke: #A80036; stroke-width: 1.0;"/><text fill="#000000" font-family="sans-serif" font-size="13" lengthAdjust="spacingAndGlyphs" textLength="60" x="186" y="158.0669">manages</text><!--MD5=[33073a881bdad0b50cff0259030565b9]
link Controller_B to View_B--><path codeLine="19" d="M346.083,97.27 C316.617,130.051 262.989,189.712 231.633,224.596 " fill="none" id="Controller_B-to-View_B" style="stroke: #A80036; stroke-width: 1.0;"/><polygon fill="#A80036" points="227.922,228.724,236.9136,224.7051,231.2647,225.0056,230.9641,219.3567,227.922,228.724" style="stroke: #A80036; stroke-width: 1.0;"/><text fill="#000000" font-family="sans-serif" font-size="13" lengthAdjust="spacingAndGlyphs" textLength="60" x="303" y="158.0669">manages</text><!--MD5=[ddb961bca840c7c0b57e5b8ac713b6ba]
link controller to model--><path d="M146.2527,121.2468 C146.4385,121.6502 146.6288,122.0512 146.8236,122.4496 C147.2134,123.2465 147.6215,124.0331 148.0489,124.8074 C148.9036,126.3562 149.8353,127.856 150.8506,129.2911 C152.8813,132.1613 155.2465,134.7729 158,137 C174.817,150.601 238.58,130.922 255,145 C298.04,181.902 374.171,181.596 261,317 C208,380.413 137.861,293.019 78,350 C74.7188,353.1234 71.9536,356.6927 69.6276,360.5543 C69.0461,361.5196 68.4921,362.5033 67.9643,363.5028 C67.7004,364.0025 67.4431,364.5062 67.1922,365.0136 C67.0667,365.2673 66.9428,365.5219 66.8206,365.7774 " fill="none" id="controller-to-model" style="stroke: #A80036; stroke-width: 1.0;"/><polygon fill="#A80036" points="66.8206,365.7774,74.314,359.3861,68.9791,361.2673,67.0978,355.9324,66.8206,365.7774" style="stroke: #A80036; stroke-width: 1.0;"/><text fill="#000000" font-family="sans-serif" font-size="13" lengthAdjust="spacingAndGlyphs" textLength="45" x="322" y="257.5669">modify</text><!--MD5=[fe4676d8e8cdc27ecf219f735fcbd9b7]
@startuml
package view{
class View_A {}
class View_B  {}
}

package model{
class Model_X{}
class Model_Y{}
}
package controller {
class Controller_A{}
class Controller_B{}
}


view- ->controller: requests actions
view- ->model: Read
Controller_A- ->View_A : manages
Controller_B- ->View_B : manages
controller- ->model: modify
@enduml

PlantUML version 1.2020.17beta5(Unknown compile time)
(GPL source distribution)
Java Runtime: Java(TM) SE Runtime Environment
JVM: Java HotSpot(TM) 64-Bit Server VM
Default Encoding: UTF-8
Language: en
Country: US
--></g></svg>