<?xml version="1.0" encoding="UTF-8" standalone="no"?><svg xmlns="http://www.w3.org/2000/svg" xmlns:xlink="http://www.w3.org/1999/xlink" contentScriptType="application/ecmascript" contentStyleType="text/css" height="510px" preserveAspectRatio="none" style="width:385px;height:510px;" version="1.1" viewBox="0 0 385 510" width="385px" zoomAndPan="magnify"><defs><filter height="300%" id="f10zcobr18xykm" width="300%" x="-1" y="-1"><feGaussianBlur result="blurOut" stdDeviation="2.0"/><feColorMatrix in="blurOut" result="blurOut2" type="matrix" values="0 0 0 0 0 0 0 0 0 0 0 0 0 0 0 0 0 0 .4 0"/><feOffset dx="4.0" dy="4.0" in="blurOut2" result="blurOut3"/><feBlend in="SourceGraphic" in2="blurOut3" mode="normal"/></filter></defs><g><ellipse cx="140.5" cy="16" fill="#000000" filter="url(#f10zcobr18xykm)" rx="10" ry="10" style="stroke:none;stroke-width:1.0;"/><rect fill="#FEFECE" filter="url(#f10zcobr18xykm)" height="33.9688" rx="12.5" ry="12.5" style="stroke:#A80036;stroke-width:1.5;" width="138" x="71.5" y="67"/><text fill="#000000" font-family="sans-serif" font-size="12" lengthAdjust="spacing" textLength="118" x="81.5" y="88.1387">Smart search result</text><polygon fill="#FEFECE" filter="url(#f10zcobr18xykm)" points="140.5,142,152.5,154,140.5,166,128.5,154,140.5,142" style="stroke:#A80036;stroke-width:1.5;"/><rect fill="#FEFECE" filter="url(#f10zcobr18xykm)" height="33.9688" rx="12.5" ry="12.5" style="stroke:#A80036;stroke-width:1.5;" width="53" x="7" y="220"/><text fill="#000000" font-family="sans-serif" font-size="12" lengthAdjust="spacing" textLength="33" x="17" y="241.1387">Track</text><rect fill="#FEFECE" filter="url(#f10zcobr18xykm)" height="33.9688" rx="12.5" ry="12.5" style="stroke:#A80036;stroke-width:1.5;" width="114" x="36.5" y="328"/><text fill="#000000" font-family="sans-serif" font-size="12" lengthAdjust="spacing" textLength="94" x="46.5" y="349.1387">Display CDView</text><rect fill="#FEFECE" filter="url(#f10zcobr18xykm)" height="33.9688" rx="12.5" ry="12.5" style="stroke:#A80036;stroke-width:1.5;" width="192" x="85.5" y="403"/><text fill="#000000" font-family="sans-serif" font-size="12" lengthAdjust="spacing" textLength="172" x="95.5" y="424.1387">Replace Current center View</text><rect fill="#FEFECE" filter="url(#f10zcobr18xykm)" height="33.9688" rx="12.5" ry="12.5" style="stroke:#A80036;stroke-width:1.5;" width="128" x="116.5" y="274"/><text fill="#000000" font-family="sans-serif" font-size="12" lengthAdjust="spacing" textLength="108" x="126.5" y="295.1387">Display ArtistView</text><rect fill="#FEFECE" filter="url(#f10zcobr18xykm)" height="33.9688" rx="12.5" ry="12.5" style="stroke:#A80036;stroke-width:1.5;" width="122" x="249.5" y="274"/><text fill="#000000" font-family="sans-serif" font-size="12" lengthAdjust="spacing" textLength="102" x="259.5" y="295.1387">Select Catalogue</text><ellipse cx="270.5" cy="488" filter="url(#f10zcobr18xykm)" rx="10" ry="10" style="stroke:#000000;stroke-width:1.0;fill:none;"/><ellipse cx="271" cy="488.5" fill="#000000" rx="6" ry="6" style="stroke:none;stroke-width:1.0;"/><!--MD5=[4c3ece062f28db9da5a54d20f3e97ee5]
link start to Smart search result--><path d="M140.5,26.177 C140.5,35.269 140.5,49.527 140.5,61.485 " fill="none" id="start-to-Smart search result" style="stroke:#A80036;stroke-width:1.0;"/><polygon fill="#A80036" points="140.5,66.791,144.5,57.791,140.5,61.791,136.5,57.791,140.5,66.791" style="stroke:#A80036;stroke-width:1.0;"/><!--MD5=[daf82cecb2b41749f50ffafb8903c780]
link Smart search result to #517064--><path d="M140.5,101.115 C140.5,111.916 140.5,126.082 140.5,136.883 " fill="none" id="Smart search result-to-#517064" style="stroke:#A80036;stroke-width:1.0;"/><polygon fill="#A80036" points="140.5,141.885,144.5,132.885,140.5,136.885,136.5,132.885,140.5,141.885" style="stroke:#A80036;stroke-width:1.0;"/><text fill="#000000" font-family="sans-serif" font-size="11" lengthAdjust="spacing" textLength="112" x="8.55" y="133.7853">Type of selectetion</text><!--MD5=[974c14754e4e997cfe9eeca22ef2821f]
link #517064 to Track--><path d="M130.074,155.865 C111.934,157.911 74.4106,164.619 52.5,186 C44.6898,193.622 40.0464,204.782 37.3081,214.626 " fill="none" id="#517064-to-Track" style="stroke:#A80036;stroke-width:1.0;"/><polygon fill="#A80036" points="36.0431,219.628,42.1273,211.8832,37.2688,214.7806,34.3714,209.922,36.0431,219.628" style="stroke:#A80036;stroke-width:1.0;"/><text fill="#000000" font-family="sans-serif" font-size="11" lengthAdjust="spacing" textLength="30" x="53.5" y="197.2104">Track</text><!--MD5=[85adfd0e7431189b2913496f8cd0ac51]
link Track to Display CDView--><path d="M42.6127,254.099 C53.0971,272.621 70.3382,303.081 81.8045,323.338 " fill="none" id="Track-to-Display CDView" style="stroke:#A80036;stroke-width:1.0;"/><polygon fill="#A80036" points="84.3015,327.749,83.3494,317.9463,81.8386,323.3977,76.3872,321.8869,84.3015,327.749" style="stroke:#A80036;stroke-width:1.0;"/><!--MD5=[aa7bed8bcd1f7d89637bfa0bf5696ec8]
link #517064 to Display CDView--><path d="M138.296,163.862 C131.23,192.277 109.006,281.645 98.764,322.832 " fill="none" id="#517064-to-Display CDView" style="stroke:#A80036;stroke-width:1.0;"/><polygon fill="#A80036" points="97.5177,327.844,103.5722,320.0759,98.7248,322.9919,95.8088,318.1445,97.5177,327.844" style="stroke:#A80036;stroke-width:1.0;"/><text fill="#000000" font-family="sans-serif" font-size="11" lengthAdjust="spacing" textLength="17" x="125.5" y="241.2104">CD</text><!--MD5=[7c4b9543d71842f5670deb12877a0463]
link Display CDView to Replace Current center View--><path d="M113.03,362.201 C126.36,373.259 144.083,387.961 158.158,399.6368 " fill="none" id="Display CDView-to-Replace Current center View" style="stroke:#A80036;stroke-width:1.0;"/><polygon fill="#A80036" points="162.025,402.8442,157.6527,394.0191,158.177,399.6516,152.5445,400.1759,162.025,402.8442" style="stroke:#A80036;stroke-width:1.0;"/><!--MD5=[fc7749616b506ffcb49aa976093ff83c]
link #517064 to Display ArtistView--><path d="M143.125,163.858 C149.368,184.929 165.248,238.526 174.17,268.636 " fill="none" id="#517064-to-Display ArtistView" style="stroke:#A80036;stroke-width:1.0;"/><polygon fill="#A80036" points="175.645,273.615,176.9244,263.8496,174.225,268.8209,169.2538,266.1215,175.645,273.615" style="stroke:#A80036;stroke-width:1.0;"/><text fill="#000000" font-family="sans-serif" font-size="11" lengthAdjust="spacing" textLength="29" x="155.5" y="197.2104">Artist</text><!--MD5=[34b963cef016e432cf6ab8e48c3401ef]
link Display ArtistView to Replace Current center View--><path d="M180.627,308.085 C180.805,330.767 181.132,372.201 181.331,397.503 " fill="none" id="Display ArtistView-to-Replace Current center View" style="stroke:#A80036;stroke-width:1.0;"/><polygon fill="#A80036" points="181.371,402.6448,185.2989,393.6131,181.331,397.645,177.2991,393.6771,181.371,402.6448" style="stroke:#A80036;stroke-width:1.0;"/><!--MD5=[0867e0038691a3ef071bb8e01a6c49cf]
link #517064 to Select Catalogue--><path d="M147.855,159.068 C157.819,164.687 176.023,175.344 190.5,186 C227.229,213.036 266.599,248.559 289.859,270.311 " fill="none" id="#517064-to-Select Catalogue" style="stroke:#A80036;stroke-width:1.0;"/><polygon fill="#A80036" points="293.731,273.943,289.9057,264.8674,290.0851,270.5214,284.4311,270.7008,293.731,273.943" style="stroke:#A80036;stroke-width:1.0;"/><text fill="#000000" font-family="sans-serif" font-size="11" lengthAdjust="spacing" textLength="58" x="209.5" y="197.2104">Catalogue</text><!--MD5=[36a8ee903ae28c6f80818ecebeb27584]
link Select Catalogue to end--><path d="M308.835,308.273 C305.868,335.288 298.885,390.979 287.5,437 C284.387,449.5813 279.529,463.5136 275.802,473.4688 " fill="none" id="Select Catalogue-to-end" style="stroke:#A80036;stroke-width:1.0;"/><polygon fill="#A80036" points="273.971,478.2839,280.9081,471.2927,275.7478,473.6102,273.4302,468.4499,273.971,478.2839" style="stroke:#A80036;stroke-width:1.0;"/><!--MD5=[6bf7603730d208651966bb0851bb5dd3]
link Replace Current center View to end--><path d="M203.5,437.3146 C220.889,450.2099 244.499,467.718 258.55,478.1383 " fill="none" id="Replace Current center View-to-end" style="stroke:#A80036;stroke-width:1.0;"/><polygon fill="#A80036" points="262.926,481.3836,258.0799,472.8095,258.91,478.4051,253.3143,479.2351,262.926,481.3836" style="stroke:#A80036;stroke-width:1.0;"/><!--MD5=[e36d7bd86e4819e6c3bd4f839154c9a0]
@startuml
(*)  - -> "Smart search result"
If "Type of selectetion" then
- -> [Track] "Track"
- -> "Display CDView"
else
- -> [CD] "Display CDView"
- -> "Replace Current center View"
else
- -> [Artist] "Display ArtistView"
- -> "Replace Current center View"
else
- -> [Catalogue] "Select Catalogue"
- ->(*)
Endif
"Replace Current center View"- ->(*)
@enduml

PlantUML version 1.2021.4beta1(Unknown compile time)
(GPL source distribution)
Java Runtime: Java(TM) SE Runtime Environment
JVM: Java HotSpot(TM) 64-Bit Server VM
Default Encoding: UTF-8
Language: en
Country: US
--></g></svg>