<?xml version="1.0" encoding="UTF-8" standalone="no"?><svg xmlns="http://www.w3.org/2000/svg" xmlns:xlink="http://www.w3.org/1999/xlink" contentScriptType="application/ecmascript" contentStyleType="text/css" height="515px" preserveAspectRatio="none" style="width:426px;height:515px;" version="1.1" viewBox="0 0 426 515" width="426px" zoomAndPan="magnify"><defs><filter height="300%" id="f10cb5xsg564pw" width="300%" x="-1" y="-1"><feGaussianBlur result="blurOut" stdDeviation="2.0"/><feColorMatrix in="blurOut" result="blurOut2" type="matrix" values="0 0 0 0 0 0 0 0 0 0 0 0 0 0 0 0 0 0 .4 0"/><feOffset dx="4.0" dy="4.0" in="blurOut2" result="blurOut3"/><feBlend in="SourceGraphic" in2="blurOut3" mode="normal"/></filter></defs><g><ellipse cx="180.5" cy="16" fill="#000000" filter="url(#f10cb5xsg564pw)" rx="10" ry="10" style="stroke: none; stroke-width: 1.0;"/><rect fill="#FEFECE" filter="url(#f10cb5xsg564pw)" height="33.9688" rx="12.5" ry="12.5" style="stroke: #A80036; stroke-width: 1.5;" width="138" x="111.5" y="67"/><text fill="#000000" font-family="sans-serif" font-size="12" lengthAdjust="spacingAndGlyphs" textLength="118" x="121.5" y="88.1387">Smart search result</text><polygon fill="#FEFECE" filter="url(#f10cb5xsg564pw)" points="180.5,142,192.5,154,180.5,166,168.5,154,180.5,142" style="stroke: #A80036; stroke-width: 1.5;"/><rect fill="#FEFECE" filter="url(#f10cb5xsg564pw)" height="33.9688" rx="12.5" ry="12.5" style="stroke: #A80036; stroke-width: 1.5;" width="53" x="7" y="220"/><text fill="#000000" font-family="sans-serif" font-size="12" lengthAdjust="spacingAndGlyphs" textLength="33" x="17" y="241.1387">Track</text><rect fill="#FEFECE" filter="url(#f10cb5xsg564pw)" height="33.9688" rx="12.5" ry="12.5" style="stroke: #A80036; stroke-width: 1.5;" width="114" x="20.5" y="328"/><text fill="#000000" font-family="sans-serif" font-size="12" lengthAdjust="spacingAndGlyphs" textLength="94" x="30.5" y="349.1387">Display CDView</text><rect fill="#FEFECE" filter="url(#f10cb5xsg564pw)" height="33.9688" rx="12.5" ry="12.5" style="stroke: #A80036; stroke-width: 1.5;" width="192" x="99.5" y="403"/><text fill="#000000" font-family="sans-serif" font-size="12" lengthAdjust="spacingAndGlyphs" textLength="172" x="109.5" y="424.1387">Replace Current center View</text><rect fill="#FEFECE" filter="url(#f10cb5xsg564pw)" height="33.9688" rx="12.5" ry="12.5" style="stroke: #A80036; stroke-width: 1.5;" width="128" x="116.5" y="274"/><text fill="#000000" font-family="sans-serif" font-size="12" lengthAdjust="spacingAndGlyphs" textLength="108" x="126.5" y="295.1387">Display ArtistView</text><rect fill="#FEFECE" filter="url(#f10cb5xsg564pw)" height="33.9688" rx="12.5" ry="12.5" style="stroke: #A80036; stroke-width: 1.5;" width="127" x="197" y="328"/><text fill="#000000" font-family="sans-serif" font-size="12" lengthAdjust="spacingAndGlyphs" textLength="107" x="207" y="349.1387">Display BandView</text><rect fill="#FEFECE" filter="url(#f10cb5xsg564pw)" height="33.9688" rx="12.5" ry="12.5" style="stroke: #A80036; stroke-width: 1.5;" width="122" x="285.5" y="274"/><text fill="#000000" font-family="sans-serif" font-size="12" lengthAdjust="spacingAndGlyphs" textLength="102" x="295.5" y="295.1387">Select Catalogue</text><ellipse cx="301.5" cy="488" fill="none" filter="url(#f10cb5xsg564pw)" rx="10" ry="10" style="stroke: #000000; stroke-width: 1.0;"/><ellipse cx="302" cy="488.5" fill="#000000" rx="6" ry="6" style="stroke: none; stroke-width: 1.0;"/><!--MD5=[4c3ece062f28db9da5a54d20f3e97ee5]
link start to Smart search result--><path d="M180.5,26.177 C180.5,35.269 180.5,49.527 180.5,61.485 " fill="none" id="start-to-Smart search result" style="stroke: #A80036; stroke-width: 1.0;"/><polygon fill="#A80036" points="180.5,66.791,184.5,57.791,180.5,61.791,176.5,57.791,180.5,66.791" style="stroke: #A80036; stroke-width: 1.0;"/><!--MD5=[cf8583028134d2c5db6091bf6bed8a7b]
link Smart search result to #83039--><path d="M180.5,101.115 C180.5,111.916 180.5,126.082 180.5,136.883 " fill="none" id="Smart search result-to-#83039" style="stroke: #A80036; stroke-width: 1.0;"/><polygon fill="#A80036" points="180.5,141.885,184.5,132.885,180.5,136.885,176.5,132.885,180.5,141.885" style="stroke: #A80036; stroke-width: 1.0;"/><text fill="#000000" font-family="sans-serif" font-size="11" lengthAdjust="spacingAndGlyphs" textLength="112" x="48.55" y="133.7853">Type of selectetion</text><!--MD5=[5ba97552f713e53cfccd14eb62a3858f]
link #83039 to Track--><path d="M168.621,154.434 C143.872,153.911 86.2856,156.21 52.5,186 C44.1961,193.322 39.5058,204.668 36.8643,214.702 " fill="none" id="#83039-to-Track" style="stroke: #A80036; stroke-width: 1.0;"/><polygon fill="#A80036" points="35.6615,219.801,41.6219,211.9605,36.81,214.9347,33.8358,210.1228,35.6615,219.801" style="stroke: #A80036; stroke-width: 1.0;"/><text fill="#000000" font-family="sans-serif" font-size="11" lengthAdjust="spacingAndGlyphs" textLength="30" x="53.5" y="197.2104">Track</text><!--MD5=[85adfd0e7431189b2913496f8cd0ac51]
link Track to Display CDView--><path d="M40.1827,254.099 C47.8389,272.544 60.4085,302.825 68.8171,323.082 " fill="none" id="Track-to-Display CDView" style="stroke: #A80036; stroke-width: 1.0;"/><polygon fill="#A80036" points="70.7545,327.749,70.998,317.9032,68.8374,323.1311,63.6094,320.9705,70.7545,327.749" style="stroke: #A80036; stroke-width: 1.0;"/><!--MD5=[d62cdeac89a0a8340367a004c3be3a71]
link #83039 to Display CDView--><path d="M176.537,162.241 C166.377,180.804 138.579,231.618 115.5,274 C106.4692,290.584 96.2598,309.395 88.6991,323.337 " fill="none" id="#83039-to-Display CDView" style="stroke: #A80036; stroke-width: 1.0;"/><polygon fill="#A80036" points="86.2421,327.868,94.0494,321.8642,88.6262,323.473,87.0174,318.0497,86.2421,327.868" style="stroke: #A80036; stroke-width: 1.0;"/><text fill="#000000" font-family="sans-serif" font-size="11" lengthAdjust="spacingAndGlyphs" textLength="17" x="145.5" y="241.2104">CD</text><!--MD5=[7c4b9543d71842f5670deb12877a0463]
link Display CDView to Replace Current center View--><path d="M103.3956,362.02 C121.408,373.163 145.506,388.072 164.535,399.8438 " fill="none" id="Display CDView-to-Replace Current center View" style="stroke: #A80036; stroke-width: 1.0;"/><polygon fill="#A80036" points="169.257,402.7649,163.7089,394.6274,165.0053,400.1337,159.499,401.4302,169.257,402.7649" style="stroke: #A80036; stroke-width: 1.0;"/><!--MD5=[130dea7c800c02274bafb22c68284a7a]
link #83039 to Display ArtistView--><path d="M180.5,166.048 C180.5,188.456 180.5,239.592 180.5,268.698 " fill="none" id="#83039-to-Display ArtistView" style="stroke: #A80036; stroke-width: 1.0;"/><polygon fill="#A80036" points="180.5,273.865,184.5,264.865,180.5,268.865,176.5,264.865,180.5,273.865" style="stroke: #A80036; stroke-width: 1.0;"/><text fill="#000000" font-family="sans-serif" font-size="11" lengthAdjust="spacingAndGlyphs" textLength="29" x="181.5" y="197.2104">Artist</text><!--MD5=[34b963cef016e432cf6ab8e48c3401ef]
link Display ArtistView to Replace Current center View--><path d="M181.558,308.159 C182.566,322.369 184.261,343.596 186.5,362 C187.935,373.794 189.972,386.894 191.745,397.558 " fill="none" id="Display ArtistView-to-Replace Current center View" style="stroke: #A80036; stroke-width: 1.0;"/><polygon fill="#A80036" points="192.59,402.5808,195.0403,393.0416,191.7599,397.6502,187.1513,394.3698,192.59,402.5808" style="stroke: #A80036; stroke-width: 1.0;"/><!--MD5=[820aee2907ba1003324ba5c6b803f898]
link #83039 to Display BandView--><path d="M187.321,159.198 C195.39,164.497 208.709,174.342 216.5,186 C245.215,228.969 255.33,290.43 258.785,322.562 " fill="none" id="#83039-to-Display BandView" style="stroke: #A80036; stroke-width: 1.0;"/><polygon fill="#A80036" points="259.321,327.835,262.3902,318.4766,258.8153,322.8606,254.4312,319.2857,259.321,327.835" style="stroke: #A80036; stroke-width: 1.0;"/><text fill="#000000" font-family="sans-serif" font-size="11" lengthAdjust="spacingAndGlyphs" textLength="29" x="247.5" y="241.2104">Band</text><!--MD5=[34dd4f87ef8ce457b4385cfad6581f80]
link Display BandView to Replace Current center View--><path d="M246.074,362.201 C236.397,373.07 223.584,387.459 213.277,399.0355 " fill="none" id="Display BandView-to-Replace Current center View" style="stroke: #A80036; stroke-width: 1.0;"/><polygon fill="#A80036" points="209.885,402.8442,218.8575,398.7829,213.2101,399.1101,212.8829,393.4627,209.885,402.8442" style="stroke: #A80036; stroke-width: 1.0;"/><!--MD5=[cc04469b682c0d98fa12ad18d8ed40f0]
link #83039 to Select Catalogue--><path d="M190.463,156.051 C209.068,158.449 249.636,165.774 276.5,186 C305.557,207.877 326.507,245.509 337.552,269.005 " fill="none" id="#83039-to-Select Catalogue" style="stroke: #A80036; stroke-width: 1.0;"/><polygon fill="#A80036" points="339.758,273.793,339.6254,263.945,337.666,269.2517,332.3593,267.2923,339.758,273.793" style="stroke: #A80036; stroke-width: 1.0;"/><text fill="#000000" font-family="sans-serif" font-size="11" lengthAdjust="spacingAndGlyphs" textLength="58" x="292.5" y="197.2104">Catalogue</text><!--MD5=[36a8ee903ae28c6f80818ecebeb27584]
link Select Catalogue to end--><path d="M344.138,308.204 C341.964,322.442 338.479,343.686 334.5,362 C325.632,402.8137 312.22,450.3387 305.556,473.254 " fill="none" id="Select Catalogue-to-end" style="stroke: #A80036; stroke-width: 1.0;"/><polygon fill="#A80036" points="304.089,478.2747,310.4525,470.7577,305.4912,473.4754,302.7736,468.5141,304.089,478.2747" style="stroke: #A80036; stroke-width: 1.0;"/><!--MD5=[6bf7603730d208651966bb0851bb5dd3]
link Replace Current center View to end--><path d="M221.431,437.1454 C242.944,450.5405 272.591,469 289.109,479.2849 " fill="none" id="Replace Current center View-to-end" style="stroke: #A80036; stroke-width: 1.0;"/><polygon fill="#A80036" points="293.402,481.9579,287.8762,473.8053,289.1575,479.3151,283.6477,480.5964,293.402,481.9579" style="stroke: #A80036; stroke-width: 1.0;"/><!--MD5=[646a72b4eebc1c3c4c248922ad1c7544]
@startuml
(*)  - -> "Smart search result"
If "Type of selectetion" then
- -> [Track] "Track"
- -> "Display CDView"
else
- -> [CD] "Display CDView"
- -> "Replace Current center View"
else
- -> [Artist] "Display ArtistView"
- -> "Replace Current center View"
else
- -> [Band] "Display BandView"
- -> "Replace Current center View"
else
- -> [Catalogue] "Select Catalogue"
- ->(*)
Endif
"Replace Current center View"- ->(*)
@enduml

PlantUML version 1.2020.17beta5(Unknown compile time)
(GPL source distribution)
Java Runtime: Java(TM) SE Runtime Environment
JVM: Java HotSpot(TM) 64-Bit Server VM
Default Encoding: UTF-8
Language: en
Country: US
--></g></svg>