<?xml version="1.0" encoding="UTF-8" standalone="no"?><svg xmlns="http://www.w3.org/2000/svg" xmlns:xlink="http://www.w3.org/1999/xlink" contentScriptType="application/ecmascript" contentStyleType="text/css" height="400px" preserveAspectRatio="none" style="width:856px;height:400px;" version="1.1" viewBox="0 0 856 400" width="856px" zoomAndPan="magnify"><defs><filter height="300%" id="fgpk333tyfj5l" width="300%" x="-1" y="-1"><feGaussianBlur result="blurOut" stdDeviation="2.0"/><feColorMatrix in="blurOut" result="blurOut2" type="matrix" values="0 0 0 0 0 0 0 0 0 0 0 0 0 0 0 0 0 0 .4 0"/><feOffset dx="4.0" dy="4.0" in="blurOut2" result="blurOut3"/><feBlend in="SourceGraphic" in2="blurOut3" mode="normal"/></filter></defs><g><!--MD5=[717f0b2ac592ada1aed197fa4a5c1216]
cluster TagS--><polygon fill="#FFFFFF" filter="url(#fgpk333tyfj5l)" points="16,110.5,143,110.5,150,132.7969,834,132.7969,834,320.5,16,320.5,16,110.5" style="stroke: #000000; stroke-width: 1.5;"/><line style="stroke: #000000; stroke-width: 1.5;" x1="16" x2="150" y1="132.7969" y2="132.7969"/><text fill="#000000" font-family="sans-serif" font-size="14" font-weight="bold" lengthAdjust="spacingAndGlyphs" textLength="121" x="20" y="125.4951">taggingService</text><!--MD5=[4fe229d28f92d5491dbe35fa285a6b53]
cluster MBTagS--><polygon fill="#FFFFFF" filter="url(#fgpk333tyfj5l)" points="529,211.5,692,211.5,699,233.7969,810,233.7969,810,296.5,529,296.5,529,211.5" style="stroke: #000000; stroke-width: 1.5;"/><line style="stroke: #000000; stroke-width: 1.5;" x1="529" x2="699" y1="233.7969" y2="233.7969"/><text fill="#000000" font-family="sans-serif" font-size="14" font-weight="bold" lengthAdjust="spacingAndGlyphs" textLength="157" x="533" y="226.4951">MusicBrainzService</text><!--MD5=[7a3ceb1b8f88ab1666b92dccd5a9b8fc]
cluster DTagS--><polygon fill="#FFFFFF" filter="url(#fgpk333tyfj5l)" points="162,211.5,291,211.5,298,233.7969,505,233.7969,505,296.5,162,296.5,162,211.5" style="stroke: #000000; stroke-width: 1.5;"/><line style="stroke: #000000; stroke-width: 1.5;" x1="162" x2="298" y1="233.7969" y2="233.7969"/><text fill="#000000" font-family="sans-serif" font-size="14" font-weight="bold" lengthAdjust="spacingAndGlyphs" textLength="123" x="166" y="226.4951">DiscOgsService</text><rect fill="#FEFECE" filter="url(#fgpk333tyfj5l)" height="33.9688" style="stroke: #A80036; stroke-width: 1.5;" width="106" x="35" y="145.5"/><text fill="#000000" font-family="sans-serif" font-size="12" lengthAdjust="spacingAndGlyphs" textLength="92" x="42" y="158.6387">TaggingFacade</text><line style="stroke: #A80036; stroke-width: 1.5;" x1="36" x2="140" y1="163.4688" y2="163.4688"/><!--MD5=[7082a85279b71e43da74ea39104bee3a]
class QueryFacade--><rect codeLine="7" fill="#FEFECE" filter="url(#fgpk333tyfj5l)" height="48" id="QueryFacade" style="stroke: #A80036; stroke-width: 1.5;" width="111" x="32.5" y="239.5"/><ellipse cx="47.5" cy="255.5" fill="#B4A7E5" rx="11" ry="11" style="stroke: #A80036; stroke-width: 1.0;"/><path d="M48.4531,252.2813 L50.1719,252.2813 C50.5625,252.2813 50.75,252.25 50.875,252.1719 C51.1406,252.0156 51.2813,251.7344 51.2813,251.4375 C51.2813,251.1719 51.1719,250.9063 50.9375,250.7344 C50.7656,250.625 50.625,250.5938 50.1719,250.5938 L45.0313,250.5938 C44.5938,250.5938 44.4688,250.6094 44.3125,250.7031 C44.0625,250.8594 43.9063,251.1563 43.9063,251.4375 C43.9063,251.7188 44.0469,251.9688 44.2656,252.1406 C44.4219,252.25 44.6094,252.2813 45.0313,252.2813 L46.75,252.2813 L46.75,258.7969 L45.0313,258.7969 C44.5938,258.7969 44.4688,258.8125 44.3125,258.9219 C44.0625,259.0781 43.9063,259.3594 43.9063,259.6563 C43.9063,259.9063 44.0469,260.1719 44.2656,260.3281 C44.4219,260.4531 44.625,260.5 45.0313,260.5 L50.1719,260.5 C50.9219,260.5 51.2813,260.2188 51.2813,259.6563 C51.2813,259.375 51.1719,259.125 50.9375,258.9531 C50.7656,258.8281 50.625,258.7969 50.1719,258.7969 L48.4531,258.7969 L48.4531,252.2813 Z "/><text fill="#000000" font-family="sans-serif" font-size="12" font-style="italic" lengthAdjust="spacingAndGlyphs" textLength="79" x="61.5" y="259.6543">QueryFacade</text><line style="stroke: #A80036; stroke-width: 1.5;" x1="33.5" x2="142.5" y1="271.5" y2="271.5"/><line style="stroke: #A80036; stroke-width: 1.5;" x1="33.5" x2="142.5" y1="279.5" y2="279.5"/><rect fill="#FEFECE" filter="url(#fgpk333tyfj5l)" height="33.9688" style="stroke: #A80036; stroke-width: 1.5;" width="113" x="680.5" y="246.5"/><text fill="#000000" font-family="sans-serif" font-size="12" lengthAdjust="spacingAndGlyphs" textLength="99" x="687.5" y="259.6387">MBQueryFacade</text><line style="stroke: #A80036; stroke-width: 1.5;" x1="681.5" x2="792.5" y1="264.4688" y2="264.4688"/><rect fill="#FEFECE" filter="url(#fgpk333tyfj5l)" height="33.9688" style="stroke: #A80036; stroke-width: 1.5;" width="100" x="545" y="246.5"/><text fill="#000000" font-family="sans-serif" font-size="12" lengthAdjust="spacingAndGlyphs" textLength="86" x="552" y="259.6387">MBQueryArtist</text><line style="stroke: #A80036; stroke-width: 1.5;" x1="546" x2="644" y1="264.4688" y2="264.4688"/><rect fill="#FEFECE" filter="url(#fgpk333tyfj5l)" height="33.9688" style="stroke: #A80036; stroke-width: 1.5;" width="144" x="345" y="246.5"/><text fill="#000000" font-family="sans-serif" font-size="12" lengthAdjust="spacingAndGlyphs" textLength="130" x="352" y="259.6387">DiscogsQueryFacade</text><line style="stroke: #A80036; stroke-width: 1.5;" x1="346" x2="488" y1="264.4688" y2="264.4688"/><rect fill="#FEFECE" filter="url(#fgpk333tyfj5l)" height="33.9688" style="stroke: #A80036; stroke-width: 1.5;" width="131" x="178.5" y="246.5"/><text fill="#000000" font-family="sans-serif" font-size="12" lengthAdjust="spacingAndGlyphs" textLength="117" x="185.5" y="259.6387">DiscogsQueryArtist</text><line style="stroke: #A80036; stroke-width: 1.5;" x1="179.5" x2="308.5" y1="264.4688" y2="264.4688"/><rect fill="#FEFECE" filter="url(#fgpk333tyfj5l)" height="33.9688" style="stroke: #A80036; stroke-width: 1.5;" width="118" x="360" y="347.5"/><text fill="#000000" font-family="sans-serif" font-size="12" lengthAdjust="spacingAndGlyphs" textLength="104" x="367" y="360.6387">External provider</text><line style="stroke: #A80036; stroke-width: 1.5;" x1="361" x2="477" y1="365.4688" y2="365.4688"/><!--MD5=[4a65e84059005d12693a083370a06717]
entity client--><ellipse cx="88" cy="14" fill="#FEFECE" filter="url(#fgpk333tyfj5l)" rx="8" ry="8" style="stroke: #A80036; stroke-width: 1.5;"/><path d="M88,22 L88,49 M75,30 L101,30 M88,49 L75,64 M88,49 L101,64 " fill="none" filter="url(#fgpk333tyfj5l)" style="stroke: #A80036; stroke-width: 1.5;"/><text fill="#000000" font-family="sans-serif" font-size="14" lengthAdjust="spacingAndGlyphs" textLength="41" x="67.5" y="82.4951">client</text><!--MD5=[d9a23e773108e75643ca149677df9aab]
reverse link QueryFacade to MBQueryFacade--><path codeLine="19" d="M123.967,225.179 C139.512,211.5 158.865,197.895 179.5,191.5 C228.957,176.172 596.043,176.172 645.5,191.5 C677.358,201.374 706.16,228.43 722.611,246.417 " fill="none" id="QueryFacade-backto-MBQueryFacade" style="stroke: #A80036; stroke-width: 1.0;"/><polygon fill="none" points="128.571,230.46,109.251,239.163,118.927,220.311,128.571,230.46" style="stroke: #A80036; stroke-width: 1.0;"/><!--MD5=[9e070579a51affe6b9f15e839a1874a5]
reverse link QueryFacade to DiscogsQueryFacade--><path codeLine="20" d="M123.967,225.179 C139.512,211.5 158.865,197.895 179.5,191.5 C207.094,182.948 281.86,183.099 309.5,191.5 C344.746,202.213 378.951,228.749 398.984,246.438 " fill="none" id="QueryFacade-backto-DiscogsQueryFacade" style="stroke: #A80036; stroke-width: 1.0;"/><polygon fill="none" points="128.571,230.46,109.251,239.163,118.927,220.311,128.571,230.46" style="stroke: #A80036; stroke-width: 1.0;"/><!--MD5=[25a8819fd520c92637508986cce1d26b]
link DiscogsQueryArtist to external--><path codeLine="24" d="M261.957,280.604 C278.286,294.6377 303.507,314.8277 328,328.5 C339.482,334.9095 352.376,340.6521 364.767,345.5423 " fill="none" id="DiscogsQueryArtist-to-external" style="stroke: #A80036; stroke-width: 1.0;"/><polygon fill="#A80036" points="369.67,347.4442,362.7261,340.4598,365.0085,345.6357,359.8326,347.9181,369.67,347.4442" style="stroke: #A80036; stroke-width: 1.0;"/><!--MD5=[ea65a65830c69a8ab6a0a5e15d481198]
link MBQueryArtist to external--><path codeLine="25" d="M575.154,280.658 C557.482,294.5372 530.543,314.4688 505,328.5 C493.65,334.7349 480.954,340.5034 468.875,345.4842 " fill="none" id="MBQueryArtist-to-external" style="stroke: #A80036; stroke-width: 1.0;"/><polygon fill="#A80036" points="464.102,347.4253,473.9458,347.7415,468.7339,345.5424,470.9331,340.3305,464.102,347.4253" style="stroke: #A80036; stroke-width: 1.0;"/><!--MD5=[60eae9d5d44b446d918baf36c62ddfd8]
link client to TaggingFacade--><path codeLine="26" d="M88,85.749 C88,103.997 88,124.91 88,140.133 " fill="none" id="client-to-TaggingFacade" style="stroke: #A80036; stroke-width: 1.0;"/><polygon fill="#A80036" points="88,145.469,92,136.469,88,140.469,84,136.469,88,145.469" style="stroke: #A80036; stroke-width: 1.0;"/><!--MD5=[953b423b251471cf2320127396564c52]
link TaggingFacade to QueryFacade--><path codeLine="27" d="M88,179.848 C88,194.58 88,216.563 88,234.155 " fill="none" id="TaggingFacade-to-QueryFacade" style="stroke: #A80036; stroke-width: 1.0;"/><polygon fill="#A80036" points="88,239.461,92,230.461,88,234.461,84,230.461,88,239.461" style="stroke: #A80036; stroke-width: 1.0;"/><!--MD5=[369c60dc6ff79162c359f0d98a8335a1]
@startuml
allowmixing

object "External provider" as external
actor client
package taggingService as TagS{
  object TaggingFacade
  interface QueryFacade

  package MusicBrainzService as MBTagS {
    object MBQueryFacade
    object MBQueryArtist
  }

  package DiscOgsService as DTagS {
    object DiscogsQueryFacade
    object DiscogsQueryArtist
  }

   QueryFacade <|- MBQueryFacade
   QueryFacade <|- DiscogsQueryFacade

}

DiscogsQueryArtist - -> external
MBQueryArtist - -> external
client- ->TaggingFacade
TaggingFacade - -> QueryFacade
@enduml

PlantUML version 1.2020.17beta5(Unknown compile time)
(GPL source distribution)
Java Runtime: Java(TM) SE Runtime Environment
JVM: Java HotSpot(TM) 64-Bit Server VM
Default Encoding: UTF-8
Language: en
Country: US
--></g></svg>