<?xml version="1.0" encoding="UTF-8" standalone="no"?><svg xmlns="http://www.w3.org/2000/svg" xmlns:xlink="http://www.w3.org/1999/xlink" contentScriptType="BandurriaJ/ecmascript" contentStyleType="text/css" height="225px" preserveAspectRatio="none" style="width:352px;height:225px;" version="1.1" viewBox="0 0 352 225" width="352px" zoomAndPan="magnify"><defs><filter height="300%" id="fctjiecner348" width="300%" x="-1" y="-1"><feGaussianBlur result="blurOut" stdDeviation="2.0"/><feColorMatrix in="blurOut" result="blurOut2" type="matrix" values="0 0 0 0 0 0 0 0 0 0 0 0 0 0 0 0 0 0 .4 0"/><feOffset dx="4.0" dy="4.0" in="blurOut2" result="blurOut3"/><feBlend in="SourceGraphic" in2="blurOut3" mode="normal"/></filter></defs><g><!--MD5=[fee662a292a0353a69bd162820bae93b]
entity User--><ellipse cx="21.5" cy="68.5" fill="#FEFECE" filter="url(#fctjiecner348)" rx="8" ry="8" style="stroke: #A80036; stroke-width: 1.5;"/><path d="M21.5,76.5 L21.5,103.5 M8.5,84.5 L34.5,84.5 M21.5,103.5 L8.5,118.5 M21.5,103.5 L34.5,118.5 " fill="none" filter="url(#fctjiecner348)" style="stroke: #A80036; stroke-width: 1.5;"/><text fill="#000000" font-family="sans-serif" font-size="14" lengthAdjust="spacingAndGlyphs" textLength="31" x="6" y="136.9951">User</text><ellipse cx="216.6374" cy="24.4275" fill="#FEFECE" filter="url(#fctjiecner348)" rx="80.1374" ry="18.4275" style="stroke: #A80036; stroke-width: 1.5;"/><text fill="#000000" font-family="sans-serif" font-size="14" lengthAdjust="spacingAndGlyphs" textLength="131" x="151.1374" y="29.0759">Load CD Metadata</text><ellipse cx="216.6163" cy="99.7233" fill="#FEFECE" filter="url(#fctjiecner348)" rx="94.1163" ry="21.2233" style="stroke: #A80036; stroke-width: 1.5;"/><text fill="#000000" font-family="sans-serif" font-size="14" lengthAdjust="spacingAndGlyphs" textLength="163" x="135.1163" y="104.3717">Stores Cd in Catalogue</text><ellipse cx="216.3655" cy="182.2731" fill="#FEFECE" filter="url(#fctjiecner348)" rx="119.3655" ry="26.2731" style="stroke: #A80036; stroke-width: 1.5;"/><text fill="#000000" font-family="sans-serif" font-size="14" lengthAdjust="spacingAndGlyphs" textLength="218" x="107.3655" y="186.9215">Retrieves data from catalogue</text><!--MD5=[7e6f1430fd88991b381241d4324dfd07]
link User to Load CD Metadata--><path d="M37.2299,90.734 C51.9819,82.21 75.5182,69.295 97,60.5 C116.353,52.577 138.104,45.478 157.639,39.72 " fill="none" id="User-&gt;Load CD Metadata" style="stroke: #A80036; stroke-width: 1.0;"/><polygon fill="#A80036" points="162.554,38.286,152.7935,36.9695,157.7545,39.6877,155.0363,44.6487,162.554,38.286" style="stroke: #A80036; stroke-width: 1.0;"/><!--MD5=[717ca884a93c8cfb3e6fdd06ac1efb4b]
link User to Stores Cd in Catalogue--><path d="M37.0064,99.5 C54.5643,99.5 85.6993,99.5 117.102,99.5 " fill="none" id="User-&gt;Stores Cd in Catalogue" style="stroke: #A80036; stroke-width: 1.0;"/><polygon fill="#A80036" points="122.142,99.5,113.142,95.5,117.142,99.5,113.142,103.5,122.142,99.5" style="stroke: #A80036; stroke-width: 1.0;"/><!--MD5=[e53af9e9c5cce5fd619962674515fbe4]
link User to Retrieves data from catalogue--><path d="M37.1127,107.551 C51.9703,115.5948 75.7625,128.0847 97,137.5 C113.274,144.715 131.096,151.8635 147.862,158.2672 " fill="none" id="User-&gt;Retrieves data from catalogue" style="stroke: #A80036; stroke-width: 1.0;"/><polygon fill="#A80036" points="152.561,160.053,145.5703,153.1154,147.8875,158.2759,142.727,160.5931,152.561,160.053" style="stroke: #A80036; stroke-width: 1.0;"/><!--MD5=[2ce6ec935cedaa5a9f74f2225471fbb7]
@startuml
'Participants
left to right direction
actor User

'Relationships
User - -> (Load CD Metadata)
User - -> (Stores Cd in Catalogue)
User - -> (Retrieves data from catalogue)
@enduml

@startuml
left to right direction
actor User

User - -> (Load CD Metadata)
User - -> (Stores Cd in Catalogue)
User - -> (Retrieves data from catalogue)
@enduml

PlantUML version 1.2020.16beta7(Unknown compile time)
(GPL source distribution)
Java Runtime: Java(TM) SE Runtime Environment
JVM: Java HotSpot(TM) 64-Bit Server VM
Default Encoding: UTF-8
Language: en
Country: US
--></g></svg>